<svg width="40" height="40" viewBox="0 0 40 40" fill="none" xmlns="http://www.w3.org/2000/svg">
<g id="Shop/Support">
<g id="Union">
<path fill-rule="evenodd" clip-rule="evenodd" d="M13.3453 17.5301C11.737 17.522 10.4253 18.8166 10.4122 20.4248C10.4086 21.2023 10.7144 21.9494 11.2621 22.5013C11.8099 23.0533 12.5547 23.3647 13.3323 23.3669C14.9404 23.366 16.2449 22.0642 16.249 20.4558C16.253 18.8469 14.9542 17.5383 13.3453 17.5301ZM7.91228 20.4073C7.93505 17.4203 10.3709 15.015 13.358 15.0301C16.345 15.0453 18.7565 17.475 18.749 20.4621C18.7415 23.4492 16.3179 25.8669 13.3307 25.8669L13.3277 25.8669C11.8854 25.8634 10.5037 25.2861 9.48768 24.2624C8.47166 23.2386 7.90485 21.8526 7.91226 20.4104L7.91228 20.4073Z" fill="#0EB14F"/>
<path fill-rule="evenodd" clip-rule="evenodd" d="M23.3376 14.9984C22.6645 14.9968 22.0564 15.4001 21.7962 16.0212C21.5354 16.6437 21.6758 17.3621 22.1518 17.8407C22.6278 18.3193 23.3454 18.4635 23.9694 18.206C24.5919 17.9492 24.9985 17.3431 25.0004 16.67C25.0004 16.6716 25.0004 16.6732 25.0004 16.6748L24.5125 16.6711C24.5132 16.6691 24.5139 16.6672 24.5146 16.6652M23.3376 14.9984C23.78 14.9986 24.2042 15.1751 24.5163 15.4888C24.8283 15.8026 25.0025 16.2276 25.0004 16.67" fill="#0EB14F"/>
<path fill-rule="evenodd" clip-rule="evenodd" d="M28.5249 14.9984C27.8519 14.9968 27.2437 15.4001 26.9835 16.0212C26.7227 16.6437 26.8631 17.3621 27.3391 17.8407C27.8151 18.3193 28.5328 18.4635 29.1567 18.206C29.7792 17.9492 30.1858 17.3431 30.1877 16.67C30.1877 16.6716 30.1877 16.6732 30.1877 16.6748L29.6999 16.6711C29.7006 16.6691 29.7013 16.6672 29.702 16.6652M28.5249 14.9984C28.9673 14.9986 29.3915 15.1751 29.7036 15.4888C30.0157 15.8026 30.1898 16.2276 30.1877 16.67" fill="#0EB14F"/>
<path fill-rule="evenodd" clip-rule="evenodd" d="M9.15864 27.5036L9.1623 27.5036L17.5028 27.5036C20.4896 27.5123 22.9088 29.9315 22.9175 32.9183L22.9175 32.922L22.9175 33.9641L22.9175 33.9678C22.9138 35.2301 21.8914 36.2525 20.6291 36.2562L20.6254 36.2562H6.036L6.03233 36.2562C4.77 36.2525 3.7476 35.2301 3.7439 33.9678L3.7439 33.9641V32.9183C3.75264 29.9315 6.17179 27.5123 9.15864 27.5036ZM9.16429 30.0036C7.55376 30.0092 6.24951 31.3135 6.2439 32.924V33.7562H20.4175V32.9242C20.412 31.3136 19.1077 30.0092 17.4971 30.0036H9.16429Z" fill="#0EB14F"/>
<path fill-rule="evenodd" clip-rule="evenodd" d="M26.5262 6.76153C22.1791 5.36785 17.4313 6.96954 14.8169 10.7117C14.4215 11.2776 13.6422 11.4159 13.0763 11.0205C12.5104 10.6251 12.3721 9.84581 12.7675 9.27989C16.0099 4.63887 21.8982 2.65244 27.2894 4.38089C32.6806 6.10935 36.3162 11.1492 36.2557 16.8104C36.1951 22.4715 32.4526 27.4325 27.0257 29.0453C26.3639 29.2419 25.668 28.8649 25.4714 28.2031C25.2747 27.5414 25.6518 26.8455 26.3135 26.6488C30.6893 25.3484 33.707 21.3483 33.7558 16.7836C33.8046 12.2189 30.8732 8.15522 26.5262 6.76153Z" fill="#0EB14F"/>
<path fill-rule="evenodd" clip-rule="evenodd" d="M13.3453 17.5301C11.737 17.522 10.4253 18.8166 10.4122 20.4248C10.4086 21.2023 10.7144 21.9494 11.2621 22.5013C11.8099 23.0533 12.5547 23.3647 13.3323 23.3669C14.9404 23.366 16.2449 22.0642 16.249 20.4558C16.253 18.8469 14.9542 17.5383 13.3453 17.5301ZM7.91228 20.4073C7.93505 17.4203 10.3709 15.015 13.358 15.0301C16.345 15.0453 18.7565 17.475 18.749 20.4621C18.7415 23.4492 16.3179 25.8669 13.3307 25.8669L13.3277 25.8669C11.8854 25.8634 10.5037 25.2861 9.48768 24.2624C8.47166 23.2386 7.90485 21.8526 7.91226 20.4104L7.91228 20.4073Z" fill="#0EB14F"/>
<path fill-rule="evenodd" clip-rule="evenodd" d="M23.3376 14.9984C22.6645 14.9968 22.0564 15.4001 21.7962 16.0212C21.5354 16.6437 21.6758 17.3621 22.1518 17.8407C22.6278 18.3193 23.3454 18.4635 23.9694 18.206C24.5919 17.9492 24.9985 17.3431 25.0004 16.67C25.0004 16.6716 25.0004 16.6732 25.0004 16.6748L24.5125 16.6711C24.5132 16.6691 24.5139 16.6672 24.5146 16.6652M23.3376 14.9984C23.78 14.9986 24.2042 15.1751 24.5163 15.4888C24.8283 15.8026 25.0025 16.2276 25.0004 16.67" fill="#0EB14F"/>
<path fill-rule="evenodd" clip-rule="evenodd" d="M28.5249 14.9984C27.8519 14.9968 27.2437 15.4001 26.9835 16.0212C26.7227 16.6437 26.8631 17.3621 27.3391 17.8407C27.8151 18.3193 28.5328 18.4635 29.1567 18.206C29.7792 17.9492 30.1858 17.3431 30.1877 16.67C30.1877 16.6716 30.1877 16.6732 30.1877 16.6748L29.6999 16.6711C29.7006 16.6691 29.7013 16.6672 29.702 16.6652M28.5249 14.9984C28.9673 14.9986 29.3915 15.1751 29.7036 15.4888C30.0157 15.8026 30.1898 16.2276 30.1877 16.67" fill="#0EB14F"/>
<path fill-rule="evenodd" clip-rule="evenodd" d="M9.15864 27.5036L9.1623 27.5036L17.5028 27.5036C20.4896 27.5123 22.9088 29.9315 22.9175 32.9183L22.9175 32.922L22.9175 33.9641L22.9175 33.9678C22.9138 35.2301 21.8914 36.2525 20.6291 36.2562L20.6254 36.2562H6.036L6.03233 36.2562C4.77 36.2525 3.7476 35.2301 3.7439 33.9678L3.7439 33.9641V32.9183C3.75264 29.9315 6.17179 27.5123 9.15864 27.5036ZM9.16429 30.0036C7.55376 30.0092 6.24951 31.3135 6.2439 32.924V33.7562H20.4175V32.9242C20.412 31.3136 19.1077 30.0092 17.4971 30.0036H9.16429Z" fill="#0EB14F"/>
<path fill-rule="evenodd" clip-rule="evenodd" d="M26.5262 6.76153C22.1791 5.36785 17.4313 6.96954 14.8169 10.7117C14.4215 11.2776 13.6422 11.4159 13.0763 11.0205C12.5104 10.6251 12.3721 9.84581 12.7675 9.27989C16.0099 4.63887 21.8982 2.65244 27.2894 4.38089C32.6806 6.10935 36.3162 11.1492 36.2557 16.8104C36.1951 22.4715 32.4526 27.4325 27.0257 29.0453C26.3639 29.2419 25.668 28.8649 25.4714 28.2031C25.2747 27.5414 25.6518 26.8455 26.3135 26.6488C30.6893 25.3484 33.707 21.3483 33.7558 16.7836C33.8046 12.2189 30.8732 8.15522 26.5262 6.76153Z" fill="#0EB14F"/>
</g>
</g>
</svg>
