<svg width="40" height="40" viewBox="0 0 40 40" fill="none" xmlns="http://www.w3.org/2000/svg">
<g id="Shop/Ruler">
<g id="Union">
<path fill-rule="evenodd" clip-rule="evenodd" d="M11.7086 6.37286C11.5442 6.20927 11.28 6.21102 11.1189 6.37212L6.37227 11.1188C6.21089 11.2797 6.20813 11.5435 6.37227 11.7077L28.2911 33.6266C28.4556 33.7899 28.7202 33.7887 28.8812 33.6277L33.6267 28.8821C33.79 28.7177 33.7888 28.4531 33.6278 28.2921L11.7086 6.37286ZM9.35117 4.60435C10.4899 3.46557 12.3355 3.46719 13.4745 4.60322L35.3956 26.5243C36.5344 27.6631 36.5328 29.5087 35.3967 30.6477L30.6489 35.3955C29.5102 36.5342 27.6646 36.5326 26.5256 35.3966L4.6045 13.4754C3.46554 12.3365 3.46368 10.4897 4.60492 9.3506L9.35117 4.60435Z" fill="#0EB14F"/>
<path fill-rule="evenodd" clip-rule="evenodd" d="M24.4339 15.566C24.9221 16.0542 24.9221 16.8456 24.4339 17.3338L21.9339 19.8338C21.4458 20.3219 20.6543 20.3219 20.1662 19.8338C19.678 19.3456 19.678 18.5542 20.1662 18.066L22.6662 15.566C23.1543 15.0779 23.9458 15.0779 24.4339 15.566Z" fill="#0EB14F"/>
<path fill-rule="evenodd" clip-rule="evenodd" d="M28.7514 19.8819C29.2399 20.3705 29.2399 21.1626 28.7514 21.6512L27.0847 23.3179C26.5961 23.8065 25.804 23.8065 25.3154 23.3179C24.8268 22.8293 24.8268 22.0372 25.3154 21.5486L26.9821 19.8819C27.4706 19.3933 28.2628 19.3933 28.7514 19.8819Z" fill="#0EB14F"/>
<path fill-rule="evenodd" clip-rule="evenodd" d="M32.718 23.8486C33.2066 24.3372 33.2066 25.1293 32.718 25.6179L30.218 28.1179C29.7295 28.6065 28.9373 28.6065 28.4487 28.1179C27.9602 27.6293 27.9602 26.8372 28.4487 26.3486L30.9487 23.8486C31.4373 23.36 32.2295 23.36 32.718 23.8486Z" fill="#0EB14F"/>
<path fill-rule="evenodd" clip-rule="evenodd" d="M20.4725 11.603C20.9586 12.0941 20.9546 12.8862 20.4636 13.3723L18.7969 15.0223C18.3059 15.5084 17.5138 15.5045 17.0276 15.0134C16.5415 14.5224 16.5455 13.7303 17.0365 13.2441L18.7032 11.5941C19.1942 11.108 19.9864 11.112 20.4725 11.603Z" fill="#0EB14F"/>
<path fill-rule="evenodd" clip-rule="evenodd" d="M16.1506 7.28268C16.6388 7.77084 16.6388 8.56229 16.1506 9.05045L13.6506 11.5504C13.1624 12.0386 12.371 12.0386 11.8828 11.5504C11.3947 11.0623 11.3947 10.2708 11.8828 9.78268L14.3828 7.28268C14.871 6.79453 15.6624 6.79453 16.1506 7.28268Z" fill="#0EB14F"/>
<path fill-rule="evenodd" clip-rule="evenodd" d="M31.8412 6.94878C31.0223 6.12995 29.7105 6.13391 28.9106 6.93378L21.4739 14.3704C20.9858 14.8586 20.1943 14.8586 19.7062 14.3704C19.218 13.8823 19.218 13.0908 19.7062 12.6027L27.1428 5.16602C28.9296 3.37923 31.8244 3.39651 33.6089 5.18102L34.8023 6.37435C36.5868 8.15885 36.6041 11.0537 34.8173 12.8404L27.3806 20.2771C26.8924 20.7653 26.101 20.7653 25.6128 20.2771C25.1247 19.789 25.1247 18.9975 25.6128 18.5094L33.0495 11.0727C33.8494 10.2728 33.8533 8.96094 33.0345 8.14212L31.8412 6.94878Z" fill="#0EB14F"/>
<path fill-rule="evenodd" clip-rule="evenodd" d="M14.3706 19.706C14.8588 20.1942 14.8588 20.9856 14.3706 21.4738L7.65393 28.1904C7.60304 28.2413 7.56458 28.3073 7.54497 28.3822L6.30862 33.166C6.22746 33.4797 6.51262 33.764 6.82553 33.6822L11.6003 32.4373C11.672 32.4184 11.7381 32.3808 11.7912 32.3277L18.5095 25.6093C18.9977 25.1212 19.7891 25.1212 20.2773 25.6093C20.7654 26.0975 20.7654 26.889 20.2773 27.3771L13.5589 34.0955C13.1921 34.4623 12.7346 34.7247 12.2331 34.8559L7.45791 36.1009C5.29792 36.665 3.32968 34.6997 3.88815 32.5405L5.12531 27.7536C5.25575 27.2521 5.51721 26.7916 5.88617 26.4227L12.6028 19.706C13.091 19.2179 13.8824 19.2179 14.3706 19.706Z" fill="#0EB14F"/>
<path fill-rule="evenodd" clip-rule="evenodd" d="M24.3162 7.99935C24.8043 7.51119 25.5958 7.51119 26.0839 7.99935L31.9839 13.8993C32.4721 14.3875 32.4721 15.179 31.9839 15.6671C31.4958 16.1553 30.7043 16.1553 30.2162 15.6671L24.3162 9.76712C23.828 9.27896 23.828 8.4875 24.3162 7.99935Z" fill="#0EB14F"/>
<path fill-rule="evenodd" clip-rule="evenodd" d="M11.7086 6.37286C11.5442 6.20927 11.28 6.21102 11.1189 6.37212L6.37227 11.1188C6.21089 11.2797 6.20813 11.5435 6.37227 11.7077L28.2911 33.6266C28.4556 33.7899 28.7202 33.7887 28.8812 33.6277L33.6267 28.8821C33.79 28.7177 33.7888 28.4531 33.6278 28.2921L11.7086 6.37286ZM9.35117 4.60435C10.4899 3.46557 12.3355 3.46719 13.4745 4.60322L35.3956 26.5243C36.5344 27.6631 36.5328 29.5087 35.3967 30.6477L30.6489 35.3955C29.5102 36.5342 27.6646 36.5326 26.5256 35.3966L4.6045 13.4754C3.46554 12.3365 3.46368 10.4897 4.60492 9.3506L9.35117 4.60435Z" fill="#0EB14F"/>
<path fill-rule="evenodd" clip-rule="evenodd" d="M24.4339 15.566C24.9221 16.0542 24.9221 16.8456 24.4339 17.3338L21.9339 19.8338C21.4458 20.3219 20.6543 20.3219 20.1662 19.8338C19.678 19.3456 19.678 18.5542 20.1662 18.066L22.6662 15.566C23.1543 15.0779 23.9458 15.0779 24.4339 15.566Z" fill="#0EB14F"/>
<path fill-rule="evenodd" clip-rule="evenodd" d="M28.7514 19.8819C29.2399 20.3705 29.2399 21.1626 28.7514 21.6512L27.0847 23.3179C26.5961 23.8065 25.804 23.8065 25.3154 23.3179C24.8268 22.8293 24.8268 22.0372 25.3154 21.5486L26.9821 19.8819C27.4706 19.3933 28.2628 19.3933 28.7514 19.8819Z" fill="#0EB14F"/>
<path fill-rule="evenodd" clip-rule="evenodd" d="M32.718 23.8486C33.2066 24.3372 33.2066 25.1293 32.718 25.6179L30.218 28.1179C29.7295 28.6065 28.9373 28.6065 28.4487 28.1179C27.9602 27.6293 27.9602 26.8372 28.4487 26.3486L30.9487 23.8486C31.4373 23.36 32.2295 23.36 32.718 23.8486Z" fill="#0EB14F"/>
<path fill-rule="evenodd" clip-rule="evenodd" d="M20.4725 11.603C20.9586 12.0941 20.9546 12.8862 20.4636 13.3723L18.7969 15.0223C18.3059 15.5084 17.5138 15.5045 17.0276 15.0134C16.5415 14.5224 16.5455 13.7303 17.0365 13.2441L18.7032 11.5941C19.1942 11.108 19.9864 11.112 20.4725 11.603Z" fill="#0EB14F"/>
<path fill-rule="evenodd" clip-rule="evenodd" d="M16.1506 7.28268C16.6388 7.77084 16.6388 8.56229 16.1506 9.05045L13.6506 11.5504C13.1624 12.0386 12.371 12.0386 11.8828 11.5504C11.3947 11.0623 11.3947 10.2708 11.8828 9.78268L14.3828 7.28268C14.871 6.79453 15.6624 6.79453 16.1506 7.28268Z" fill="#0EB14F"/>
<path fill-rule="evenodd" clip-rule="evenodd" d="M31.8412 6.94878C31.0223 6.12995 29.7105 6.13391 28.9106 6.93378L21.4739 14.3704C20.9858 14.8586 20.1943 14.8586 19.7062 14.3704C19.218 13.8823 19.218 13.0908 19.7062 12.6027L27.1428 5.16602C28.9296 3.37923 31.8244 3.39651 33.6089 5.18102L34.8023 6.37435C36.5868 8.15885 36.6041 11.0537 34.8173 12.8404L27.3806 20.2771C26.8924 20.7653 26.101 20.7653 25.6128 20.2771C25.1247 19.789 25.1247 18.9975 25.6128 18.5094L33.0495 11.0727C33.8494 10.2728 33.8533 8.96094 33.0345 8.14212L31.8412 6.94878Z" fill="#0EB14F"/>
<path fill-rule="evenodd" clip-rule="evenodd" d="M14.3706 19.706C14.8588 20.1942 14.8588 20.9856 14.3706 21.4738L7.65393 28.1904C7.60304 28.2413 7.56458 28.3073 7.54497 28.3822L6.30862 33.166C6.22746 33.4797 6.51262 33.764 6.82553 33.6822L11.6003 32.4373C11.672 32.4184 11.7381 32.3808 11.7912 32.3277L18.5095 25.6093C18.9977 25.1212 19.7891 25.1212 20.2773 25.6093C20.7654 26.0975 20.7654 26.889 20.2773 27.3771L13.5589 34.0955C13.1921 34.4623 12.7346 34.7247 12.2331 34.8559L7.45791 36.1009C5.29792 36.665 3.32968 34.6997 3.88815 32.5405L5.12531 27.7536C5.25575 27.2521 5.51721 26.7916 5.88617 26.4227L12.6028 19.706C13.091 19.2179 13.8824 19.2179 14.3706 19.706Z" fill="#0EB14F"/>
<path fill-rule="evenodd" clip-rule="evenodd" d="M24.3162 7.99935C24.8043 7.51119 25.5958 7.51119 26.0839 7.99935L31.9839 13.8993C32.4721 14.3875 32.4721 15.179 31.9839 15.6671C31.4958 16.1553 30.7043 16.1553 30.2162 15.6671L24.3162 9.76712C23.828 9.27896 23.828 8.4875 24.3162 7.99935Z" fill="#0EB14F"/>
</g>
</g>
</svg>
