<svg width="40" height="40" viewBox="0 0 40 40" fill="none" xmlns="http://www.w3.org/2000/svg">
<g id="Shop/DeliveryTruck">
<g id="Union">
<path fill-rule="evenodd" clip-rule="evenodd" d="M11.9562 31.3773C11.4136 30.8347 10.5345 30.8343 9.98988 31.378C9.44862 31.9184 9.44721 32.7986 9.99131 33.3436C10.5326 33.8857 11.4123 33.8868 11.9562 33.3429C12.4983 32.8016 12.5001 31.9212 11.9562 31.3773ZM13.7239 29.6095C12.2032 28.0888 9.74229 28.0925 8.22354 29.6088C6.70146 31.1284 6.70621 33.5916 8.22211 35.1099C9.74077 36.631 12.2043 36.6301 13.7238 35.1108M13.7238 35.1108C15.2442 33.592 15.2431 31.1287 13.7239 29.6095Z" fill="#0EB14F"/>
<path fill-rule="evenodd" clip-rule="evenodd" d="M15.4167 6.66675C15.4167 5.97639 15.9764 5.41675 16.6667 5.41675H23.3334C24.9437 5.41675 26.25 6.72306 26.25 8.33341V25.0001C26.25 25.6904 25.6904 26.2501 25 26.2501H3.33337C2.64302 26.2501 2.08337 25.6904 2.08337 25.0001C2.08337 24.3097 2.64302 23.7501 3.33337 23.7501H23.75V8.33341C23.75 8.10377 23.563 7.91675 23.3334 7.91675H16.6667C15.9764 7.91675 15.4167 7.3571 15.4167 6.66675Z" fill="#0EB14F"/>
<path fill-rule="evenodd" clip-rule="evenodd" d="M3.33337 20.4167C4.02373 20.4167 4.58337 20.9764 4.58337 21.6667V30.6934C4.58337 30.9231 4.7704 31.1101 5.00004 31.1101H8.33337C9.02373 31.1101 9.58337 31.6697 9.58337 32.3601C9.58337 33.0504 9.02373 33.6101 8.33337 33.6101H5.00004C3.38968 33.6101 2.08337 32.3038 2.08337 30.6934V21.6667C2.08337 20.9764 2.64302 20.4167 3.33337 20.4167Z" fill="#0EB14F"/>
<path fill-rule="evenodd" clip-rule="evenodd" d="M23.75 11.6667C23.75 10.9764 24.3097 10.4167 25 10.4167H32.205C33.3967 10.4167 34.471 11.142 34.9128 12.252L37.5896 18.9425C37.8041 19.481 37.9167 20.0578 37.9167 20.6417V30.5551C37.9167 32.1654 36.6104 33.4717 35 33.4717H31.9484C31.258 33.4717 30.6984 32.9121 30.6984 32.2217C30.6984 31.5314 31.258 30.9717 31.9484 30.9717H35C35.2297 30.9717 35.4167 30.7847 35.4167 30.5551V20.6417C35.4167 20.3792 35.3661 20.1163 35.2674 19.8683L32.5912 13.1794L32.5901 13.1767C32.5282 13.0209 32.3762 12.9167 32.205 12.9167H25C24.3097 12.9167 23.75 12.3571 23.75 11.6667Z" fill="#0EB14F"/>
<path fill-rule="evenodd" clip-rule="evenodd" d="M12.3667 32.3667C12.3667 31.6764 12.9264 31.1167 13.6167 31.1167H26.6667C27.3571 31.1167 27.9167 31.6764 27.9167 32.3667C27.9167 33.0571 27.3571 33.6167 26.6667 33.6167H13.6167C12.9264 33.6167 12.3667 33.0571 12.3667 32.3667Z" fill="#0EB14F"/>
<path fill-rule="evenodd" clip-rule="evenodd" d="M28.75 16.6667C28.75 15.9764 29.3097 15.4167 30 15.4167H35.3334C36.0237 15.4167 36.5834 15.9764 36.5834 16.6667C36.5834 17.3571 36.0237 17.9167 35.3334 17.9167H31.25V22.0834H36.6667C37.3571 22.0834 37.9167 22.6431 37.9167 23.3334C37.9167 24.0238 37.3571 24.5834 36.6667 24.5834H30C29.3097 24.5834 28.75 24.0238 28.75 23.3334V16.6667Z" fill="#0EB14F"/>
<path fill-rule="evenodd" clip-rule="evenodd" d="M2.08337 6.66675C2.08337 5.97639 2.64302 5.41675 3.33337 5.41675H11.6667C12.3571 5.41675 12.9167 5.97639 12.9167 6.66675C12.9167 7.3571 12.3571 7.91675 11.6667 7.91675H3.33337C2.64302 7.91675 2.08337 7.3571 2.08337 6.66675Z" fill="#0EB14F"/>
<path fill-rule="evenodd" clip-rule="evenodd" d="M2.08337 11.6667C2.08337 10.9764 2.64302 10.4167 3.33337 10.4167H8.33337C9.02373 10.4167 9.58337 10.9764 9.58337 11.6667C9.58337 12.3571 9.02373 12.9167 8.33337 12.9167H3.33337C2.64302 12.9167 2.08337 12.3571 2.08337 11.6667Z" fill="#0EB14F"/>
<path fill-rule="evenodd" clip-rule="evenodd" d="M2.08337 16.6667C2.08337 15.9764 2.64302 15.4167 3.33337 15.4167H5.00004C5.6904 15.4167 6.25004 15.9764 6.25004 16.6667C6.25004 17.3571 5.6904 17.9167 5.00004 17.9167H3.33337C2.64302 17.9167 2.08337 17.3571 2.08337 16.6667Z" fill="#0EB14F"/>
<path fill-rule="evenodd" clip-rule="evenodd" d="M11.9562 31.3773C11.4136 30.8347 10.5345 30.8343 9.98988 31.378C9.44862 31.9184 9.44721 32.7986 9.99131 33.3436C10.5326 33.8857 11.4123 33.8868 11.9562 33.3429C12.4983 32.8016 12.5001 31.9212 11.9562 31.3773ZM13.7239 29.6095C12.2032 28.0888 9.74229 28.0925 8.22354 29.6088C6.70146 31.1284 6.70621 33.5916 8.22211 35.1099C9.74077 36.631 12.2043 36.6301 13.7238 35.1108M13.7238 35.1108C15.2442 33.592 15.2431 31.1287 13.7239 29.6095Z" fill="#0EB14F"/>
<path fill-rule="evenodd" clip-rule="evenodd" d="M15.4167 6.66675C15.4167 5.97639 15.9764 5.41675 16.6667 5.41675H23.3334C24.9437 5.41675 26.25 6.72306 26.25 8.33341V25.0001C26.25 25.6904 25.6904 26.2501 25 26.2501H3.33337C2.64302 26.2501 2.08337 25.6904 2.08337 25.0001C2.08337 24.3097 2.64302 23.7501 3.33337 23.7501H23.75V8.33341C23.75 8.10377 23.563 7.91675 23.3334 7.91675H16.6667C15.9764 7.91675 15.4167 7.3571 15.4167 6.66675Z" fill="#0EB14F"/>
<path fill-rule="evenodd" clip-rule="evenodd" d="M3.33337 20.4167C4.02373 20.4167 4.58337 20.9764 4.58337 21.6667V30.6934C4.58337 30.9231 4.7704 31.1101 5.00004 31.1101H8.33337C9.02373 31.1101 9.58337 31.6697 9.58337 32.3601C9.58337 33.0504 9.02373 33.6101 8.33337 33.6101H5.00004C3.38968 33.6101 2.08337 32.3038 2.08337 30.6934V21.6667C2.08337 20.9764 2.64302 20.4167 3.33337 20.4167Z" fill="#0EB14F"/>
<path fill-rule="evenodd" clip-rule="evenodd" d="M23.75 11.6667C23.75 10.9764 24.3097 10.4167 25 10.4167H32.205C33.3967 10.4167 34.471 11.142 34.9128 12.252L37.5896 18.9425C37.8041 19.481 37.9167 20.0578 37.9167 20.6417V30.5551C37.9167 32.1654 36.6104 33.4717 35 33.4717H31.9484C31.258 33.4717 30.6984 32.9121 30.6984 32.2217C30.6984 31.5314 31.258 30.9717 31.9484 30.9717H35C35.2297 30.9717 35.4167 30.7847 35.4167 30.5551V20.6417C35.4167 20.3792 35.3661 20.1163 35.2674 19.8683L32.5912 13.1794L32.5901 13.1767C32.5282 13.0209 32.3762 12.9167 32.205 12.9167H25C24.3097 12.9167 23.75 12.3571 23.75 11.6667Z" fill="#0EB14F"/>
<path fill-rule="evenodd" clip-rule="evenodd" d="M12.3667 32.3667C12.3667 31.6764 12.9264 31.1167 13.6167 31.1167H26.6667C27.3571 31.1167 27.9167 31.6764 27.9167 32.3667C27.9167 33.0571 27.3571 33.6167 26.6667 33.6167H13.6167C12.9264 33.6167 12.3667 33.0571 12.3667 32.3667Z" fill="#0EB14F"/>
<path fill-rule="evenodd" clip-rule="evenodd" d="M28.75 16.6667C28.75 15.9764 29.3097 15.4167 30 15.4167H35.3334C36.0237 15.4167 36.5834 15.9764 36.5834 16.6667C36.5834 17.3571 36.0237 17.9167 35.3334 17.9167H31.25V22.0834H36.6667C37.3571 22.0834 37.9167 22.6431 37.9167 23.3334C37.9167 24.0238 37.3571 24.5834 36.6667 24.5834H30C29.3097 24.5834 28.75 24.0238 28.75 23.3334V16.6667Z" fill="#0EB14F"/>
<path fill-rule="evenodd" clip-rule="evenodd" d="M2.08337 6.66675C2.08337 5.97639 2.64302 5.41675 3.33337 5.41675H11.6667C12.3571 5.41675 12.9167 5.97639 12.9167 6.66675C12.9167 7.3571 12.3571 7.91675 11.6667 7.91675H3.33337C2.64302 7.91675 2.08337 7.3571 2.08337 6.66675Z" fill="#0EB14F"/>
<path fill-rule="evenodd" clip-rule="evenodd" d="M2.08337 11.6667C2.08337 10.9764 2.64302 10.4167 3.33337 10.4167H8.33337C9.02373 10.4167 9.58337 10.9764 9.58337 11.6667C9.58337 12.3571 9.02373 12.9167 8.33337 12.9167H3.33337C2.64302 12.9167 2.08337 12.3571 2.08337 11.6667Z" fill="#0EB14F"/>
<path fill-rule="evenodd" clip-rule="evenodd" d="M2.08337 16.6667C2.08337 15.9764 2.64302 15.4167 3.33337 15.4167H5.00004C5.6904 15.4167 6.25004 15.9764 6.25004 16.6667C6.25004 17.3571 5.6904 17.9167 5.00004 17.9167H3.33337C2.64302 17.9167 2.08337 17.3571 2.08337 16.6667Z" fill="#0EB14F"/>
<path fill-rule="evenodd" clip-rule="evenodd" d="M30.2813 31.3773C29.7387 30.8347 28.8596 30.8343 28.315 31.378C27.7738 31.9184 27.7723 32.7986 28.3164 33.3436C28.8577 33.8857 29.7374 33.8868 30.2813 33.3429C30.8235 32.8016 30.8252 31.9212 30.2813 31.3773ZM32.0491 29.6095C30.5283 28.0888 28.0674 28.0925 26.5487 29.6088C25.0266 31.1284 25.0313 33.5916 26.5472 35.1099C28.0659 36.631 30.5295 36.6301 32.0489 35.1108M32.0489 35.1108C33.5694 33.592 33.5683 31.1287 32.0491 29.6095Z" fill="#0EB14F"/>
<path fill-rule="evenodd" clip-rule="evenodd" d="M30.2813 31.3773C29.7387 30.8347 28.8596 30.8343 28.315 31.378C27.7738 31.9184 27.7723 32.7986 28.3164 33.3436C28.8577 33.8857 29.7374 33.8868 30.2813 33.3429C30.8235 32.8016 30.8252 31.9212 30.2813 31.3773ZM32.0491 29.6095C30.5283 28.0888 28.0674 28.0925 26.5487 29.6088C25.0266 31.1284 25.0313 33.5916 26.5472 35.1099C28.0659 36.631 30.5295 36.6301 32.0489 35.1108M32.0489 35.1108C33.5694 33.592 33.5683 31.1287 32.0491 29.6095Z" fill="#0EB14F"/>
</g>
</g>
</svg>
