<svg width="40" height="40" viewBox="0 0 40 40" fill="none" xmlns="http://www.w3.org/2000/svg">
<g id="Shop/Business">
<g id="Union">
<path fill-rule="evenodd" clip-rule="evenodd" d="M13.3307 6.24365C12.1793 6.24365 11.246 7.17701 11.246 8.32837V16.6652C11.246 17.3555 10.6863 17.9152 9.99598 17.9152C9.30562 17.9152 8.74598 17.3555 8.74598 16.6652V8.32837C8.74598 5.7963 10.7986 3.74365 13.3307 3.74365H31.6717C34.2037 3.74365 36.2564 5.7963 36.2564 8.32837V31.6714C36.2564 34.2035 34.2037 36.2562 31.6717 36.2562H25.0022C24.3119 36.2562 23.7522 35.6965 23.7522 35.0062C23.7522 34.3158 24.3119 33.7562 25.0022 33.7562H31.6717C32.823 33.7562 33.7564 32.8228 33.7564 31.6714V8.32837C33.7564 7.17701 32.823 6.24365 31.6717 6.24365H13.3307Z" fill="#0EB14F"/>
<path fill-rule="evenodd" clip-rule="evenodd" d="M15.4154 11.6631C15.4154 10.9727 15.9751 10.4131 16.6654 10.4131H28.337C29.0273 10.4131 29.587 10.9727 29.587 11.6631C29.587 12.3535 29.0273 12.9131 28.337 12.9131H16.6654C15.9751 12.9131 15.4154 12.3535 15.4154 11.6631Z" fill="#0EB14F"/>
<path fill-rule="evenodd" clip-rule="evenodd" d="M18.7501 18.3325C18.7501 17.6422 19.3098 17.0825 20.0001 17.0825H28.337C29.0273 17.0825 29.587 17.6422 29.587 18.3325C29.587 19.0229 29.0273 19.5825 28.337 19.5825H20.0001C19.3098 19.5825 18.7501 19.0229 18.7501 18.3325Z" fill="#0EB14F"/>
<path fill-rule="evenodd" clip-rule="evenodd" d="M23.7522 25.002C23.7522 24.3116 24.3119 23.752 25.0022 23.752H28.337C29.0273 23.752 29.587 24.3116 29.587 25.002C29.587 25.6923 29.0273 26.252 28.337 26.252H25.0022C24.3119 26.252 23.7522 25.6923 23.7522 25.002Z" fill="#0EB14F"/>
<path fill-rule="evenodd" clip-rule="evenodd" d="M6.2439 27.044V33.7145H7.91397V27.044H6.2439ZM8.23024 34.0434V33.7149C8.23685 33.7146 8.2435 33.7145 8.2502 33.7146L8.24494 34.0442L8.23024 34.0434ZM8.23024 34.0941V34.9645L8.24414 34.0941H8.23024ZM8.22228 36.2145H5.92595C5.34723 36.2145 4.79222 35.9846 4.38301 35.5754C3.97379 35.1661 3.7439 34.6111 3.7439 34.0324V26.726C3.7439 26.1473 3.97379 25.5923 4.38301 25.1831C4.79222 24.7739 5.34723 24.544 5.92595 24.544H8.24986C8.83302 24.5531 9.38865 24.7938 9.79449 25.2126C10.1975 25.6286 10.42 26.1867 10.414 26.7656V34.0941C10.414 34.1167 10.4134 34.1393 10.4121 34.1619C10.3491 35.3225 9.38315 36.2267 8.22228 36.2145Z" fill="#0EB14F"/>
<path fill-rule="evenodd" clip-rule="evenodd" d="M13.3084 23.3941L10.2282 28.4227C9.86764 29.0114 9.09808 29.1963 8.50939 28.8357C7.92069 28.4751 7.73578 27.7056 8.09637 27.1169L11.1788 22.0847C11.9975 20.7531 13.5998 20.1256 15.105 20.5471C16.6103 20.9685 17.6538 22.3368 17.662 23.9L17.662 23.9065L17.662 25.3243H18.9297C20.105 25.3249 21.2025 25.914 21.852 26.8935C22.4262 27.7574 22.5928 28.8298 22.3075 29.8273L21.087 34.099C20.7267 35.3547 19.5785 36.2216 18.2722 36.2228H12.3003C11.5223 36.2228 10.769 35.9513 10.1699 35.456L10.167 35.4536L8.36294 33.953C7.83219 33.5115 7.75982 32.7234 8.2013 32.1926C8.64277 31.6619 9.43091 31.5895 9.96166 32.031L11.7629 33.5292C11.9142 33.6539 12.1049 33.7228 12.3003 33.7228L18.27 33.7228C18.4617 33.7224 18.6306 33.5953 18.6835 33.4111L19.9037 29.1405C19.9876 28.8471 19.9388 28.5312 19.7697 28.2771L19.7685 28.2753C19.582 27.9938 19.2668 27.8245 18.9291 27.8243H16.412C15.7216 27.8243 15.162 27.2647 15.162 26.5743V23.9105C15.1585 23.4646 14.8605 23.0747 14.431 22.9545C14.0009 22.834 13.5426 23.0138 13.3084 23.3941Z" fill="#0EB14F"/>
<path fill-rule="evenodd" clip-rule="evenodd" d="M13.3307 6.24365C12.1793 6.24365 11.246 7.17701 11.246 8.32837V16.6652C11.246 17.3555 10.6863 17.9152 9.99598 17.9152C9.30562 17.9152 8.74598 17.3555 8.74598 16.6652V8.32837C8.74598 5.7963 10.7986 3.74365 13.3307 3.74365H31.6717C34.2037 3.74365 36.2564 5.7963 36.2564 8.32837V31.6714C36.2564 34.2035 34.2037 36.2562 31.6717 36.2562H25.0022C24.3119 36.2562 23.7522 35.6965 23.7522 35.0062C23.7522 34.3158 24.3119 33.7562 25.0022 33.7562H31.6717C32.823 33.7562 33.7564 32.8228 33.7564 31.6714V8.32837C33.7564 7.17701 32.823 6.24365 31.6717 6.24365H13.3307Z" fill="#0EB14F"/>
<path fill-rule="evenodd" clip-rule="evenodd" d="M15.4154 11.6631C15.4154 10.9727 15.9751 10.4131 16.6654 10.4131H28.337C29.0273 10.4131 29.587 10.9727 29.587 11.6631C29.587 12.3535 29.0273 12.9131 28.337 12.9131H16.6654C15.9751 12.9131 15.4154 12.3535 15.4154 11.6631Z" fill="#0EB14F"/>
<path fill-rule="evenodd" clip-rule="evenodd" d="M18.7501 18.3325C18.7501 17.6422 19.3098 17.0825 20.0001 17.0825H28.337C29.0273 17.0825 29.587 17.6422 29.587 18.3325C29.587 19.0229 29.0273 19.5825 28.337 19.5825H20.0001C19.3098 19.5825 18.7501 19.0229 18.7501 18.3325Z" fill="#0EB14F"/>
<path fill-rule="evenodd" clip-rule="evenodd" d="M23.7522 25.002C23.7522 24.3116 24.3119 23.752 25.0022 23.752H28.337C29.0273 23.752 29.587 24.3116 29.587 25.002C29.587 25.6923 29.0273 26.252 28.337 26.252H25.0022C24.3119 26.252 23.7522 25.6923 23.7522 25.002Z" fill="#0EB14F"/>
<path fill-rule="evenodd" clip-rule="evenodd" d="M6.2439 27.044V33.7145H7.91397V27.044H6.2439ZM8.23024 34.0434V33.7149C8.23685 33.7146 8.2435 33.7145 8.2502 33.7146L8.24494 34.0442L8.23024 34.0434ZM8.23024 34.0941V34.9645L8.24414 34.0941H8.23024ZM8.22228 36.2145H5.92595C5.34723 36.2145 4.79222 35.9846 4.38301 35.5754C3.97379 35.1661 3.7439 34.6111 3.7439 34.0324V26.726C3.7439 26.1473 3.97379 25.5923 4.38301 25.1831C4.79222 24.7739 5.34723 24.544 5.92595 24.544H8.24986C8.83302 24.5531 9.38865 24.7938 9.79449 25.2126C10.1975 25.6286 10.42 26.1867 10.414 26.7656V34.0941C10.414 34.1167 10.4134 34.1393 10.4121 34.1619C10.3491 35.3225 9.38315 36.2267 8.22228 36.2145Z" fill="#0EB14F"/>
<path fill-rule="evenodd" clip-rule="evenodd" d="M13.3084 23.3941L10.2282 28.4227C9.86764 29.0114 9.09808 29.1963 8.50939 28.8357C7.92069 28.4751 7.73578 27.7056 8.09637 27.1169L11.1788 22.0847C11.9975 20.7531 13.5998 20.1256 15.105 20.5471C16.6103 20.9685 17.6538 22.3368 17.662 23.9L17.662 23.9065L17.662 25.3243H18.9297C20.105 25.3249 21.2025 25.914 21.852 26.8935C22.4262 27.7574 22.5928 28.8298 22.3075 29.8273L21.087 34.099C20.7267 35.3547 19.5785 36.2216 18.2722 36.2228H12.3003C11.5223 36.2228 10.769 35.9513 10.1699 35.456L10.167 35.4536L8.36294 33.953C7.83219 33.5115 7.75982 32.7234 8.2013 32.1926C8.64277 31.6619 9.43091 31.5895 9.96166 32.031L11.7629 33.5292C11.9142 33.6539 12.1049 33.7228 12.3003 33.7228L18.27 33.7228C18.4617 33.7224 18.6306 33.5953 18.6835 33.4111L19.9037 29.1405C19.9876 28.8471 19.9388 28.5312 19.7697 28.2771L19.7685 28.2753C19.582 27.9938 19.2668 27.8245 18.9291 27.8243H16.412C15.7216 27.8243 15.162 27.2647 15.162 26.5743V23.9105C15.1585 23.4646 14.8605 23.0747 14.431 22.9545C14.0009 22.834 13.5426 23.0138 13.3084 23.3941Z" fill="#0EB14F"/>
</g>
</g>
</svg>
