<?xml version="1.0" standalone="no"?>
<!DOCTYPE svg PUBLIC "-//W3C//DTD SVG 20010904//EN"
 "http://www.w3.org/TR/2001/REC-SVG-20010904/DTD/svg10.dtd">
<svg version="1.0" xmlns="http://www.w3.org/2000/svg"
 width="592.000000pt" height="592.000000pt" viewBox="0 0 592.000000 592.000000"
 preserveAspectRatio="xMidYMid meet">
<metadata>
Created by potrace 1.14, written by Peter Selinger 2001-2017
</metadata>
<g transform="translate(0.000000,592.000000) scale(0.100000,-0.100000)"
fill="#000000" stroke="none">
<path d="M2852 5655 c-24 -20 -51 -69 -57 -105 -14 -77 -15 -80 -48 -81 -67
-1 -107 -13 -204 -60 -53 -27 -98 -41 -130 -43 -46 -3 -153 16 -177 31 -27 17
-92 -9 -103 -41 -4 -12 -7 -24 -8 -28 -1 -16 -16 -19 -47 -9 -82 27 -236 33
-376 14 -86 -11 -121 -2 -172 46 -30 29 -39 33 -77 28 -46 -5 -92 -42 -94 -75
-9 -109 -6 -180 11 -223 22 -59 67 -118 115 -150 19 -13 35 -26 35 -30 0 -3
-28 -4 -62 -3 -69 3 -171 -15 -239 -42 -37 -15 -120 -64 -164 -98 -7 -6 -23 3
-46 26 -108 108 -252 177 -382 182 -101 5 -143 -32 -138 -120 0 -12 22 -44 47
-70 59 -64 134 -160 134 -172 0 -6 4 -12 8 -14 12 -4 55 -101 103 -227 21 -57
39 -105 39 -107 0 -1 -8 -1 -18 1 -27 5 -77 -23 -92 -51 -7 -13 -13 -38 -13
-55 0 -31 -1 -31 -12 -8 -12 22 -21 72 -31 159 -7 65 -13 76 -51 96 -65 36
-141 0 -160 -76 -3 -14 -10 -30 -15 -36 -5 -7 -8 -16 -7 -20 1 -5 0 -12 -1
-16 -1 -5 -3 -14 -4 -20 0 -8 -18 -14 -41 -15 -22 -1 -64 -4 -93 -6 -45 -3
-56 -1 -76 20 -90 90 -217 3 -170 -116 9 -22 13 -74 13 -155 -1 -106 2 -129
21 -174 l23 -53 -30 -32 c-66 -70 -76 -103 -48 -157 18 -35 45 -51 88 -54 21
-1 43 -13 64 -34 35 -35 54 -38 144 -22 56 10 112 14 164 11 30 -1 30 -2 27
-50 -4 -53 16 -108 54 -149 29 -33 113 -71 143 -66 61 10 100 54 96 107 -7 93
93 -86 110 -198 13 -83 3 -215 -15 -215 -4 0 -13 7 -21 16 -22 27 -63 42 -106
38 -29 -2 -45 1 -50 11 -5 8 -31 26 -58 41 -64 34 -149 41 -223 18 -62 -20
-140 -91 -163 -150 -42 -107 29 -300 115 -316 14 -3 38 1 56 8 l31 13 -7 -102
c-4 -56 -7 -106 -7 -112 1 -32 13 -183 17 -200 17 -81 50 -210 68 -260 36
-103 54 -132 92 -145 36 -12 41 -20 50 -83 6 -37 5 -37 -16 -25 -38 20 -104 3
-127 -34 -25 -39 -38 -126 -36 -223 l3 -95 -30 0 c-16 0 -38 -5 -50 -11 -28
-15 -51 -74 -42 -113 20 -95 149 -257 299 -374 76 -59 184 -132 195 -132 5 0
10 -4 10 -9 0 -5 8 -11 18 -14 9 -3 42 -20 72 -38 75 -43 231 -121 310 -154
36 -15 83 -35 105 -45 82 -36 200 -67 246 -65 39 3 55 -3 114 -41 37 -24 84
-48 104 -54 20 -5 100 -10 178 -10 l142 0 26 55 c27 54 27 54 54 40 16 -8 50
-12 83 -11 86 4 149 62 143 134 -2 20 2 23 24 17 54 -13 110 -49 152 -97 106
-120 104 -118 143 -114 80 11 99 38 105 151 2 20 2 20 13 1 6 -11 11 -34 10
-52 -3 -67 82 -124 139 -93 29 15 38 24 69 69 44 62 123 120 183 134 25 6 27
4 27 -23 0 -46 17 -74 63 -103 34 -22 50 -26 96 -23 31 1 66 6 79 10 20 7 25
2 45 -44 l22 -51 154 1 c110 1 163 5 188 16 40 16 115 63 125 78 4 5 36 10 70
11 68 0 72 1 198 46 154 56 378 162 520 248 284 170 471 349 529 505 22 58 19
88 -12 123 -21 22 -83 46 -99 36 -4 -3 -5 12 -2 33 20 119 -5 265 -52 302 -28
22 -98 29 -109 11 -15 -25 -20 -6 -11 44 9 48 13 55 37 60 41 8 73 59 109 171
68 214 89 389 69 591 l-7 62 32 -13 c49 -20 94 -1 133 58 81 120 71 253 -24
339 -64 56 -107 73 -193 73 -81 0 -123 -14 -175 -60 -23 -20 -38 -25 -64 -21
-43 5 -75 -7 -105 -39 l-24 -26 -10 58 c-14 81 -8 161 19 240 35 107 87 177
90 123 1 -11 3 -24 4 -30 1 -5 3 -14 4 -19 3 -23 65 -54 102 -53 41 2 109 39
141 76 25 29 50 119 43 149 -4 15 -2 28 6 33 13 8 104 7 154 -1 104 -17 132
-17 158 0 14 9 29 25 32 36 4 12 14 18 28 15 32 -5 80 14 97 38 39 54 29 103
-34 170 -27 28 -34 41 -26 51 24 29 38 109 38 222 0 65 5 131 11 146 26 66 8
113 -55 145 -33 17 -82 3 -119 -35 -17 -17 -71 -21 -159 -11 -43 5 -45 8 -67
91 -8 26 -17 47 -21 47 -3 0 -10 9 -13 21 -13 39 -93 54 -138 24 -31 -20 -45
-54 -51 -125 -7 -80 -17 -130 -27 -130 -5 0 -9 11 -9 25 0 37 -48 85 -87 88
-18 1 -33 4 -33 7 1 6 33 95 48 133 7 16 12 32 12 36 0 4 18 45 40 90 45 92
97 167 171 244 74 78 76 144 5 188 -54 33 -202 7 -316 -55 -63 -34 -65 -36
-135 -98 -28 -27 -54 -48 -57 -48 -3 0 -18 11 -34 25 -82 72 -252 126 -383
121 l-64 -2 24 18 c69 54 126 122 135 161 1 4 2 8 4 10 11 13 17 172 7 207
-25 95 -105 119 -178 53 -46 -42 -99 -54 -164 -40 -78 17 -277 13 -355 -8 -66
-18 -65 -18 -75 17 -7 22 -21 38 -43 50 -31 15 -36 15 -90 -4 -36 -13 -83 -20
-129 -21 -64 0 -80 4 -144 38 -80 42 -155 65 -211 65 -32 0 -38 3 -39 23 -1
37 -8 67 -24 97 -9 17 -15 33 -14 37 2 16 -50 46 -88 50 -32 4 -46 -1 -71 -22z
m-339 -519 c17 2 50 6 72 9 38 5 41 4 65 -35 17 -27 38 -46 67 -57 27 -11 38
-21 33 -28 -25 -30 -15 -108 17 -128 13 -8 49 -82 63 -129 6 -18 4 -28 -3 -30
-26 -7 -321 8 -301 16 26 10 54 56 54 91 0 49 -87 199 -149 259 -17 17 -31 33
-31 37 0 3 18 3 40 -1 22 -4 55 -6 73 -4z m810 0 c20 -2 53 0 72 4 19 4 36 6
39 3 2 -2 -11 -21 -31 -40 -63 -66 -139 -193 -147 -248 -5 -35 16 -76 48 -96
31 -19 31 -19 6 -20 -59 -2 -314 2 -317 5 -6 6 48 119 74 153 27 35 38 95 22
125 -7 13 -4 18 13 24 35 11 79 46 95 77 13 26 18 28 51 22 20 -3 54 -7 75 -9z
m-1353 -124 c-14 -9 -41 -33 -60 -54 -24 -24 -40 -34 -49 -29 -21 14 8 48 63
76 56 28 84 32 46 7z m1960 -17 c19 -12 41 -30 49 -39 11 -13 11 -17 -3 -22
-11 -4 -34 9 -69 42 -28 26 -54 50 -57 52 -14 12 50 -14 80 -33z m-1609 -150
c23 -15 57 -42 76 -61 18 -19 41 -35 51 -36 9 -1 -45 -4 -121 -7 l-137 -6 -76
-80 c-42 -44 -133 -140 -202 -214 -397 -418 -382 -401 -382 -433 0 -17 13 -52
28 -77 61 -100 97 -195 119 -311 10 -48 9 -314 0 -375 -4 -27 -10 -66 -12 -85
-3 -19 -19 -98 -35 -175 -93 -433 -104 -511 -104 -720 0 -71 3 -155 7 -185 8
-64 45 -210 57 -225 5 -5 9 -14 11 -20 7 -28 31 -75 62 -118 41 -57 125 -147
138 -147 22 0 6 -18 -22 -24 -16 -3 -38 -13 -47 -23 -16 -16 -17 -15 -20 3
-11 64 -27 97 -61 131 -24 23 -41 50 -44 70 -7 43 -33 85 -68 109 -16 11 -31
32 -35 49 -22 103 -127 188 -252 202 -38 5 -45 2 -77 -30 -39 -39 -42 -55 -21
-114 14 -39 13 -41 -31 -122 -24 -44 -47 -81 -49 -81 -3 0 -3 12 0 28 8 37 9
112 2 141 -3 13 -15 42 -27 65 l-21 41 35 30 c35 30 78 53 218 119 129 60 213
164 211 262 -1 24 4 61 11 81 7 21 13 43 12 48 -8 72 -48 121 -114 141 -39 11
-56 11 -150 0 -41 -5 -42 -4 -24 12 89 81 201 263 250 407 73 214 83 401 35
620 -9 42 -76 246 -91 280 -47 102 -84 261 -85 365 -1 97 4 133 23 168 6 11 7
22 4 26 -3 3 -1 6 5 6 6 0 13 9 17 19 11 36 85 99 134 116 27 9 57 24 67 33
17 16 22 17 47 4 16 -8 30 -19 32 -26 28 -105 70 -161 147 -196 106 -48 207 3
188 95 -19 93 53 217 144 247 43 14 133 0 177 -27z m1405 12 c71 -37 105 -103
109 -210 2 -77 4 -82 34 -109 28 -25 40 -29 79 -27 103 6 198 91 218 195 4 23
15 35 40 47 19 9 34 12 34 7 0 -12 41 -39 68 -45 87 -16 172 -125 191 -244 8
-54 7 -103 -4 -181 -4 -30 -7 -56 -7 -57 1 -2 -30 -94 -69 -205 -73 -210 -102
-311 -115 -388 -10 -65 -12 -236 -3 -284 4 -22 9 -54 12 -71 22 -140 88 -297
182 -435 32 -47 63 -89 69 -95 6 -5 22 -23 36 -38 l25 -29 -40 8 c-107 20
-180 4 -227 -48 -15 -17 -28 -36 -29 -42 0 -6 -2 -22 -5 -35 -2 -14 1 -41 8
-60 6 -20 13 -61 13 -91 3 -99 70 -184 196 -250 43 -22 80 -40 81 -38 6 5 125
-64 156 -90 l33 -29 -23 -38 c-12 -22 -24 -46 -26 -55 -7 -33 -8 -126 -1 -152
13 -50 -5 -30 -49 52 -39 73 -43 84 -33 112 6 17 11 48 11 69 0 31 -6 42 -33
63 -39 30 -64 32 -134 11 -90 -27 -170 -104 -189 -182 -4 -15 -24 -44 -45 -63
-36 -33 -75 -111 -62 -124 3 -3 -6 -15 -21 -27 -37 -29 -74 -89 -79 -130 -3
-19 -6 -36 -6 -39 -1 -3 -5 0 -9 5 -10 15 -49 35 -67 35 -8 0 -15 2 -15 5 0 2
27 31 60 63 122 121 199 300 217 507 11 120 5 315 -13 410 -3 17 -7 41 -9 55
-7 55 -16 106 -21 120 -3 8 -8 29 -10 45 -5 41 -10 63 -24 115 -7 25 -14 54
-15 65 -2 11 -6 31 -9 45 -3 14 -10 50 -16 80 -6 30 -12 66 -15 80 -26 129
-36 347 -22 445 19 120 55 226 109 319 65 110 63 117 -57 241 -22 23 -101 106
-175 185 -74 79 -148 157 -165 175 -16 17 -66 69 -110 116 -112 118 -114 119
-215 118 -47 0 -103 0 -125 0 l-40 1 30 20 c17 11 53 38 80 60 28 22 64 45 80
50 40 12 125 6 161 -13z m984 -332 c0 -7 20 -23 45 -35 45 -22 45 -22 84 -3
l39 20 -20 -51 c-11 -28 -21 -55 -22 -61 -1 -5 -4 -14 -7 -20 -4 -5 -14 -34
-24 -64 -9 -29 -24 -65 -31 -80 -8 -14 -14 -29 -14 -34 0 -9 -26 -67 -102
-226 -61 -126 -118 -266 -118 -288 0 -6 -5 -15 -11 -18 -16 -11 -9 15 54 200
94 273 117 365 123 490 3 61 1 129 -4 152 -5 24 -6 40 -1 37 5 -3 9 -11 9 -19z
m-3577 -22 c-21 -62 5 -324 38 -385 5 -10 7 -18 5 -18 -3 0 8 -37 25 -82 47
-126 108 -308 104 -308 -1 0 3 -21 11 -47 24 -78 3 -39 -31 59 -18 51 -62 154
-97 228 -36 74 -74 153 -83 175 -31 71 -143 370 -140 373 1 2 18 -3 36 -11 43
-17 91 -6 116 27 22 30 28 26 16 -11z m-693 -488 c14 -15 40 -28 62 -32 33 -5
41 -11 54 -41 8 -20 18 -39 22 -42 4 -3 13 -15 20 -28 11 -19 2 -16 -49 18
-34 24 -87 67 -118 96 -44 43 -51 54 -35 54 11 0 31 -11 44 -25z m5010 20 c0
-14 -86 -89 -168 -148 l-54 -38 36 63 c19 34 39 64 43 64 4 1 20 5 35 8 15 3
39 17 54 31 24 23 54 33 54 20z m-5000 -354 c0 -10 -71 -4 -82 7 -6 6 -6 17 2
31 l11 21 34 -26 c19 -15 35 -29 35 -33z m5020 25 c0 -18 -6 -25 -27 -28 -59
-8 -66 1 -27 33 40 31 54 30 54 -5z m-947 -71 c-3 -9 -8 -14 -10 -11 -3 3 -2
9 2 15 9 16 15 13 8 -4z m-3389 -122 c4 -16 9 -37 12 -48 3 -11 -4 -5 -15 13
-22 34 -27 62 -12 62 5 0 12 -12 15 -27z m3577 -29 c-20 -37 -21 -37 -15 -9 3
17 7 37 9 45 2 8 4 17 4 20 1 2 6 -1 12 -7 8 -8 5 -22 -10 -49z m-3783 -876
c15 0 40 5 56 11 45 18 40 7 -12 -26 -55 -37 -124 -102 -164 -157 -15 -21 -28
-32 -28 -24 0 18 37 135 55 178 2 3 6 15 10 28 7 22 9 22 32 7 13 -9 36 -17
51 -17z m4097 -89 c34 -105 36 -134 6 -89 -31 48 -84 101 -147 147 -62 45 -79
67 -34 43 32 -17 89 -15 108 4 9 9 20 12 25 7 4 -4 23 -55 42 -112z m-3765
-127 c0 -9 -61 -45 -105 -62 -41 -15 -26 -3 43 36 65 38 62 37 62 26z m3381
-28 c6 -8 17 -14 24 -14 7 0 18 -7 25 -16 12 -13 10 -14 -16 -2 -35 15 -104
57 -104 63 0 8 59 -17 71 -31z m-2621 -941 c30 -17 132 -70 225 -118 308 -158
405 -223 543 -363 100 -100 105 -104 139 -99 25 4 46 19 76 53 78 88 93 102
222 202 8 6 116 72 185 113 8 4 74 38 145 75 178 91 293 153 337 181 21 12 39
23 40 23 2 0 4 -15 4 -32 1 -18 3 -51 4 -74 4 -72 -44 -136 -135 -179 -50 -23
-144 -53 -190 -60 -11 -1 -40 -8 -65 -15 -25 -7 -49 -13 -55 -15 -216 -49
-420 -219 -515 -428 -31 -69 -61 -173 -52 -181 3 -3 0 -6 -6 -6 -7 0 -12 6
-13 13 -2 40 -14 80 -40 144 -72 171 -198 311 -355 393 -57 30 -208 81 -249
85 -11 1 -40 7 -65 14 -25 7 -52 14 -60 16 -84 17 -183 74 -217 127 -27 40
-29 55 -23 156 l2 42 32 -18 c17 -11 56 -33 86 -49z m-473 -31 c12 -7 37 -12
57 -12 31 0 34 -3 30 -22 -11 -52 -16 -95 -15 -121 1 -21 -5 -30 -26 -39 -56
-22 -138 -62 -151 -72 -38 -32 -79 -75 -95 -99 -18 -28 -19 -28 -38 -11 -25
22 -24 31 4 38 28 7 62 62 59 97 -1 15 -9 43 -17 63 -57 135 64 246 192 178z
m2896 -4 c54 -38 66 -99 35 -185 -11 -32 -16 -64 -12 -81 7 -28 45 -72 64 -72
14 0 13 -13 -5 -36 -15 -19 -15 -19 -27 1 -20 35 -115 121 -155 142 -21 11
-58 26 -83 33 -44 13 -45 14 -44 54 1 23 -4 62 -11 88 l-12 47 31 0 c17 0 54
8 81 19 56 23 95 20 138 -10z m-2559 -337 c4 -5 -3 -7 -14 -4 -23 6 -26 13 -6
13 8 0 17 -4 20 -9z m2096 5 c0 -3 -4 -8 -10 -11 -5 -3 -10 -1 -10 4 0 6 5 11
10 11 6 0 10 -2 10 -4z m-2305 -181 c73 -13 116 -26 111 -34 -3 -4 -15 -7 -28
-6 -66 6 -121 -77 -93 -141 7 -16 23 -39 35 -52 l22 -23 -26 -40 c-15 -21 -29
-39 -32 -39 -8 0 -65 32 -81 45 -7 6 -37 28 -67 50 l-54 40 35 30 c44 39 50
103 12 143 -15 16 -17 23 -7 27 36 12 107 12 173 0z m2625 2 c0 -5 4 -6 9 -3
5 4 17 3 27 -1 14 -5 15 -8 2 -17 -20 -15 -38 -50 -38 -77 0 -31 36 -86 63
-93 22 -6 22 -7 2 -18 -11 -6 -25 -17 -31 -23 -6 -5 -37 -28 -70 -50 -32 -22
-61 -43 -64 -47 -12 -16 -48 6 -64 38 -16 34 -16 36 11 71 58 75 23 175 -61
177 -20 1 -36 6 -36 12 0 11 50 22 140 31 24 2 45 5 46 6 6 6 64 1 64 -6z"/>
</g>
</svg>
