<svg width="25" height="24" viewBox="0 0 25 24" fill="none" xmlns="http://www.w3.org/2000/svg">
<path d="M7.63415 13.383C7.90893 13.2995 8.19454 13.3815 8.38401 13.5717C8.30053 13.4873 8.19574 13.4215 8.07452 13.3837L4.63723 12.3113L19.5443 6.58114L18.9877 5.16873L3.47225 11.1529C2.35016 11.5854 2.40822 13.1864 3.55077 13.5436L7.24963 14.6976L7.1345 14.3186C7.01412 13.9223 7.23781 13.5034 7.63415 13.383Z" fill="currentColor"/>
<path d="M12.8551 16.3131C12.8822 16.3342 12.9081 16.3574 12.9327 16.3826C13.2215 16.6795 13.215 17.1544 12.9181 17.4432L12.4616 17.8873L15.7855 20.3429C16.754 21.0586 18.1365 20.5319 18.3868 19.3553L21.0277 6.90862L19.2515 8.53031L16.9196 19.0436C16.8959 19.155 16.7664 19.2026 16.6769 19.1365L12.8551 16.3131Z" fill="currentColor"/>
<path d="M7.63415 13.383C7.23781 13.5034 7.01412 13.9223 7.1345 14.3186L7.24963 14.6976L7.62777 14.8156C8.02318 14.939 8.44374 14.7184 8.56711 14.323C8.65265 14.0488 8.57284 13.7625 8.38401 13.5717C8.19454 13.3815 7.90893 13.2995 7.63415 13.383Z" fill="currentColor"/>
<path d="M9.90579 18.2811L8.56975 13.8827C8.53283 13.7611 8.46783 13.6558 8.38401 13.5717C8.57284 13.7625 8.65265 14.0488 8.56711 14.323C8.44374 14.7184 8.02318 14.939 7.62777 14.8156L7.24963 14.6976L8.5105 18.8486C8.81901 19.865 10.093 20.1911 10.8531 19.4522L12.4616 17.8873L11.2389 16.9841L9.90579 18.2811Z" fill="currentColor"/>
<path d="M12.9181 17.4432C13.215 17.1544 13.2215 16.6795 12.9327 16.3826C12.9081 16.3574 12.8822 16.3342 12.8551 16.3131L12.8249 16.2908C12.5357 16.0882 12.1345 16.1128 11.8721 16.3681L11.2389 16.9841L12.4616 17.8873L12.9181 17.4432Z" fill="currentColor"/>
<path d="M19.5443 6.58114C19.5443 6.58114 10.9486 13.3054 10.2845 13.905L19.5443 6.58114Z" fill="currentColor"/>
<path d="M10.2845 13.905C9.53344 14.5827 9.59913 15.7734 10.4081 16.3703L11.2389 16.9841L11.8721 16.3681C12.1345 16.1128 12.5357 16.0882 12.8249 16.2908L11.2988 15.1634C11.2485 15.1263 11.2471 15.0568 11.2894 15.0186C11.3318 14.9804 18.4382 9.26419 19.2515 8.53031L21.0277 6.90862C21.2796 5.72293 20.1156 4.73444 18.9877 5.16873L19.5443 6.58114L10.2845 13.905Z" fill="currentColor"/>
</svg>
