<svg width="24" height="24" viewBox="0 0 24 24" fill="none" xmlns="http://www.w3.org/2000/svg">
<path fill-rule="evenodd" clip-rule="evenodd" d="M5.54133 6.27781C5.68374 6.10208 5.89784 6 6.12403 6H18.75C19.8893 6 20.7239 7.06984 20.4476 8.1749L19.0996 13.5669C18.8179 14.6925 17.8609 15.5207 16.7057 15.6363L9.8897 16.3183C8.49376 16.457 7.2157 15.5242 6.92531 14.1514L5.39031 6.90543C5.34344 6.68415 5.39893 6.45354 5.54133 6.27781ZM7.04955 7.5L8.39275 13.8406C8.52445 14.4635 9.10459 14.8887 9.74036 14.8257L16.5564 14.1437C17.0811 14.0913 17.5161 13.7154 17.6444 13.2031L18.9924 7.8111C19.0322 7.65216 18.9128 7.5 18.75 7.5H7.04955Z" fill="currentColor"/>
<path fill-rule="evenodd" clip-rule="evenodd" d="M3 3.75C3 3.33579 3.33579 3 3.75 3H5.474C5.82701 3 6.13224 3.24618 6.20699 3.59118L6.85699 6.59118C6.9447 6.99601 6.68764 7.39528 6.28282 7.48299C5.87799 7.5707 5.47872 7.31364 5.39101 6.90882L4.8691 4.5H3.75C3.33579 4.5 3 4.16421 3 3.75Z" fill="currentColor"/>
<path fill-rule="evenodd" clip-rule="evenodd" d="M7.83301 19.383C7.83089 18.763 8.3347 18.267 8.94703 18.267C9.56424 18.267 10.064 18.7668 10.064 19.384C10.064 20.0002 9.56424 20.5 8.94803 20.5C8.33702 20.5 7.83092 20.0053 7.83301 19.383Z" fill="currentColor"/>
<path fill-rule="evenodd" clip-rule="evenodd" d="M15.25 19.383C15.2479 18.763 15.7517 18.267 16.364 18.267C16.9812 18.267 17.481 18.7668 17.481 19.384C17.481 20.0002 16.9812 20.5 16.365 20.5C15.754 20.5 15.2479 20.0053 15.25 19.383Z" fill="currentColor"/>
</svg>
