<svg width="24" height="24" viewBox="0 0 24 24" fill="none" xmlns="http://www.w3.org/2000/svg">
<path d="M7.64058 1.34047C6.91401 1.52797 6.21089 2.10453 5.89214 2.76547C5.77026 3.01391 5.41401 4.20922 4.65464 6.89047C3.68433 10.3311 3.59058 10.6967 3.59058 11.0155C3.59526 11.6952 3.96089 12.267 4.58433 12.5717C4.88433 12.7217 4.92183 12.7264 5.56401 12.7452L6.23433 12.7592V13.4014C6.23433 13.753 6.25776 14.1139 6.2812 14.2123C6.34683 14.442 6.63745 14.6998 6.88589 14.742C7.13433 14.7842 7.47651 14.6248 7.62651 14.3952C7.72495 14.2452 7.73433 14.1842 7.73433 13.4952V12.7498H8.74214H9.74995V15.4873V18.2248L8.63901 18.2483C7.43433 18.2717 7.27495 18.2998 6.74526 18.5623C6.13589 18.8717 5.59214 19.5045 5.38589 20.1467C5.24526 20.5873 5.20776 21.5483 5.31558 21.8764C5.4187 22.1905 5.6812 22.4858 5.97183 22.6217L6.21089 22.7342H12H17.789L18.0281 22.6217C18.3093 22.4905 18.5765 22.1952 18.675 21.8998C18.7687 21.628 18.7734 20.8545 18.6796 20.428C18.4828 19.4858 17.7843 18.7077 16.8515 18.3936C16.4953 18.2717 16.425 18.2623 15.3656 18.2436L14.25 18.2248V15.4873V12.7545L16.6781 12.7405L19.1015 12.7264L19.3968 12.5905C20.0109 12.3045 20.4046 11.6998 20.4093 11.0155C20.4093 10.6967 20.3156 10.3311 19.3453 6.89047C18.5859 4.20922 18.2296 3.01391 18.1078 2.76547C17.7796 2.08578 17.0859 1.52797 16.3359 1.33578C15.9328 1.23266 8.03433 1.23734 7.64058 1.34047ZM16.1953 2.87797C16.4484 2.99516 16.7109 3.25766 16.8046 3.48734C16.8375 3.56703 17.3343 5.29672 17.9062 7.32641C18.9 10.8561 18.9421 11.0248 18.8671 11.1373L18.7968 11.2498H12H5.20308L5.12808 11.1373C5.05776 11.0248 5.09995 10.8608 6.11714 7.25609C6.69839 5.18891 7.2187 3.42641 7.27026 3.34203C7.39214 3.14984 7.61245 2.96234 7.85151 2.85453C8.02964 2.77016 8.2687 2.76547 12 2.76547H15.9609L16.1953 2.87797ZM12.75 15.492V18.2342H12H11.25V15.492V12.7498H12H12.75V15.492ZM16.5 19.8561C16.9312 20.053 17.1984 20.4467 17.2406 20.9389L17.264 21.2342H12H6.73589L6.75933 20.9389C6.8062 20.3577 7.18589 19.903 7.72026 19.7905C7.8187 19.767 9.78745 19.753 12.0937 19.7577C16.2281 19.7623 16.2937 19.7623 16.5 19.8561Z" fill="currentColor"/>
</svg>
