<svg width="20" height="20" viewBox="0 0 20 20" fill="none" xmlns="http://www.w3.org/2000/svg">
<path fill-rule="evenodd" clip-rule="evenodd" d="M13.6311 4.46816C14.8022 4.03412 15.9426 5.17455 15.5085 6.34558L12.1235 15.4781C11.624 16.8239 9.6858 16.7176 9.33632 15.3256L8.39966 11.585L4.64606 10.642C3.25451 10.2923 3.14881 8.35518 4.49417 7.85577L13.6311 4.46816ZM10.9516 15.0434L14.3365 5.91115C14.3991 5.74221 14.2346 5.57765 14.0656 5.64022C14.0656 5.64023 14.0656 5.64021 14.0656 5.64022L4.92918 9.02763C4.92914 9.02765 4.92921 9.02762 4.92918 9.02763C4.73466 9.09994 4.75059 9.37938 4.95062 9.4297C4.9506 9.4297 4.95064 9.42971 4.95062 9.4297L9.06728 10.4639C9.29082 10.52 9.4653 10.6946 9.52129 10.9182L10.5487 15.0212C10.5992 15.2224 10.8795 15.2375 10.9516 15.0434Z" fill="currentColor"/>
<path fill-rule="evenodd" clip-rule="evenodd" d="M13.6311 4.46816C14.8022 4.03412 15.9426 5.17455 15.5085 6.34558L12.1235 15.4781C11.624 16.8239 9.6858 16.7176 9.33632 15.3256L8.39966 11.585L4.64606 10.642C3.25451 10.2923 3.14881 8.35518 4.49417 7.85577L13.6311 4.46816ZM10.9516 15.0434L14.3365 5.91115C14.3991 5.74221 14.2346 5.57765 14.0656 5.64022C14.0656 5.64023 14.0656 5.64021 14.0656 5.64022L4.92918 9.02763C4.92914 9.02765 4.92921 9.02762 4.92918 9.02763C4.73466 9.09994 4.75059 9.37938 4.95062 9.4297C4.9506 9.4297 4.95064 9.42971 4.95062 9.4297L9.06728 10.4639C9.29082 10.52 9.4653 10.6946 9.52129 10.9182L10.5487 15.0212C10.5992 15.2224 10.8795 15.2375 10.9516 15.0434Z" fill="currentColor"/>
</svg>
