<svg width="25" height="24" viewBox="0 0 25 24" fill="none" xmlns="http://www.w3.org/2000/svg">
<path fill-rule="evenodd" clip-rule="evenodd" d="M7.25965 9.35545C7.47704 9.00286 7.93909 8.89326 8.29167 9.11064L11.2184 10.915C11.9428 11.3617 12.8571 11.3617 13.5815 10.915L16.5082 9.11064C16.8608 8.89326 17.3229 9.00286 17.5402 9.35545C17.7576 9.70804 17.648 10.1701 17.2954 10.3875L14.3687 12.1919C13.1617 12.936 11.6382 12.936 10.4312 12.1919L7.50447 10.3875C7.15188 10.1701 7.04227 9.70804 7.25965 9.35545Z" fill="currentColor"/>
<path fill-rule="evenodd" clip-rule="evenodd" d="M2.64636 7.99707C2.64636 5.926 4.32529 4.24707 6.39636 4.24707H18.4039C20.4749 4.24707 22.1539 5.926 22.1539 7.99707V16.0029C22.1539 18.074 20.4749 19.7529 18.4039 19.7529H6.39636C4.32529 19.7529 2.64636 18.074 2.64636 16.0029V7.99707ZM6.39636 5.74707C5.15372 5.74707 4.14636 6.75443 4.14636 7.99707V16.0029C4.14636 17.2455 5.15372 18.2529 6.39636 18.2529H18.4039C19.6465 18.2529 20.6539 17.2455 20.6539 16.0029V7.99707C20.6539 6.75443 19.6465 5.74707 18.4039 5.74707H6.39636Z" fill="currentColor"/>
</svg>
