<svg width="20" height="20" viewBox="0 0 20 20" fill="none" xmlns="http://www.w3.org/2000/svg">
<g id="Symbol / ?">
<g id="Union">
<path fill-rule="evenodd" clip-rule="evenodd" d="M10 2.29175C5.74283 2.29175 2.29169 5.74289 2.29169 10.0001C2.29169 14.2573 5.74283 17.7084 10 17.7084C14.2572 17.7084 17.7084 14.2573 17.7084 10.0001C17.7084 5.74289 14.2572 2.29175 10 2.29175ZM1.04169 10.0001C1.04169 5.05253 5.05247 1.04175 10 1.04175C14.9476 1.04175 18.9584 5.05253 18.9584 10.0001C18.9584 14.9476 14.9476 18.9584 10 18.9584C5.05247 18.9584 1.04169 14.9476 1.04169 10.0001Z" fill="#1E312F"/>
<path fill-rule="evenodd" clip-rule="evenodd" d="M10.2502 6.48175C9.81375 6.40689 9.36491 6.4889 8.98316 6.71326C8.60141 6.93762 8.31138 7.28984 8.16444 7.70755C8.0499 8.03317 7.69307 8.20428 7.36746 8.08974C7.04184 7.97519 6.87073 7.61837 6.98527 7.29275C7.23017 6.59657 7.71356 6.00953 8.34981 5.63559C8.98606 5.26166 9.73412 5.12498 10.4615 5.24974C11.1889 5.3745 11.8486 5.75267 12.3239 6.31726C12.7991 6.8817 13.0592 7.59606 13.0582 8.33387C13.058 9.49878 12.1926 10.2867 11.5299 10.7285C11.1795 10.9621 10.8335 11.1346 10.5777 11.2484C10.4488 11.3056 10.3406 11.349 10.2631 11.3785C10.2243 11.3933 10.1931 11.4046 10.1706 11.4126L10.1437 11.422L10.1355 11.4249L10.1327 11.4258L10.1316 11.4261C10.1316 11.4261 10.1308 11.4264 9.93319 10.8335L10.1308 11.4264C9.80337 11.5356 9.44942 11.3586 9.34026 11.0311C9.23121 10.704 9.40774 10.3504 9.73459 10.2409L9.73701 10.24L9.75189 10.2348C9.76608 10.2298 9.78855 10.2216 9.81812 10.2104C9.87735 10.1878 9.96443 10.153 10.07 10.1061C10.2828 10.0115 10.5619 9.87152 10.8365 9.68845C11.4238 9.29695 11.8082 8.83503 11.8082 8.33348L11.8082 8.33255C11.8089 7.88975 11.6528 7.46101 11.3676 7.12226C11.0825 6.78351 10.6866 6.55661 10.2502 6.48175Z" fill="#1E312F"/>
<path fill-rule="evenodd" clip-rule="evenodd" d="M9.37502 14.1667C9.37502 13.8216 9.65484 13.5417 10 13.5417H10.0084C10.3535 13.5417 10.6334 13.8216 10.6334 14.1667C10.6334 14.5119 10.3535 14.7917 10.0084 14.7917H10C9.65484 14.7917 9.37502 14.5119 9.37502 14.1667Z" fill="#1E312F"/>
</g>
</g>
</svg>
