<svg width="24" height="24" viewBox="0 0 24 24" fill="none" xmlns="http://www.w3.org/2000/svg">
<path fill-rule="evenodd" clip-rule="evenodd" d="M4.932 5.75C4.27921 5.75 3.75 6.27921 3.75 6.932V17.068C3.75 17.7208 4.27921 18.25 4.932 18.25H19.068C19.7208 18.25 20.25 17.7208 20.25 17.068V6.932C20.25 6.27921 19.7208 5.75 19.068 5.75H4.932ZM2.25 6.932C2.25 5.45079 3.45079 4.25 4.932 4.25H19.068C20.5492 4.25 21.75 5.45079 21.75 6.932V17.068C21.75 18.5492 20.5492 19.75 19.068 19.75H4.932C3.45079 19.75 2.25 18.5492 2.25 17.068V6.932Z" fill="currentColor"/>
<path fill-rule="evenodd" clip-rule="evenodd" d="M15 4.25C15.4142 4.25 15.75 4.58579 15.75 5V19C15.75 19.4142 15.4142 19.75 15 19.75C14.5858 19.75 14.25 19.4142 14.25 19V5C14.25 4.58579 14.5858 4.25 15 4.25Z" fill="currentColor"/>
<path fill-rule="evenodd" clip-rule="evenodd" d="M9 4.25C9.41421 4.25 9.75 4.58579 9.75 5V19C9.75 19.4142 9.41421 19.75 9 19.75C8.58579 19.75 8.25 19.4142 8.25 19V5C8.25 4.58579 8.58579 4.25 9 4.25Z" fill="currentColor"/>
<path fill-rule="evenodd" clip-rule="evenodd" d="M5 18.25C5.41421 18.25 5.75 18.5858 5.75 19V21C5.75 21.4142 5.41421 21.75 5 21.75C4.58579 21.75 4.25 21.4142 4.25 21V19C4.25 18.5858 4.58579 18.25 5 18.25Z" fill="currentColor"/>
<path fill-rule="evenodd" clip-rule="evenodd" d="M19 18.25C19.4142 18.25 19.75 18.5858 19.75 19V21C19.75 21.4142 19.4142 21.75 19 21.75C18.5858 21.75 18.25 21.4142 18.25 21V19C18.25 18.5858 18.5858 18.25 19 18.25Z" fill="currentColor"/>
</svg>
