<svg width="513" height="512" viewBox="0 0 513 512" xmlns="http://www.w3.org/2000/svg">
<path fill-rule="evenodd" clip-rule="evenodd" d="M151.294 216.923C125.95 216.796 105.282 237.197 105.076 262.537C105.019 274.789 109.837 286.561 118.468 295.258C127.1 303.955 138.836 308.862 151.089 308.897C176.428 308.883 196.985 288.37 197.049 263.026C197.112 237.674 176.646 217.053 151.294 216.923ZM65.6832 262.261C66.042 215.193 104.425 177.293 151.493 177.53C198.562 177.769 236.56 216.055 236.442 263.125C236.324 310.193 198.134 348.291 151.064 348.291L151.017 348.29C128.289 348.236 106.518 339.139 90.5076 323.008C74.4976 306.876 65.5661 285.036 65.6829 262.31L65.6832 262.261Z" fill="currentColor"/>
<path fill-rule="evenodd" clip-rule="evenodd" d="M308.747 177.031C298.142 177.005 288.558 183.361 284.458 193.147C280.349 202.957 282.561 214.277 290.062 221.818C297.562 229.359 308.87 231.632 318.702 227.575C328.511 223.528 334.919 213.977 334.949 203.371L334.948 203.447L327.261 203.388L334.949 203.371M308.747 177.031C315.718 177.034 322.403 179.814 327.321 184.759C332.238 189.702 334.982 196.4 334.949 203.371" fill="currentColor"/>
<path fill-rule="evenodd" clip-rule="evenodd" d="M390.486 177.031C379.881 177.005 370.298 183.361 366.198 193.147C362.088 202.957 364.3 214.277 371.801 221.818C379.301 229.359 390.61 231.632 400.442 227.575C410.251 223.528 416.658 213.977 416.688 203.371M390.486 177.031C397.458 177.034 404.142 179.814 409.06 184.759C413.977 189.702 416.721 196.4 416.688 203.371" fill="currentColor"/>
<path fill-rule="evenodd" clip-rule="evenodd" d="M85.3227 374.081L85.3803 374.081L216.805 374.081C263.87 374.219 301.99 412.339 302.128 459.404L302.128 459.461L302.128 475.882L302.128 475.94C302.069 495.831 285.959 511.942 266.068 512L266.01 512H36.1177L36.06 512C16.1688 511.942 0.0583865 495.831 8.45297e-05 475.94L0 475.882V459.404C0.137765 412.339 38.2575 374.219 85.3227 374.081ZM85.4116 413.475C60.0338 413.563 39.4821 434.115 39.3937 459.493V472.606H262.734V459.495C262.647 434.116 242.095 413.563 216.716 413.475H85.4116Z" fill="currentColor"/>
<path fill-rule="evenodd" clip-rule="evenodd" d="M358.991 47.2387C290.493 25.2778 215.679 50.5164 174.483 109.483C168.252 118.401 155.973 120.579 147.055 114.349C138.138 108.119 135.959 95.8391 142.189 86.9216C193.282 13.7908 286.066 -17.5102 371.018 9.72585C455.969 36.9619 513.257 116.377 512.303 205.583C511.349 294.788 452.376 372.961 366.862 398.374C356.434 401.473 345.469 395.532 342.37 385.104C339.271 374.677 345.212 363.711 355.64 360.612C424.592 340.121 472.143 277.09 472.912 205.162C473.681 133.234 427.489 69.1996 358.991 47.2387Z" fill="currentColor"/>
<path fill-rule="evenodd" clip-rule="evenodd" d="M151.294 216.923C125.95 216.796 105.282 237.197 105.076 262.537C105.019 274.789 109.837 286.561 118.468 295.258C127.1 303.955 138.836 308.862 151.089 308.897C176.428 308.883 196.985 288.37 197.049 263.026C197.112 237.674 176.646 217.053 151.294 216.923ZM65.6832 262.261C66.042 215.193 104.425 177.293 151.493 177.53C198.562 177.769 236.56 216.055 236.442 263.125C236.324 310.193 198.134 348.291 151.064 348.291L151.017 348.29C128.289 348.236 106.518 339.139 90.5076 323.008C74.4976 306.876 65.5661 285.036 65.6829 262.31L65.6832 262.261Z" fill="currentColor"/>
<path fill-rule="evenodd" clip-rule="evenodd" d="M308.747 177.031C298.142 177.005 288.558 183.361 284.458 193.147C280.349 202.957 282.561 214.277 290.062 221.818C297.562 229.359 308.87 231.632 318.702 227.575C328.511 223.528 334.919 213.977 334.949 203.371L334.948 203.447L327.261 203.388L334.949 203.371M308.747 177.031C315.718 177.034 322.403 179.814 327.321 184.759C332.238 189.702 334.982 196.4 334.949 203.371" fill="currentColor"/>
<path fill-rule="evenodd" clip-rule="evenodd" d="M390.486 177.031C379.881 177.005 370.298 183.361 366.198 193.147C362.088 202.957 364.3 214.277 371.801 221.818C379.301 229.359 390.61 231.632 400.442 227.575C410.251 223.528 416.658 213.977 416.688 203.371M390.486 177.031C397.458 177.034 404.142 179.814 409.06 184.759C413.977 189.702 416.721 196.4 416.688 203.371" fill="currentColor"/>
<path fill-rule="evenodd" clip-rule="evenodd" d="M85.3227 374.081L85.3803 374.081L216.805 374.081C263.87 374.219 301.99 412.339 302.128 459.404L302.128 459.461L302.128 475.882L302.128 475.94C302.069 495.831 285.959 511.942 266.068 512L266.01 512H36.1177L36.06 512C16.1688 511.942 0.0583865 495.831 8.45297e-05 475.94L0 475.882V459.404C0.137765 412.339 38.2575 374.219 85.3227 374.081ZM85.4116 413.475C60.0338 413.563 39.4821 434.115 39.3937 459.493V472.606H262.734V459.495C262.647 434.116 242.095 413.563 216.716 413.475H85.4116Z" fill="currentColor"/>
<path fill-rule="evenodd" clip-rule="evenodd" d="M358.991 47.2387C290.493 25.2778 215.679 50.5164 174.483 109.483C168.252 118.401 155.973 120.579 147.055 114.349C138.138 108.119 135.959 95.8391 142.189 86.9216C193.282 13.7908 286.066 -17.5102 371.018 9.72585C455.969 36.9619 513.257 116.377 512.303 205.583C511.349 294.788 452.376 372.961 366.862 398.374C356.434 401.473 345.469 395.532 342.37 385.104C339.271 374.677 345.212 363.711 355.64 360.612C424.592 340.121 472.143 277.09 472.912 205.162C473.681 133.234 427.489 69.1996 358.991 47.2387Z" fill="currentColor"/>
</svg>
