<svg width="16" height="16" viewBox="0 0 16 16" fill="none" xmlns="http://www.w3.org/2000/svg">
<path fill-rule="evenodd" clip-rule="evenodd" d="M2.97964 2.97945C3.1749 2.78419 3.49148 2.78419 3.68674 2.97945L13.0201 12.3128C13.2153 12.508 13.2153 12.8246 13.0201 13.0199C12.8248 13.2152 12.5082 13.2152 12.313 13.0199L2.97964 3.68656C2.78438 3.4913 2.78438 3.17472 2.97964 2.97945Z" fill="currentColor"/>
<path fill-rule="evenodd" clip-rule="evenodd" d="M13.0201 2.97945C13.2153 3.17472 13.2153 3.4913 13.0201 3.68656L3.68674 13.0199C3.49148 13.2152 3.1749 13.2152 2.97964 13.0199C2.78438 12.8246 2.78438 12.508 2.97964 12.3128L12.313 2.97945C12.5082 2.78419 12.8248 2.78419 13.0201 2.97945Z" fill="currentColor"/>
</svg>
