<svg width="24" height="24" viewBox="0 0 24 24" fill="none" xmlns="http://www.w3.org/2000/svg">
<g id="Interface/Upload">
<g id="Union">
<path fill-rule="evenodd" clip-rule="evenodd" d="M21 9.75C20.5858 9.75 20.25 9.41421 20.25 9V5C20.25 4.66848 20.1183 4.35054 19.8839 4.11612C19.6495 3.8817 19.3315 3.75 19 3.75L5 3.75C4.66848 3.75 4.35054 3.8817 4.11612 4.11612C3.8817 4.35054 3.75 4.66848 3.75 5L3.75 9C3.75 9.41422 3.41421 9.75 3 9.75C2.58579 9.75 2.25 9.41422 2.25 9L2.25 5C2.25 4.27066 2.53973 3.57118 3.05546 3.05546C3.57118 2.53973 4.27065 2.25 5 2.25L19 2.25C19.7293 2.25 20.4288 2.53973 20.9445 3.05546C21.4603 3.57118 21.75 4.27065 21.75 5V9C21.75 9.41421 21.4142 9.75 21 9.75Z" fill="#1E312F"/>
<path fill-rule="evenodd" clip-rule="evenodd" d="M17.5303 14.5303C17.2374 14.8232 16.7626 14.8232 16.4697 14.5303L12 10.0607L7.53033 14.5303C7.23744 14.8232 6.76257 14.8232 6.46967 14.5303C6.17678 14.2374 6.17678 13.7626 6.46967 13.4697L11.4697 8.46967C11.7626 8.17678 12.2374 8.17678 12.5303 8.46967L17.5303 13.4697C17.8232 13.7626 17.8232 14.2374 17.5303 14.5303Z" fill="#1E312F"/>
<path fill-rule="evenodd" clip-rule="evenodd" d="M12 21.75C11.5858 21.75 11.25 21.4142 11.25 21L11.25 9C11.25 8.58579 11.5858 8.25 12 8.25C12.4142 8.25 12.75 8.58579 12.75 9L12.75 21C12.75 21.4142 12.4142 21.75 12 21.75Z" fill="#1E312F"/>
<path fill-rule="evenodd" clip-rule="evenodd" d="M21 9.75C20.5858 9.75 20.25 9.41421 20.25 9V5C20.25 4.66848 20.1183 4.35054 19.8839 4.11612C19.6495 3.8817 19.3315 3.75 19 3.75L5 3.75C4.66848 3.75 4.35054 3.8817 4.11612 4.11612C3.8817 4.35054 3.75 4.66848 3.75 5L3.75 9C3.75 9.41422 3.41421 9.75 3 9.75C2.58579 9.75 2.25 9.41422 2.25 9L2.25 5C2.25 4.27066 2.53973 3.57118 3.05546 3.05546C3.57118 2.53973 4.27065 2.25 5 2.25L19 2.25C19.7293 2.25 20.4288 2.53973 20.9445 3.05546C21.4603 3.57118 21.75 4.27065 21.75 5V9C21.75 9.41421 21.4142 9.75 21 9.75Z" fill="#1E312F"/>
<path fill-rule="evenodd" clip-rule="evenodd" d="M17.5303 14.5303C17.2374 14.8232 16.7626 14.8232 16.4697 14.5303L12 10.0607L7.53033 14.5303C7.23744 14.8232 6.76257 14.8232 6.46967 14.5303C6.17678 14.2374 6.17678 13.7626 6.46967 13.4697L11.4697 8.46967C11.7626 8.17678 12.2374 8.17678 12.5303 8.46967L17.5303 13.4697C17.8232 13.7626 17.8232 14.2374 17.5303 14.5303Z" fill="#1E312F"/>
<path fill-rule="evenodd" clip-rule="evenodd" d="M12 21.75C11.5858 21.75 11.25 21.4142 11.25 21L11.25 9C11.25 8.58579 11.5858 8.25 12 8.25C12.4142 8.25 12.75 8.58579 12.75 9L12.75 21C12.75 21.4142 12.4142 21.75 12 21.75Z" fill="#1E312F"/>
</g>
</g>
</svg>
