<svg width="24" height="24" viewBox="0 0 24 24" fill="none" xmlns="http://www.w3.org/2000/svg">
<path fill-rule="evenodd" clip-rule="evenodd" d="M3.25 5.875C3.25 5.46079 3.58579 5.125 4 5.125H20C20.4142 5.125 20.75 5.46079 20.75 5.875C20.75 6.28921 20.4142 6.625 20 6.625H4C3.58579 6.625 3.25 6.28921 3.25 5.875Z" fill="currentColor"/>
<path fill-rule="evenodd" clip-rule="evenodd" d="M5.25 11.625C5.25 11.2108 5.58579 10.875 6 10.875H18C18.4142 10.875 18.75 11.2108 18.75 11.625C18.75 12.0392 18.4142 12.375 18 12.375H6C5.58579 12.375 5.25 12.0392 5.25 11.625Z" fill="currentColor"/>
<path fill-rule="evenodd" clip-rule="evenodd" d="M7.25 17.375C7.25 16.9608 7.58579 16.625 8 16.625H16C16.4142 16.625 16.75 16.9608 16.75 17.375C16.75 17.7892 16.4142 18.125 16 18.125H8C7.58579 18.125 7.25 17.7892 7.25 17.375Z" fill="currentColor"/>
</svg>
