<svg width="596" height="512" viewBox="0 0 596 512" xmlns="http://www.w3.org/2000/svg">
<path fill-rule="evenodd" clip-rule="evenodd" d="M163.939 431.078C154.929 422.07 140.332 422.062 131.289 431.092C122.301 440.065 122.278 454.68 131.313 463.73C140.301 472.733 154.908 472.749 163.939 463.719C172.942 454.73 172.971 440.112 163.939 431.078ZM193.293 401.726C168.041 376.472 127.178 376.536 101.959 401.712C76.6841 426.947 76.7629 467.848 101.935 493.06C127.152 518.319 168.06 518.303 193.291 493.074M193.291 493.074C218.538 467.856 218.52 426.952 193.293 401.726L193.291 493.074Z" fill="currentColor"/>
<path fill-rule="evenodd" clip-rule="evenodd" d="M221.402 20.7565C221.402 9.29308 230.695 0 242.159 0H352.86C379.6 0 401.292 21.6916 401.292 48.4317V325.185C401.292 336.648 391.998 345.941 380.535 345.941H20.7565C9.29308 345.941 0 336.648 0 325.185C0 313.721 9.29308 304.428 20.7565 304.428H359.779V48.4317C359.779 44.6184 356.673 41.5129 352.86 41.5129H242.159C230.695 41.5129 221.402 32.2198 221.402 20.7565Z" fill="currentColor"/>
<path fill-rule="evenodd" clip-rule="evenodd" d="M20.7565 249.078C32.2198 249.078 41.5129 258.371 41.5129 269.834V419.723C41.5129 423.537 44.6184 426.642 48.4317 426.642H103.782C115.246 426.642 124.539 435.936 124.539 447.399C124.539 458.862 115.246 468.155 103.782 468.155H48.4317C21.6916 468.155 0 446.463 0 419.723V269.834C0 258.371 9.29308 249.078 20.7565 249.078Z" fill="currentColor"/>
<path fill-rule="evenodd" clip-rule="evenodd" d="M359.779 103.782C359.779 92.3189 369.072 83.0258 380.535 83.0258H500.175C519.963 83.0258 537.803 95.0685 545.137 113.5L589.589 224.599C593.148 233.541 595.019 243.116 595.019 252.814V417.426C595.019 444.166 573.327 465.858 546.587 465.858H495.913C484.45 465.858 475.157 456.565 475.157 445.102C475.157 433.638 484.45 424.345 495.913 424.345H546.587C550.4 424.345 553.506 421.24 553.506 417.426V252.814C553.506 248.455 552.664 244.088 551.026 239.97L506.588 128.9L506.568 128.855C505.542 126.268 503.018 124.539 500.175 124.539H380.535C369.072 124.539 359.779 115.246 359.779 103.782Z" fill="currentColor"/>
<path fill-rule="evenodd" clip-rule="evenodd" d="M170.756 447.509C170.756 436.046 180.05 426.753 191.513 426.753H408.21C419.674 426.753 428.967 436.046 428.967 447.509C428.967 458.972 419.674 468.266 408.21 468.266H191.513C180.05 468.266 170.756 458.972 170.756 447.509Z" fill="currentColor"/>
<path fill-rule="evenodd" clip-rule="evenodd" d="M442.805 186.808C442.805 175.345 452.098 166.052 463.561 166.052H552.122C563.585 166.052 572.878 175.345 572.878 186.808C572.878 198.271 563.585 207.565 552.122 207.565H484.317V276.753H574.262C585.725 276.753 595.019 286.046 595.019 297.509C595.019 308.972 585.725 318.266 574.262 318.266H463.561C452.098 318.266 442.805 308.972 442.805 297.509V186.808Z" fill="currentColor"/>
<path fill-rule="evenodd" clip-rule="evenodd" d="M0 20.7565C0 9.29308 9.29308 0 20.7565 0H159.133C170.596 0 179.889 9.29308 179.889 20.7565C179.889 32.2198 170.596 41.5129 159.133 41.5129H20.7565C9.29308 41.5129 0 32.2198 0 20.7565Z" fill="currentColor"/>
<path fill-rule="evenodd" clip-rule="evenodd" d="M0 103.782C0 92.3189 9.29308 83.0258 20.7565 83.0258H103.782C115.246 83.0258 124.539 92.3189 124.539 103.782C124.539 115.246 115.246 124.539 103.782 124.539H20.7565C9.29308 124.539 0 115.246 0 103.782Z" fill="currentColor"/>
<path fill-rule="evenodd" clip-rule="evenodd" d="M0 186.808C0 175.345 9.29308 166.052 20.7565 166.052H48.4317C59.8951 166.052 69.1882 175.345 69.1882 186.808C69.1882 198.271 59.8951 207.565 48.4317 207.565H20.7565C9.29308 207.565 0 198.271 0 186.808Z" fill="currentColor"/>
<path fill-rule="evenodd" clip-rule="evenodd" d="M163.939 431.078C154.929 422.07 140.332 422.062 131.289 431.092C122.301 440.065 122.278 454.68 131.313 463.73C140.301 472.733 154.908 472.749 163.939 463.719C172.942 454.73 172.971 440.112 163.939 431.078ZM193.293 401.726C168.041 376.472 127.178 376.536 101.959 401.712C76.6841 426.947 76.7629 467.848 101.935 493.06C127.152 518.319 168.06 518.303 193.291 493.074M193.291 493.074C218.538 467.856 218.52 426.952 193.293 401.726L193.291 493.074Z" fill="currentColor"/>
<path fill-rule="evenodd" clip-rule="evenodd" d="M221.402 20.7565C221.402 9.29308 230.695 0 242.159 0H352.86C379.6 0 401.292 21.6916 401.292 48.4317V325.185C401.292 336.648 391.998 345.941 380.535 345.941H20.7565C9.29308 345.941 0 336.648 0 325.185C0 313.721 9.29308 304.428 20.7565 304.428H359.779V48.4317C359.779 44.6184 356.673 41.5129 352.86 41.5129H242.159C230.695 41.5129 221.402 32.2198 221.402 20.7565Z" fill="currentColor"/>
<path fill-rule="evenodd" clip-rule="evenodd" d="M20.7565 249.078C32.2198 249.078 41.5129 258.371 41.5129 269.834V419.723C41.5129 423.537 44.6184 426.642 48.4317 426.642H103.782C115.246 426.642 124.539 435.936 124.539 447.399C124.539 458.862 115.246 468.155 103.782 468.155H48.4317C21.6916 468.155 0 446.463 0 419.723V269.834C0 258.371 9.29308 249.078 20.7565 249.078Z" fill="currentColor"/>
<path fill-rule="evenodd" clip-rule="evenodd" d="M359.779 103.782C359.779 92.3189 369.072 83.0258 380.535 83.0258H500.175C519.963 83.0258 537.803 95.0685 545.137 113.5L589.589 224.599C593.148 233.541 595.019 243.116 595.019 252.814V417.426C595.019 444.166 573.327 465.858 546.587 465.858H495.913C484.45 465.858 475.157 456.565 475.157 445.102C475.157 433.638 484.45 424.345 495.913 424.345H546.587C550.4 424.345 553.506 421.24 553.506 417.426V252.814C553.506 248.455 552.664 244.088 551.026 239.97L506.588 128.9L506.568 128.855C505.542 126.268 503.018 124.539 500.175 124.539H380.535C369.072 124.539 359.779 115.246 359.779 103.782Z" fill="currentColor"/>
<path fill-rule="evenodd" clip-rule="evenodd" d="M170.756 447.509C170.756 436.046 180.05 426.753 191.513 426.753H408.21C419.674 426.753 428.967 436.046 428.967 447.509C428.967 458.972 419.674 468.266 408.21 468.266H191.513C180.05 468.266 170.756 458.972 170.756 447.509Z" fill="currentColor"/>
<path fill-rule="evenodd" clip-rule="evenodd" d="M442.805 186.808C442.805 175.345 452.098 166.052 463.561 166.052H552.122C563.585 166.052 572.878 175.345 572.878 186.808C572.878 198.271 563.585 207.565 552.122 207.565H484.317V276.753H574.262C585.725 276.753 595.019 286.046 595.019 297.509C595.019 308.972 585.725 318.266 574.262 318.266H463.561C452.098 318.266 442.805 308.972 442.805 297.509V186.808Z" fill="currentColor"/>
<path fill-rule="evenodd" clip-rule="evenodd" d="M0 20.7565C0 9.29308 9.29308 0 20.7565 0H159.133C170.596 0 179.889 9.29308 179.889 20.7565C179.889 32.2198 170.596 41.5129 159.133 41.5129H20.7565C9.29308 41.5129 0 32.2198 0 20.7565Z" fill="currentColor"/>
<path fill-rule="evenodd" clip-rule="evenodd" d="M0 103.782C0 92.3189 9.29308 83.0258 20.7565 83.0258H103.782C115.246 83.0258 124.539 92.3189 124.539 103.782C124.539 115.246 115.246 124.539 103.782 124.539H20.7565C9.29308 124.539 0 115.246 0 103.782Z" fill="currentColor"/>
<path fill-rule="evenodd" clip-rule="evenodd" d="M0 186.808C0 175.345 9.29308 166.052 20.7565 166.052H48.4317C59.8951 166.052 69.1882 175.345 69.1882 186.808C69.1882 198.271 59.8951 207.565 48.4317 207.565H20.7565C9.29308 207.565 0 198.271 0 186.808Z" fill="currentColor"/>
<path fill-rule="evenodd" clip-rule="evenodd" d="M468.233 431.078C459.221 422.07 444.623 422.062 435.581 431.092C426.592 440.065 426.57 454.68 435.603 463.73C444.592 472.733 459.199 472.749 468.233 463.719C477.233 454.73 477.263 440.112 468.233 431.078ZM497.585 401.726C472.334 376.472 431.469 376.536 406.251 401.712C380.975 426.947 381.055 467.848 406.226 493.06C431.444 518.319 472.353 518.303 497.582 493.074M497.582 493.074C522.83 467.856 522.811 426.952 497.585 401.726L497.582 493.074Z" fill="currentColor"/>
<path fill-rule="evenodd" clip-rule="evenodd" d="M468.233 431.078C459.221 422.07 444.623 422.062 435.581 431.092C426.592 440.065 426.57 454.68 435.603 463.73C444.592 472.733 459.199 472.749 468.233 463.719C477.233 454.73 477.263 440.112 468.233 431.078ZM497.585 401.726C472.334 376.472 431.469 376.536 406.251 401.712C380.975 426.947 381.055 467.848 406.226 493.06C431.444 518.319 472.353 518.303 497.582 493.074M497.582 493.074C522.83 467.856 522.811 426.952 497.585 401.726L497.582 493.074Z" fill="currentColor"/>
</svg>
