<svg width="24" height="24" viewBox="0 0 24 24" fill="none" xmlns="http://www.w3.org/2000/svg">
<path fill-rule="evenodd" clip-rule="evenodd" d="M7 3.75C6.30964 3.75 5.75 4.30964 5.75 5V19C5.75 19.6904 6.30964 20.25 7 20.25H8C8.41421 20.25 8.75 20.5858 8.75 21C8.75 21.4142 8.41421 21.75 8 21.75H7C5.48122 21.75 4.25 20.5188 4.25 19V5C4.25 3.48122 5.48122 2.25 7 2.25H15C16.5188 2.25 17.75 3.48122 17.75 5V10C17.75 10.4142 17.4142 10.75 17 10.75C16.5858 10.75 16.25 10.4142 16.25 10V5C16.25 4.30964 15.6904 3.75 15 3.75H7Z" fill="currentColor"/>
<path fill-rule="evenodd" clip-rule="evenodd" d="M8.5 2.25C8.91421 2.25 9.25 2.58579 9.25 3V4.75H12.75V3C12.75 2.58579 13.0858 2.25 13.5 2.25C13.9142 2.25 14.25 2.58579 14.25 3V5C14.25 5.69036 13.6904 6.25 13 6.25H9C8.30964 6.25 7.75 5.69036 7.75 5V3C7.75 2.58579 8.08579 2.25 8.5 2.25Z" fill="currentColor"/>
<path fill-rule="evenodd" clip-rule="evenodd" d="M10.25 15C10.25 13.4812 11.4812 12.25 13 12.25H19C20.5188 12.25 21.75 13.4812 21.75 15V19C21.75 20.5188 20.5188 21.75 19 21.75H13C11.4812 21.75 10.25 20.5188 10.25 19V15ZM13 13.75C12.3096 13.75 11.75 14.3096 11.75 15V19C11.75 19.6904 12.3096 20.25 13 20.25H19C19.6904 20.25 20.25 19.6904 20.25 19V15C20.25 14.3096 19.6904 13.75 19 13.75H13Z" fill="currentColor"/>
<path fill-rule="evenodd" clip-rule="evenodd" d="M13.0926 15.6618C13.2794 15.2921 13.7305 15.1438 14.1003 15.3306L15.8425 16.2108C15.9495 16.2631 16.0746 16.2631 16.1816 16.2108L17.9238 15.3306C18.2935 15.1438 18.7447 15.2921 18.9315 15.6618C19.1182 16.0315 18.97 16.4826 18.6003 16.6694L16.8494 17.554C16.3218 17.8154 15.7024 17.8153 15.1748 17.554L15.1695 17.5514L13.4238 16.6694C13.0541 16.4826 12.9058 16.0315 13.0926 15.6618Z" fill="currentColor"/>
<path fill-rule="evenodd" clip-rule="evenodd" d="M7 3.75C6.30964 3.75 5.75 4.30964 5.75 5V19C5.75 19.6904 6.30964 20.25 7 20.25H8C8.41421 20.25 8.75 20.5858 8.75 21C8.75 21.4142 8.41421 21.75 8 21.75H7C5.48122 21.75 4.25 20.5188 4.25 19V5C4.25 3.48122 5.48122 2.25 7 2.25H15C16.5188 2.25 17.75 3.48122 17.75 5V10C17.75 10.4142 17.4142 10.75 17 10.75C16.5858 10.75 16.25 10.4142 16.25 10V5C16.25 4.30964 15.6904 3.75 15 3.75H7Z" fill="currentColor"/>
<path fill-rule="evenodd" clip-rule="evenodd" d="M8.5 2.25C8.91421 2.25 9.25 2.58579 9.25 3V4.75H12.75V3C12.75 2.58579 13.0858 2.25 13.5 2.25C13.9142 2.25 14.25 2.58579 14.25 3V5C14.25 5.69036 13.6904 6.25 13 6.25H9C8.30964 6.25 7.75 5.69036 7.75 5V3C7.75 2.58579 8.08579 2.25 8.5 2.25Z" fill="currentColor"/>
<path fill-rule="evenodd" clip-rule="evenodd" d="M10.25 15C10.25 13.4812 11.4812 12.25 13 12.25H19C20.5188 12.25 21.75 13.4812 21.75 15V19C21.75 20.5188 20.5188 21.75 19 21.75H13C11.4812 21.75 10.25 20.5188 10.25 19V15ZM13 13.75C12.3096 13.75 11.75 14.3096 11.75 15V19C11.75 19.6904 12.3096 20.25 13 20.25H19C19.6904 20.25 20.25 19.6904 20.25 19V15C20.25 14.3096 19.6904 13.75 19 13.75H13Z" fill="currentColor"/>
<path fill-rule="evenodd" clip-rule="evenodd" d="M13.0926 15.6618C13.2794 15.2921 13.7305 15.1438 14.1003 15.3306L15.8425 16.2108C15.9495 16.2631 16.0746 16.2631 16.1816 16.2108L17.9238 15.3306C18.2935 15.1438 18.7447 15.2921 18.9315 15.6618C19.1182 16.0315 18.97 16.4826 18.6003 16.6694L16.8494 17.554C16.3218 17.8154 15.7024 17.8153 15.1748 17.554L15.1695 17.5514L13.4238 16.6694C13.0541 16.4826 12.9058 16.0315 13.0926 15.6618Z" fill="currentColor"/>
</svg>
