<svg width="24" height="24" viewBox="0 0 24 24" fill="none" xmlns="http://www.w3.org/2000/svg">
<path fill-rule="evenodd" clip-rule="evenodd" d="M12 2.75C11.0335 2.75 10.25 3.5335 10.25 4.5C10.25 5.4665 11.0335 6.25 12 6.25C12.9665 6.25 13.75 5.4665 13.75 4.5C13.75 3.5335 12.9665 2.75 12 2.75ZM8.75 4.5C8.75 2.70507 10.2051 1.25 12 1.25C13.7949 1.25 15.25 2.70507 15.25 4.5C15.25 6.29493 13.7949 7.75 12 7.75C10.2051 7.75 8.75 6.29493 8.75 4.5Z" fill="currentColor"/>
<path fill-rule="evenodd" clip-rule="evenodd" d="M12 8.75C12.4142 8.75 12.75 9.08579 12.75 9.5V13C12.75 13.4142 12.4142 13.75 12 13.75C11.5858 13.75 11.25 13.4142 11.25 13V9.5C11.25 9.08579 11.5858 8.75 12 8.75Z" fill="currentColor"/>
<path fill-rule="evenodd" clip-rule="evenodd" d="M3 12.25C3.41421 12.25 3.75 12.5858 3.75 13V20.25H20.25V13C20.25 12.5858 20.5858 12.25 21 12.25C21.4142 12.25 21.75 12.5858 21.75 13V21C21.75 21.4142 21.4142 21.75 21 21.75H3C2.58579 21.75 2.25 21.4142 2.25 21V13C2.25 12.5858 2.58579 12.25 3 12.25Z" fill="currentColor"/>
<path fill-rule="evenodd" clip-rule="evenodd" d="M1.25 13C1.25 12.5858 1.58579 12.25 2 12.25H22C22.4142 12.25 22.75 12.5858 22.75 13C22.75 13.4142 22.4142 13.75 22 13.75H2C1.58579 13.75 1.25 13.4142 1.25 13Z" fill="currentColor"/>
<path fill-rule="evenodd" clip-rule="evenodd" d="M6.25 12.3571C6.25001 10.365 7.86497 8.75001 9.85714 8.75H14.1429C16.135 8.75001 17.75 10.365 17.75 12.3571V13C17.75 13.4142 17.4142 13.75 17 13.75C16.5858 13.75 16.25 13.4142 16.25 13V12.3571C16.25 11.1934 15.3066 10.25 14.1429 10.25H9.85714C8.6934 10.25 7.75 11.1934 7.75 12.3571V13C7.75 13.4142 7.41421 13.75 7 13.75C6.58579 13.75 6.25 13.4142 6.25 13V12.3571Z" fill="currentColor"/>
</svg>
