<svg width="20" height="20" viewBox="0 0 20 20" fill="none" xmlns="http://www.w3.org/2000/svg">
<path fill-rule="evenodd" clip-rule="evenodd" d="M3.72407 3.72475C3.96815 3.48067 4.36388 3.48067 4.60796 3.72475L16.2746 15.3914C16.5187 15.6355 16.5187 16.0312 16.2746 16.2753C16.0305 16.5194 15.6348 16.5194 15.3907 16.2753L3.72407 4.60863C3.48 4.36455 3.48 3.96882 3.72407 3.72475Z" fill="currentColor"/>
<path fill-rule="evenodd" clip-rule="evenodd" d="M16.2746 3.72475C16.5187 3.96882 16.5187 4.36455 16.2746 4.60863L4.60796 16.2753C4.36388 16.5194 3.96815 16.5194 3.72407 16.2753C3.48 16.0312 3.48 15.6355 3.72407 15.3914L15.3907 3.72475C15.6348 3.48067 16.0305 3.48067 16.2746 3.72475Z" fill="currentColor"/>
</svg>
