<svg width="24" height="24" viewBox="0 0 24 24" fill="none" xmlns="http://www.w3.org/2000/svg">
<path fill-rule="evenodd" clip-rule="evenodd" d="M4.5 2.25C4.91421 2.25 5.25 2.58579 5.25 3V21C5.25 21.4142 4.91421 21.75 4.5 21.75C4.08579 21.75 3.75 21.4142 3.75 21V3C3.75 2.58579 4.08579 2.25 4.5 2.25Z" fill="currentColor"/>
<path fill-rule="evenodd" clip-rule="evenodd" d="M9.5 5.25C9.91421 5.25 10.25 5.58579 10.25 6V21C10.25 21.4142 9.91421 21.75 9.5 21.75C9.08579 21.75 8.75 21.4142 8.75 21V6C8.75 5.58579 9.08579 5.25 9.5 5.25Z" fill="currentColor"/>
<path fill-rule="evenodd" clip-rule="evenodd" d="M19.5 1.25C19.9142 1.25 20.25 1.58579 20.25 2V21C20.25 21.4142 19.9142 21.75 19.5 21.75C19.0858 21.75 18.75 21.4142 18.75 21V2C18.75 1.58579 19.0858 1.25 19.5 1.25Z" fill="currentColor"/>
<path fill-rule="evenodd" clip-rule="evenodd" d="M14.5 9.25C14.9142 9.25 15.25 9.58579 15.25 10V21C15.25 21.4142 14.9142 21.75 14.5 21.75C14.0858 21.75 13.75 21.4142 13.75 21V10C13.75 9.58579 14.0858 9.25 14.5 9.25Z" fill="currentColor"/>
<path fill-rule="evenodd" clip-rule="evenodd" d="M4.5 2.25C4.91421 2.25 5.25 2.58579 5.25 3V21C5.25 21.4142 4.91421 21.75 4.5 21.75C4.08579 21.75 3.75 21.4142 3.75 21V3C3.75 2.58579 4.08579 2.25 4.5 2.25Z" fill="currentColor"/>
<path fill-rule="evenodd" clip-rule="evenodd" d="M9.5 5.25C9.91421 5.25 10.25 5.58579 10.25 6V21C10.25 21.4142 9.91421 21.75 9.5 21.75C9.08579 21.75 8.75 21.4142 8.75 21V6C8.75 5.58579 9.08579 5.25 9.5 5.25Z" fill="currentColor"/>
<path fill-rule="evenodd" clip-rule="evenodd" d="M19.5 1.25C19.9142 1.25 20.25 1.58579 20.25 2V21C20.25 21.4142 19.9142 21.75 19.5 21.75C19.0858 21.75 18.75 21.4142 18.75 21V2C18.75 1.58579 19.0858 1.25 19.5 1.25Z" fill="currentColor"/>
<path fill-rule="evenodd" clip-rule="evenodd" d="M14.5 9.25C14.9142 9.25 15.25 9.58579 15.25 10V21C15.25 21.4142 14.9142 21.75 14.5 21.75C14.0858 21.75 13.75 21.4142 13.75 21V10C13.75 9.58579 14.0858 9.25 14.5 9.25Z" fill="currentColor"/>
</svg>
