<svg width="24" height="24" viewBox="0 0 24 24" fill="none" xmlns="http://www.w3.org/2000/svg">
<path fill-rule="evenodd" clip-rule="evenodd" d="M6.436 4C6.436 3.03379 7.21979 2.25 8.186 2.25H15.814C16.7802 2.25 17.564 3.03379 17.564 4V8C17.564 8.41421 17.2282 8.75 16.814 8.75C16.3998 8.75 16.064 8.41421 16.064 8V4C16.064 3.86221 15.9518 3.75 15.814 3.75H8.186C8.04821 3.75 7.936 3.86221 7.936 4V8C7.936 8.41421 7.60021 8.75 7.186 8.75C6.77179 8.75 6.436 8.41421 6.436 8V4Z" fill="currentColor"/>
<path fill-rule="evenodd" clip-rule="evenodd" d="M16.25 11C16.25 10.5858 16.5858 10.25 17 10.25H18C18.4142 10.25 18.75 10.5858 18.75 11C18.75 11.4142 18.4142 11.75 18 11.75H17C16.5858 11.75 16.25 11.4142 16.25 11Z" fill="currentColor"/>
<path fill-rule="evenodd" clip-rule="evenodd" d="M4 8.75C3.86221 8.75 3.75 8.86221 3.75 9V16C3.75 16.1378 3.86221 16.25 4 16.25H7C7.41421 16.25 7.75 16.5858 7.75 17C7.75 17.4142 7.41421 17.75 7 17.75H4C3.03379 17.75 2.25 16.9662 2.25 16V9C2.25 8.03379 3.03379 7.25 4 7.25H20C20.9662 7.25 21.75 8.03379 21.75 9V16C21.75 16.9662 20.9662 17.75 20 17.75H17C16.5858 17.75 16.25 17.4142 16.25 17C16.25 16.5858 16.5858 16.25 17 16.25H20C20.1378 16.25 20.25 16.1378 20.25 16V9C20.25 8.86221 20.1378 8.75 20 8.75H4Z" fill="currentColor"/>
<path fill-rule="evenodd" clip-rule="evenodd" d="M6.25 14C6.25 13.5858 6.58579 13.25 7 13.25H17C17.4142 13.25 17.75 13.5858 17.75 14V20C17.75 20.9662 16.9662 21.75 16 21.75H8C7.03379 21.75 6.25 20.9662 6.25 20V14ZM7.75 14.75V20C7.75 20.1378 7.86221 20.25 8 20.25H16C16.1378 20.25 16.25 20.1378 16.25 20V14.75H7.75Z" fill="currentColor"/>
<path fill-rule="evenodd" clip-rule="evenodd" d="M6.436 4C6.436 3.03379 7.21979 2.25 8.186 2.25H15.814C16.7802 2.25 17.564 3.03379 17.564 4V8C17.564 8.41421 17.2282 8.75 16.814 8.75C16.3998 8.75 16.064 8.41421 16.064 8V4C16.064 3.86221 15.9518 3.75 15.814 3.75H8.186C8.04821 3.75 7.936 3.86221 7.936 4V8C7.936 8.41421 7.60021 8.75 7.186 8.75C6.77179 8.75 6.436 8.41421 6.436 8V4Z" fill="currentColor"/>
<path fill-rule="evenodd" clip-rule="evenodd" d="M16.25 11C16.25 10.5858 16.5858 10.25 17 10.25H18C18.4142 10.25 18.75 10.5858 18.75 11C18.75 11.4142 18.4142 11.75 18 11.75H17C16.5858 11.75 16.25 11.4142 16.25 11Z" fill="currentColor"/>
<path fill-rule="evenodd" clip-rule="evenodd" d="M4 8.75C3.86221 8.75 3.75 8.86221 3.75 9V16C3.75 16.1378 3.86221 16.25 4 16.25H7C7.41421 16.25 7.75 16.5858 7.75 17C7.75 17.4142 7.41421 17.75 7 17.75H4C3.03379 17.75 2.25 16.9662 2.25 16V9C2.25 8.03379 3.03379 7.25 4 7.25H20C20.9662 7.25 21.75 8.03379 21.75 9V16C21.75 16.9662 20.9662 17.75 20 17.75H17C16.5858 17.75 16.25 17.4142 16.25 17C16.25 16.5858 16.5858 16.25 17 16.25H20C20.1378 16.25 20.25 16.1378 20.25 16V9C20.25 8.86221 20.1378 8.75 20 8.75H4Z" fill="currentColor"/>
<path fill-rule="evenodd" clip-rule="evenodd" d="M6.25 14C6.25 13.5858 6.58579 13.25 7 13.25H17C17.4142 13.25 17.75 13.5858 17.75 14V20C17.75 20.9662 16.9662 21.75 16 21.75H8C7.03379 21.75 6.25 20.9662 6.25 20V14ZM7.75 14.75V20C7.75 20.1378 7.86221 20.25 8 20.25H16C16.1378 20.25 16.25 20.1378 16.25 20V14.75H7.75Z" fill="currentColor"/>
</svg>
