<svg width="24" height="24" viewBox="0 0 24 24" fill="none" xmlns="http://www.w3.org/2000/svg">
<path fill-rule="evenodd" clip-rule="evenodd" d="M13.9446 9.05546C12.8706 7.98151 11.1294 7.98151 10.0555 9.05546C8.98153 10.1294 8.98153 11.8706 10.0555 12.9445C11.1294 14.0185 12.8706 14.0185 13.9446 12.9445C15.0185 11.8706 15.0185 10.1294 13.9446 9.05546ZM15.0052 7.9948C13.3455 6.33507 10.6546 6.33507 8.99482 7.9948C7.33509 9.65453 7.33509 12.3455 8.99482 14.0052C10.6546 15.6649 13.3455 15.6649 15.0052 14.0052C16.665 12.3455 16.665 9.65453 15.0052 7.9948Z" fill="currentColor"/>
<path fill-rule="evenodd" clip-rule="evenodd" d="M2.25 5.066C2.25 3.51079 3.51079 2.25 5.066 2.25H18.934C20.4892 2.25 21.75 3.51079 21.75 5.066V16.934C21.75 18.489 20.4895 19.75 18.935 19.75H5.066C3.51102 19.75 2.25 18.4895 2.25 16.935V5.066ZM5.066 3.75C4.33921 3.75 3.75 4.33921 3.75 5.066V16.935C3.75 17.6606 4.33898 18.25 5.066 18.25H18.935C19.6606 18.25 20.25 17.661 20.25 16.934V5.066C20.25 4.33921 19.6608 3.75 18.934 3.75H5.066Z" fill="currentColor"/>
<path fill-rule="evenodd" clip-rule="evenodd" d="M13.1603 9.7504C13.4639 10.0322 13.4814 10.5068 13.1996 10.8103L11.8996 12.2103C11.6177 12.5139 11.1432 12.5314 10.8397 12.2496C10.5361 11.9677 10.5186 11.4932 10.8004 11.1897L12.1004 9.78965C12.3823 9.48612 12.8568 9.46854 13.1603 9.7504Z" fill="currentColor"/>
<path fill-rule="evenodd" clip-rule="evenodd" d="M5 18.25C5.41421 18.25 5.75 18.5858 5.75 19V21C5.75 21.4142 5.41421 21.75 5 21.75C4.58579 21.75 4.25 21.4142 4.25 21V19C4.25 18.5858 4.58579 18.25 5 18.25Z" fill="currentColor"/>
<path fill-rule="evenodd" clip-rule="evenodd" d="M19 18.25C19.4142 18.25 19.75 18.5858 19.75 19V21C19.75 21.4142 19.4142 21.75 19 21.75C18.5858 21.75 18.25 21.4142 18.25 21V19C18.25 18.5858 18.5858 18.25 19 18.25Z" fill="currentColor"/>
<path fill-rule="evenodd" clip-rule="evenodd" d="M20.25 6C20.25 5.58579 20.5858 5.25 21 5.25H22C22.4142 5.25 22.75 5.58579 22.75 6C22.75 6.41421 22.4142 6.75 22 6.75H21C20.5858 6.75 20.25 6.41421 20.25 6Z" fill="currentColor"/>
<path fill-rule="evenodd" clip-rule="evenodd" d="M20.25 15C20.25 14.5858 20.5858 14.25 21 14.25H22C22.4142 14.25 22.75 14.5858 22.75 15C22.75 15.4142 22.4142 15.75 22 15.75H21C20.5858 15.75 20.25 15.4142 20.25 15Z" fill="currentColor"/>
</svg>
