<svg width="24" height="24" viewBox="0 0 24 24" fill="none" xmlns="http://www.w3.org/2000/svg">
<path fill-rule="evenodd" clip-rule="evenodd" d="M1.25 8C1.25 7.0335 2.0335 6.25 3 6.25H21C21.9665 6.25 22.75 7.0335 22.75 8V10C22.75 10.9665 21.9665 11.75 21 11.75H3C2.0335 11.75 1.25 10.9665 1.25 10V8ZM3 7.75C2.86193 7.75 2.75 7.86193 2.75 8V10C2.75 10.1381 2.86193 10.25 3 10.25H21C21.1381 10.25 21.25 10.1381 21.25 10V8C21.25 7.86193 21.1381 7.75 21 7.75H3Z" fill="currentColor"/>
<path fill-rule="evenodd" clip-rule="evenodd" d="M19 11.25C19.4142 11.25 19.75 11.5858 19.75 12V20C19.75 20.4142 19.4142 20.75 19 20.75C18.5858 20.75 18.25 20.4142 18.25 20V12C18.25 11.5858 18.5858 11.25 19 11.25Z" fill="currentColor"/>
<path fill-rule="evenodd" clip-rule="evenodd" d="M5 11.25C5.41421 11.25 5.75 11.5858 5.75 12V20C5.75 20.4142 5.41421 20.75 5 20.75C4.58579 20.75 4.25 20.4142 4.25 20V12C4.25 11.5858 4.58579 11.25 5 11.25Z" fill="currentColor"/>
</svg>
