<svg width="24" height="24" viewBox="0 0 24 24" fill="none" xmlns="http://www.w3.org/2000/svg">
<path fill-rule="evenodd" clip-rule="evenodd" d="M2.95278 5.57745C3.16778 3.68246 4.77143 2.25 6.679 2.25H17.321C19.2284 2.25 20.8323 3.68226 21.0462 5.57756C21.0462 5.57743 21.0462 5.57768 21.0462 5.57756L21.7212 11.5346C21.7679 11.9461 21.472 12.3176 21.0604 12.3642C20.6489 12.4109 20.2774 12.115 20.2308 11.7034L19.5558 5.74644C19.4276 4.60993 18.4655 3.75 17.321 3.75H6.679C5.53461 3.75 4.57228 4.60949 4.44323 5.74644C4.44323 5.74648 4.44323 5.74641 4.44323 5.74644L3.76823 11.7034C3.72159 12.115 3.35014 12.4109 2.93856 12.3642C2.52698 12.3176 2.23113 11.9461 2.27777 11.5346L2.95278 5.57745Z" fill="currentColor"/>
<path fill-rule="evenodd" clip-rule="evenodd" d="M2.25 18C2.25 15.9288 3.92879 14.25 6 14.25H18C20.0712 14.25 21.75 15.9288 21.75 18C21.75 20.0712 20.0712 21.75 18 21.75H6C3.92879 21.75 2.25 20.0712 2.25 18ZM3.75 18C3.75 19.2428 4.75721 20.25 6 20.25H18C19.2428 20.25 20.25 19.2428 20.25 18C20.25 16.7572 19.2428 15.75 18 15.75H6C4.75721 15.75 3.75 16.7572 3.75 18Z" fill="currentColor"/>
<path fill-rule="evenodd" clip-rule="evenodd" d="M2.25 12C2.25 9.92879 3.92879 8.25 6 8.25H18C20.0712 8.25 21.75 9.92879 21.75 12C21.75 14.0712 20.0712 15.75 18 15.75H6C3.92879 15.75 2.25 14.0712 2.25 12ZM3.75 12C3.75 13.2428 4.75721 14.25 6 14.25H18C19.2428 14.25 20.25 13.2428 20.25 12C20.25 10.7572 19.2428 9.75 18 9.75H6C4.75721 9.75 3.75 10.7572 3.75 12Z" fill="currentColor"/>
<path fill-rule="evenodd" clip-rule="evenodd" d="M10.25 12C10.25 11.5858 10.5858 11.25 11 11.25H18C18.4142 11.25 18.75 11.5858 18.75 12C18.75 12.4142 18.4142 12.75 18 12.75H11C10.5858 12.75 10.25 12.4142 10.25 12Z" fill="currentColor"/>
<path fill-rule="evenodd" clip-rule="evenodd" d="M5.43432 11.4343C5.74674 11.1219 6.25327 11.1219 6.56569 11.4343C6.87811 11.7467 6.87811 12.2532 6.56569 12.5656C6.25327 12.8781 5.74674 12.8781 5.43432 12.5656C5.1219 12.2532 5.1219 11.7467 5.43432 11.4343Z" fill="currentColor"/>
<path fill-rule="evenodd" clip-rule="evenodd" d="M10.32 18C10.32 17.5858 10.6558 17.25 11.07 17.25H18.07C18.4842 17.25 18.82 17.5858 18.82 18C18.82 18.4142 18.4842 18.75 18.07 18.75H11.07C10.6558 18.75 10.32 18.4142 10.32 18Z" fill="currentColor"/>
<path fill-rule="evenodd" clip-rule="evenodd" d="M5.50032 17.4343C5.81274 17.1219 6.31927 17.1219 6.63169 17.4343C6.94411 17.7467 6.94411 18.2532 6.63169 18.5656C6.31927 18.8781 5.81274 18.8781 5.50032 18.5656C5.1879 18.2532 5.1879 17.7467 5.50032 17.4343Z" fill="currentColor"/>
<path fill-rule="evenodd" clip-rule="evenodd" d="M2.95278 5.57745C3.16778 3.68246 4.77143 2.25 6.679 2.25H17.321C19.2284 2.25 20.8323 3.68226 21.0462 5.57756C21.0462 5.57743 21.0462 5.57768 21.0462 5.57756L21.7212 11.5346C21.7679 11.9461 21.472 12.3176 21.0604 12.3642C20.6489 12.4109 20.2774 12.115 20.2308 11.7034L19.5558 5.74644C19.4276 4.60993 18.4655 3.75 17.321 3.75H6.679C5.53461 3.75 4.57228 4.60949 4.44323 5.74644C4.44323 5.74648 4.44323 5.74641 4.44323 5.74644L3.76823 11.7034C3.72159 12.115 3.35014 12.4109 2.93856 12.3642C2.52698 12.3176 2.23113 11.9461 2.27777 11.5346L2.95278 5.57745Z" fill="currentColor"/>
<path fill-rule="evenodd" clip-rule="evenodd" d="M2.25 18C2.25 15.9288 3.92879 14.25 6 14.25H18C20.0712 14.25 21.75 15.9288 21.75 18C21.75 20.0712 20.0712 21.75 18 21.75H6C3.92879 21.75 2.25 20.0712 2.25 18ZM3.75 18C3.75 19.2428 4.75721 20.25 6 20.25H18C19.2428 20.25 20.25 19.2428 20.25 18C20.25 16.7572 19.2428 15.75 18 15.75H6C4.75721 15.75 3.75 16.7572 3.75 18Z" fill="currentColor"/>
<path fill-rule="evenodd" clip-rule="evenodd" d="M2.25 12C2.25 9.92879 3.92879 8.25 6 8.25H18C20.0712 8.25 21.75 9.92879 21.75 12C21.75 14.0712 20.0712 15.75 18 15.75H6C3.92879 15.75 2.25 14.0712 2.25 12ZM3.75 12C3.75 13.2428 4.75721 14.25 6 14.25H18C19.2428 14.25 20.25 13.2428 20.25 12C20.25 10.7572 19.2428 9.75 18 9.75H6C4.75721 9.75 3.75 10.7572 3.75 12Z" fill="currentColor"/>
<path fill-rule="evenodd" clip-rule="evenodd" d="M10.25 12C10.25 11.5858 10.5858 11.25 11 11.25H18C18.4142 11.25 18.75 11.5858 18.75 12C18.75 12.4142 18.4142 12.75 18 12.75H11C10.5858 12.75 10.25 12.4142 10.25 12Z" fill="currentColor"/>
<path fill-rule="evenodd" clip-rule="evenodd" d="M5.43432 11.4343C5.74674 11.1219 6.25327 11.1219 6.56569 11.4343C6.87811 11.7467 6.87811 12.2532 6.56569 12.5656C6.25327 12.8781 5.74674 12.8781 5.43432 12.5656C5.1219 12.2532 5.1219 11.7467 5.43432 11.4343Z" fill="currentColor"/>
<path fill-rule="evenodd" clip-rule="evenodd" d="M10.32 18C10.32 17.5858 10.6558 17.25 11.07 17.25H18.07C18.4842 17.25 18.82 17.5858 18.82 18C18.82 18.4142 18.4842 18.75 18.07 18.75H11.07C10.6558 18.75 10.32 18.4142 10.32 18Z" fill="currentColor"/>
<path fill-rule="evenodd" clip-rule="evenodd" d="M5.50032 17.4343C5.81274 17.1219 6.31927 17.1219 6.63169 17.4343C6.94411 17.7467 6.94411 18.2532 6.63169 18.5656C6.31927 18.8781 5.81274 18.8781 5.50032 18.5656C5.1879 18.2532 5.1879 17.7467 5.50032 17.4343Z" fill="currentColor"/>
</svg>
