<svg width="25" height="24" viewBox="0 0 25 24" fill="none" xmlns="http://www.w3.org/2000/svg">
<path fill-rule="evenodd" clip-rule="evenodd" d="M2.76799 11.9195C2.7693 6.70028 7.01622 2.45605 12.237 2.45605C14.7678 2.45714 17.1478 3.44415 18.9345 5.23189C20.7209 7.02046 21.7061 9.40032 21.705 11.9274C21.7028 17.1464 17.4561 21.3921 12.237 21.3921H12.233C10.7525 21.3921 9.29497 21.0446 7.97545 20.3802L3.63422 21.5185C3.37501 21.5865 3.09922 21.511 2.91077 21.3205C2.72232 21.13 2.64984 20.8534 2.72063 20.5949L3.87697 16.3734C3.14755 15.0037 2.76602 13.474 2.76799 11.9195ZM12.2367 3.95605C7.84372 3.95623 4.2689 7.52972 4.26799 11.9202C4.26616 13.3174 4.6326 14.6917 5.33072 15.9024C5.43072 16.0759 5.45723 16.2821 5.40434 16.4752L4.51061 19.738L7.87575 18.8556C8.06048 18.8071 8.25673 18.831 8.42448 18.9223C9.59366 19.5585 10.9024 19.8921 12.233 19.8921H12.237C16.6278 19.8921 20.2032 16.3177 20.205 11.9267C20.2059 9.79779 19.3789 7.79949 17.8733 6.29206C16.3681 4.78597 14.3697 3.95705 12.2367 3.95605Z" fill="currentColor"/>
<path d="M9.23439 8.35038C9.385 8.19978 9.62721 8.22452 9.74399 8.39178C9.98743 8.74242 10.2504 9.11976 10.5445 9.53745C10.6405 9.67435 10.6214 9.85946 10.5108 9.97069L10.1078 10.3767C9.81596 10.6707 9.81773 11.1455 10.1117 11.4373C10.4057 11.7292 10.8806 11.7274 11.1724 11.4334L11.5754 11.0274C12.2061 10.3927 12.2795 9.39785 11.7718 8.675L11.7712 8.67418C11.4796 8.26005 11.2182 7.88505 10.9758 7.53582C10.3204 6.59354 8.97898 6.48448 8.17373 7.28972L7.82049 7.64296C7.81812 7.64529 7.81575 7.64763 7.8134 7.65C6.79884 8.66937 6.78991 10.0058 7.2202 11.216C7.64562 12.4124 8.51574 13.5954 9.54161 14.6218C9.83443 14.9148 10.3252 14.9374 10.6182 14.6445C10.9111 14.3517 10.9013 13.8604 10.6085 13.5674C9.66935 12.6278 8.95685 11.6228 8.63352 10.7134C8.31615 9.82088 8.41643 9.17421 8.87186 8.7129L8.87539 8.70938L9.23439 8.35038Z" fill="currentColor"/>
<path d="M15.8153 14.9965C15.9677 14.8477 15.9458 14.6052 15.7799 14.4865C15.4322 14.2389 15.058 13.9716 14.6438 13.6725C14.508 13.575 14.3227 13.5919 14.2102 13.7012L13.7994 14.0994C13.5021 14.3877 13.0272 14.3804 12.7389 14.083C12.4506 13.7856 12.4579 13.3108 12.7553 13.0224L13.166 12.6242C13.8081 12.001 14.8038 11.9393 15.5206 12.4555L15.5214 12.4561C15.9321 12.7526 16.304 13.0183 16.6503 13.2649C17.5848 13.9313 17.6781 15.2739 16.8635 16.0696L16.5061 16.4187C16.5037 16.421 16.5014 16.4234 16.499 16.4257C15.4677 17.4282 14.1313 17.4214 12.9263 16.9769C11.7349 16.5374 10.5559 15.6597 9.54161 14.6218C9.25211 14.3256 9.24167 13.8283 9.53791 13.5388C9.83416 13.2493 10.319 13.2712 10.6085 13.5674C11.537 14.5176 12.5399 15.2356 13.4454 15.5696C14.3341 15.8974 14.9819 15.8048 15.4486 15.3548L15.4521 15.3513L15.8153 14.9965Z" fill="currentColor"/>
<path fill-rule="evenodd" clip-rule="evenodd" d="M10.2383 10.2717C10.5881 10.0498 11.0515 10.1536 11.2734 10.5034C11.5583 10.9527 11.9308 11.4082 12.3603 11.8377L12.3623 11.8397C12.7918 12.2692 13.2474 12.6417 13.6967 12.9267C14.0465 13.1485 14.1502 13.6119 13.9284 13.9617C13.7065 14.3115 13.2431 14.4153 12.8933 14.1934C12.3366 13.8404 11.7961 13.3949 11.3017 12.9004L11.2997 12.8984C10.8052 12.4039 10.3597 11.8634 10.0066 11.3067C9.78478 10.9569 9.88851 10.4935 10.2383 10.2717Z" fill="currentColor"/>
</svg>
