<svg width="24" height="24" viewBox="0 0 24 24" fill="none" xmlns="http://www.w3.org/2000/svg">
<path fill-rule="evenodd" clip-rule="evenodd" d="M2.24634 5.99609C2.24634 3.92502 3.92527 2.24609 5.99634 2.24609H18.0038C20.0749 2.24609 21.7538 3.92503 21.7538 5.99609V18.0036C21.7538 20.0747 20.0749 21.7536 18.0038 21.7536H5.99634C3.92527 21.7536 2.24634 20.0747 2.24634 18.0036V5.99609ZM5.99634 3.74609C4.7537 3.74609 3.74634 4.75345 3.74634 5.99609V18.0036C3.74634 19.2462 4.7537 20.2536 5.99634 20.2536H18.0038C19.2465 20.2536 20.2538 19.2462 20.2538 18.0036V5.99609C20.2538 4.75345 19.2465 3.74609 18.0038 3.74609H5.99634Z" fill="currentColor"/>
<path fill-rule="evenodd" clip-rule="evenodd" d="M7.09794 5.98828C6.96076 5.83759 6.76302 5.74301 6.54318 5.74301C6.10135 5.74301 5.74316 6.10119 5.74316 6.54303C5.74316 6.98487 6.10134 7.34305 6.54318 7.34305C6.98502 7.34305 7.34321 6.98487 7.34321 6.54303C7.34321 6.3232 7.24863 6.12546 7.09794 5.98828Z" fill="currentColor"/>
<path fill-rule="evenodd" clip-rule="evenodd" d="M10.7359 5.98828C10.5987 5.83759 10.401 5.74301 10.1811 5.74301C9.73929 5.74301 9.3811 6.10119 9.3811 6.54303C9.3811 6.98487 9.73928 7.34305 10.1811 7.34305C10.623 7.34305 10.9811 6.98487 10.9811 6.54303C10.9811 6.3232 10.8866 6.12546 10.7359 5.98828Z" fill="currentColor"/>
<path fill-rule="evenodd" clip-rule="evenodd" d="M14.3736 5.98828C14.2364 5.83759 14.0387 5.74301 13.8188 5.74301C13.377 5.74301 13.0188 6.10119 13.0188 6.54303C13.0188 6.98487 13.377 7.34305 13.8188 7.34305C14.2607 7.34305 14.6188 6.98487 14.6188 6.54303C14.6188 6.3232 14.5243 6.12546 14.3736 5.98828Z" fill="currentColor"/>
<path fill-rule="evenodd" clip-rule="evenodd" d="M18.0115 5.98828C17.8743 5.83759 17.6766 5.74301 17.4568 5.74301C17.0149 5.74301 16.6567 6.10119 16.6567 6.54303C16.6567 6.98487 17.0149 7.34305 17.4568 7.34305C17.8986 7.34305 18.2568 6.98487 18.2568 6.54303C18.2568 6.3232 18.1622 6.12546 18.0115 5.98828Z" fill="currentColor"/>
<path fill-rule="evenodd" clip-rule="evenodd" d="M18.0115 9.62616C17.8743 9.47547 17.6766 9.38089 17.4568 9.38089C17.0149 9.38089 16.6567 9.73907 16.6567 10.1809C16.6567 10.6227 17.0149 10.9809 17.4568 10.9809C17.8986 10.9809 18.2568 10.6228 18.2568 10.1809C18.2568 9.96108 18.1622 9.76334 18.0115 9.62616Z" fill="currentColor"/>
<path fill-rule="evenodd" clip-rule="evenodd" d="M18.0115 13.264C17.8743 13.1133 17.6766 13.0188 17.4568 13.0188C17.0149 13.0188 16.6567 13.377 16.6567 13.8188C16.6567 14.2606 17.0149 14.6188 17.4568 14.6188C17.8986 14.6188 18.2568 14.2606 18.2568 13.8188C18.2568 13.599 18.1622 13.4012 18.0115 13.264Z" fill="currentColor"/>
<path fill-rule="evenodd" clip-rule="evenodd" d="M18.0115 16.9019C17.8743 16.7512 17.6766 16.6566 17.4568 16.6566C17.0149 16.6566 16.6567 17.0148 16.6567 17.4567C16.6567 17.8985 17.0149 18.2567 17.4568 18.2567C17.8986 18.2567 18.2568 17.8985 18.2568 17.4567C18.2568 17.2368 18.1622 17.0391 18.0115 16.9019Z" fill="currentColor"/>
<path fill-rule="evenodd" clip-rule="evenodd" d="M14.3736 16.9019C14.2364 16.7512 14.0387 16.6566 13.8188 16.6566C13.377 16.6566 13.0188 17.0148 13.0188 17.4567C13.0188 17.8985 13.377 18.2567 13.8188 18.2567C14.2607 18.2567 14.6188 17.8985 14.6188 17.4567C14.6188 17.2368 14.5243 17.0391 14.3736 16.9019Z" fill="currentColor"/>
<path fill-rule="evenodd" clip-rule="evenodd" d="M10.7359 16.9019C10.5987 16.7512 10.401 16.6566 10.1811 16.6566C9.73928 16.6566 9.3811 17.0148 9.3811 17.4567C9.3811 17.8985 9.73928 18.2567 10.1811 18.2567C10.623 18.2567 10.9811 17.8985 10.9811 17.4567C10.9811 17.2368 10.8866 17.0391 10.7359 16.9019Z" fill="currentColor"/>
<path fill-rule="evenodd" clip-rule="evenodd" d="M7.09794 16.9019C6.96076 16.7512 6.76302 16.6566 6.54318 16.6566C6.10135 16.6566 5.74316 17.0148 5.74316 17.4567C5.74316 17.8985 6.10134 18.2567 6.54318 18.2567C6.98502 18.2567 7.34321 17.8985 7.34321 17.4567C7.34321 17.2368 7.24863 17.0391 7.09794 16.9019Z" fill="currentColor"/>
<path fill-rule="evenodd" clip-rule="evenodd" d="M7.09769 13.264C6.96051 13.1133 6.76277 13.0188 6.54294 13.0188C6.1011 13.0188 5.74292 13.377 5.74292 13.8188C5.74292 14.2606 6.1011 14.6188 6.54294 14.6188C6.98478 14.6188 7.34296 14.2606 7.34296 13.8188C7.34296 13.599 7.24838 13.4012 7.09769 13.264Z" fill="currentColor"/>
<path fill-rule="evenodd" clip-rule="evenodd" d="M10.7356 13.264C10.5985 13.1133 10.4007 13.0188 10.1809 13.0188C9.73904 13.0188 9.38086 13.377 9.38086 13.8188C9.38086 14.2606 9.73904 14.6188 10.1809 14.6188C10.6227 14.6188 10.9809 14.2606 10.9809 13.8188C10.9809 13.599 10.8863 13.4012 10.7356 13.264Z" fill="currentColor"/>
<path fill-rule="evenodd" clip-rule="evenodd" d="M14.3738 13.264C14.2366 13.1133 14.0389 13.0188 13.8191 13.0188C13.3772 13.0188 13.019 13.377 13.019 13.8188C13.019 14.2606 13.3772 14.6188 13.8191 14.6188C14.2609 14.6188 14.6191 14.2606 14.6191 13.8188C14.6191 13.599 14.5245 13.4012 14.3738 13.264Z" fill="currentColor"/>
<path fill-rule="evenodd" clip-rule="evenodd" d="M7.09769 9.62616C6.96051 9.47547 6.76277 9.38089 6.54294 9.38089C6.1011 9.38089 5.74292 9.73907 5.74292 10.1809C5.74292 10.6227 6.1011 10.9809 6.54294 10.9809C6.98478 10.9809 7.34296 10.6227 7.34296 10.1809C7.34296 9.96108 7.24838 9.76334 7.09769 9.62616Z" fill="currentColor"/>
<path fill-rule="evenodd" clip-rule="evenodd" d="M10.7356 9.62616C10.5985 9.47547 10.4007 9.38089 10.1809 9.38089C9.73904 9.38089 9.38086 9.73907 9.38086 10.1809C9.38086 10.6227 9.73904 10.9809 10.1809 10.9809C10.6227 10.9809 10.9809 10.6227 10.9809 10.1809C10.9809 9.96108 10.8863 9.76334 10.7356 9.62616Z" fill="currentColor"/>
<path fill-rule="evenodd" clip-rule="evenodd" d="M14.3738 9.62616C14.2366 9.47547 14.0389 9.38089 13.8191 9.38089C13.3772 9.38089 13.019 9.73907 13.019 10.1809C13.019 10.6227 13.3772 10.9809 13.8191 10.9809C14.2609 10.9809 14.6191 10.6227 14.6191 10.1809C14.6191 9.96108 14.5245 9.76334 14.3738 9.62616Z" fill="currentColor"/>
</svg>
