<svg width="513" height="513" viewBox="0 0 513 513" fill="none" xmlns="http://www.w3.org/2000/svg">
<path fill-rule="evenodd" clip-rule="evenodd" d="M124.96 39.6195C77.8255 39.6195 39.6156 77.8294 39.6156 124.964V387.536C39.6156 434.671 77.8255 472.881 124.96 472.881H387.532C434.667 472.881 472.877 434.671 472.877 387.536V124.964C472.877 77.8294 434.667 39.6195 387.532 39.6195H124.96ZM0.246094 124.964C0.246094 56.0862 56.0823 0.25 124.96 0.25H387.532C456.41 0.25 512.246 56.0862 512.246 124.964V387.536C512.246 456.414 456.41 512.25 387.532 512.25H124.96C56.0823 512.25 0.246094 456.414 0.246094 387.536V124.964Z"/>
<path fill-rule="evenodd" clip-rule="evenodd" d="M67.8574 262.419C67.8574 262.419 67.8574 262.419 67.8574 262.419L33.8501 296.426C26.1628 304.114 13.6991 304.114 6.01167 296.426C-1.67572 288.739 -1.67577 276.275 6.01157 268.588L40.0189 234.58C55.5827 219.017 76.6919 210.273 98.7026 210.273C120.713 210.273 141.822 219.017 157.386 234.58L270.165 347.36C277.853 355.047 277.853 367.511 270.165 375.198C262.478 382.886 250.014 382.886 242.327 375.198L129.548 262.419C121.367 254.238 110.272 249.642 98.7026 249.642C87.1333 249.642 76.038 254.238 67.8574 262.419Z"/>
<path fill-rule="evenodd" clip-rule="evenodd" d="M365.942 341.191C348.906 324.155 321.287 324.155 304.252 341.191L138.958 506.484C131.27 514.172 118.807 514.172 111.119 506.484C103.432 498.797 103.432 486.333 111.119 478.646L276.413 313.352C308.823 280.942 361.37 280.942 393.78 313.352L497.212 416.784C504.899 424.471 504.899 436.935 497.212 444.622C489.524 452.31 477.061 452.31 469.373 444.622L365.942 341.191Z"/>
</svg>
