<svg width="513" height="513" viewBox="0 0 513 513" xmlns="http://www.w3.org/2000/svg">
<path fill-rule="evenodd" clip-rule="evenodd" d="M151.715 40.1117C133.584 40.1117 118.885 54.8101 118.885 72.9414V204.228C118.885 215.099 110.072 223.912 99.2006 223.912C88.3291 223.912 79.5159 215.099 79.5159 204.228V72.9414C79.5159 33.0669 111.841 0.742188 151.715 0.742188H440.545C480.419 0.742188 512.744 33.0669 512.744 72.9414V440.543C512.744 480.417 480.419 512.742 440.545 512.742H335.516C324.644 512.742 315.831 503.929 315.831 493.057C315.831 482.186 324.644 473.373 335.516 473.373H440.545C458.676 473.373 473.375 458.674 473.375 440.543V72.9414C473.375 54.8101 458.676 40.1117 440.545 40.1117H151.715Z" fill="currentColor"/>
<path fill-rule="evenodd" clip-rule="evenodd" d="M184.545 125.456C184.545 114.584 193.358 105.771 204.23 105.771H388.03C398.902 105.771 407.715 114.584 407.715 125.456C407.715 136.328 398.902 145.141 388.03 145.141H204.23C193.358 145.141 184.545 136.328 184.545 125.456Z" fill="currentColor"/>
<path fill-rule="evenodd" clip-rule="evenodd" d="M237.059 230.485C237.059 219.613 245.873 210.8 256.744 210.8H388.03C398.902 210.8 407.715 219.613 407.715 230.485C407.715 241.357 398.902 250.17 388.03 250.17H256.744C245.873 250.17 237.059 241.357 237.059 230.485Z" fill="currentColor"/>
<path fill-rule="evenodd" clip-rule="evenodd" d="M315.831 335.514C315.831 324.642 324.644 315.829 335.516 315.829H388.03C398.902 315.829 407.715 324.642 407.715 335.514C407.715 346.386 398.902 355.199 388.03 355.199H335.516C324.644 355.199 315.831 346.386 315.831 335.514Z" fill="currentColor"/>
<path fill-rule="evenodd" clip-rule="evenodd" d="M40.1136 367.671V472.716H66.4135V367.671H40.1136ZM71.3942 477.896V472.723C71.4982 472.719 71.603 472.717 71.7084 472.719L71.6256 477.909L71.3942 477.896ZM71.3942 478.695V492.401L71.613 478.695H71.3942ZM71.2688 512.086H35.1067C25.9932 512.086 17.2529 508.465 10.8087 502.021C4.36447 495.577 0.744141 486.837 0.744141 477.723V362.664C0.744141 353.55 4.36447 344.81 10.8087 338.366C17.2529 331.922 25.9932 328.301 35.1067 328.301H71.7031C80.8866 328.446 89.6366 332.235 96.0276 338.831C102.375 345.382 105.878 354.171 105.783 363.287V478.695C105.783 479.051 105.773 479.407 105.754 479.762C104.762 498.04 89.5499 512.279 71.2688 512.086Z" fill="currentColor"/>
<path fill-rule="evenodd" clip-rule="evenodd" d="M151.364 310.193L102.858 389.383C97.1795 398.654 85.0608 401.566 75.7901 395.887C66.5194 390.209 63.6074 378.09 69.286 368.819L117.827 289.573C130.72 268.603 155.952 258.721 179.657 265.359C203.362 271.996 219.794 293.544 219.923 318.16L219.924 318.263L219.923 340.59H239.887C258.395 340.598 275.678 349.876 285.906 365.301C294.95 378.906 297.572 395.794 293.08 411.501L273.86 478.772C268.186 498.546 250.105 512.199 229.533 512.217H135.488C123.236 512.217 111.374 507.942 101.939 500.141L101.894 500.104L73.4839 476.472C65.1258 469.52 63.9861 457.109 70.9383 448.751C77.8905 440.393 90.302 439.253 98.6601 446.205L127.025 469.799C129.408 471.762 132.412 472.848 135.488 472.848L229.498 472.848C232.517 472.841 235.177 470.84 236.01 467.938L255.225 400.686C256.547 396.065 255.777 391.091 253.116 387.089L253.097 387.061C250.159 382.628 245.196 379.962 239.878 379.959H200.239C189.367 379.959 180.554 371.146 180.554 360.275V318.325C180.499 311.304 175.806 305.164 169.042 303.27C162.269 301.373 155.052 304.205 151.364 310.193Z" fill="currentColor"/>
<path fill-rule="evenodd" clip-rule="evenodd" d="M151.715 40.1117C133.584 40.1117 118.885 54.8101 118.885 72.9414V204.228C118.885 215.099 110.072 223.912 99.2006 223.912C88.3291 223.912 79.5159 215.099 79.5159 204.228V72.9414C79.5159 33.0669 111.841 0.742188 151.715 0.742188H440.545C480.419 0.742188 512.744 33.0669 512.744 72.9414V440.543C512.744 480.417 480.419 512.742 440.545 512.742H335.516C324.644 512.742 315.831 503.929 315.831 493.057C315.831 482.186 324.644 473.373 335.516 473.373H440.545C458.676 473.373 473.375 458.674 473.375 440.543V72.9414C473.375 54.8101 458.676 40.1117 440.545 40.1117H151.715Z" fill="currentColor"/>
<path fill-rule="evenodd" clip-rule="evenodd" d="M184.545 125.456C184.545 114.584 193.358 105.771 204.23 105.771H388.03C398.902 105.771 407.715 114.584 407.715 125.456C407.715 136.328 398.902 145.141 388.03 145.141H204.23C193.358 145.141 184.545 136.328 184.545 125.456Z" fill="currentColor"/>
<path fill-rule="evenodd" clip-rule="evenodd" d="M237.059 230.485C237.059 219.613 245.873 210.8 256.744 210.8H388.03C398.902 210.8 407.715 219.613 407.715 230.485C407.715 241.357 398.902 250.17 388.03 250.17H256.744C245.873 250.17 237.059 241.357 237.059 230.485Z" fill="currentColor"/>
<path fill-rule="evenodd" clip-rule="evenodd" d="M315.831 335.514C315.831 324.642 324.644 315.829 335.516 315.829H388.03C398.902 315.829 407.715 324.642 407.715 335.514C407.715 346.386 398.902 355.199 388.03 355.199H335.516C324.644 355.199 315.831 346.386 315.831 335.514Z" fill="currentColor"/>
<path fill-rule="evenodd" clip-rule="evenodd" d="M40.1136 367.671V472.716H66.4135V367.671H40.1136ZM71.3942 477.896V472.723C71.4982 472.719 71.603 472.717 71.7084 472.719L71.6256 477.909L71.3942 477.896ZM71.3942 478.695V492.401L71.613 478.695H71.3942ZM71.2688 512.086H35.1067C25.9932 512.086 17.2529 508.465 10.8087 502.021C4.36447 495.577 0.744141 486.837 0.744141 477.723V362.664C0.744141 353.55 4.36447 344.81 10.8087 338.366C17.2529 331.922 25.9932 328.301 35.1067 328.301H71.7031C80.8866 328.446 89.6366 332.235 96.0276 338.831C102.375 345.382 105.878 354.171 105.783 363.287V478.695C105.783 479.051 105.773 479.407 105.754 479.762C104.762 498.04 89.5499 512.279 71.2688 512.086Z" fill="currentColor"/>
<path fill-rule="evenodd" clip-rule="evenodd" d="M151.364 310.193L102.858 389.383C97.1795 398.654 85.0608 401.566 75.7901 395.887C66.5194 390.209 63.6074 378.09 69.286 368.819L117.827 289.573C130.72 268.603 155.952 258.721 179.657 265.359C203.362 271.996 219.794 293.544 219.923 318.16L219.924 318.263L219.923 340.59H239.887C258.395 340.598 275.678 349.876 285.906 365.301C294.95 378.906 297.572 395.794 293.08 411.501L273.86 478.772C268.186 498.546 250.105 512.199 229.533 512.217H135.488C123.236 512.217 111.374 507.942 101.939 500.141L101.894 500.104L73.4839 476.472C65.1258 469.52 63.9861 457.109 70.9383 448.751C77.8905 440.393 90.302 439.253 98.6601 446.205L127.025 469.799C129.408 471.762 132.412 472.848 135.488 472.848L229.498 472.848C232.517 472.841 235.177 470.84 236.01 467.938L255.225 400.686C256.547 396.065 255.777 391.091 253.116 387.089L253.097 387.061C250.159 382.628 245.196 379.962 239.878 379.959H200.239C189.367 379.959 180.554 371.146 180.554 360.275V318.325C180.499 311.304 175.806 305.164 169.042 303.27C162.269 301.373 155.052 304.205 151.364 310.193Z" fill="currentColor"/>
</svg>
