<svg width="24" height="24" viewBox="0 0 24 24" fill="none" xmlns="http://www.w3.org/2000/svg">
<path fill-rule="evenodd" clip-rule="evenodd" d="M8.97333 9.2134C9.26213 8.83244 9.71622 8.52999 10.278 8.52999H13.722C14.284 8.52999 14.7383 8.83221 15.0272 9.2136C15.3156 9.59436 15.472 10.0868 15.472 10.5991V13.4009C15.472 13.9136 15.3152 14.406 15.0267 14.7866C14.7379 15.1675 14.2838 15.47 13.722 15.47H10.278C9.71622 15.47 9.26213 15.1675 8.97333 14.7866C8.68483 14.406 8.528 13.9136 8.528 13.4009V10.5991C8.528 10.0864 8.68483 9.59396 8.97333 9.2134ZM13.722 10.03H10.278C10.278 10.03 10.278 10.03 10.278 10.03C10.277 10.03 10.2702 10.0298 10.2545 10.0386C10.236 10.0489 10.2045 10.0724 10.1687 10.1196C10.0952 10.2165 10.028 10.3837 10.028 10.5991V13.4009C10.028 13.6163 10.0952 13.7834 10.1687 13.8804C10.2045 13.9276 10.236 13.9511 10.2545 13.9614C10.2702 13.9702 10.2769 13.97 10.2779 13.97L13.722 13.97C13.723 13.97 13.7298 13.9702 13.7455 13.9614C13.764 13.9511 13.7955 13.9276 13.8313 13.8804C13.9048 13.7834 13.972 13.6163 13.972 13.4009V10.5991C13.972 10.3833 13.9049 10.2161 13.8316 10.1194C13.7959 10.0723 13.7644 10.0489 13.7461 10.0386C13.7304 10.0299 13.7234 10.03 13.722 10.03Z" fill="currentColor"/>
<path fill-rule="evenodd" clip-rule="evenodd" d="M16 2.25C16.4142 2.25 16.75 2.58579 16.75 3V5C16.75 5.41421 16.4142 5.75 16 5.75C15.5858 5.75 15.25 5.41421 15.25 5V3C15.25 2.58579 15.5858 2.25 16 2.25Z" fill="currentColor"/>
<path fill-rule="evenodd" clip-rule="evenodd" d="M12 2.25C12.4142 2.25 12.75 2.58579 12.75 3V5C12.75 5.41421 12.4142 5.75 12 5.75C11.5858 5.75 11.25 5.41421 11.25 5V3C11.25 2.58579 11.5858 2.25 12 2.25Z" fill="currentColor"/>
<path fill-rule="evenodd" clip-rule="evenodd" d="M8 2.25C8.41421 2.25 8.75 2.58579 8.75 3V5C8.75 5.41421 8.41421 5.75 8 5.75C7.58579 5.75 7.25 5.41421 7.25 5V3C7.25 2.58579 7.58579 2.25 8 2.25Z" fill="currentColor"/>
<path fill-rule="evenodd" clip-rule="evenodd" d="M16 18.25C16.4142 18.25 16.75 18.5858 16.75 19V21C16.75 21.4142 16.4142 21.75 16 21.75C15.5858 21.75 15.25 21.4142 15.25 21V19C15.25 18.5858 15.5858 18.25 16 18.25Z" fill="currentColor"/>
<path fill-rule="evenodd" clip-rule="evenodd" d="M12 18.25C12.4142 18.25 12.75 18.5858 12.75 19V21C12.75 21.4142 12.4142 21.75 12 21.75C11.5858 21.75 11.25 21.4142 11.25 21V19C11.25 18.5858 11.5858 18.25 12 18.25Z" fill="currentColor"/>
<path fill-rule="evenodd" clip-rule="evenodd" d="M8 18.25C8.41421 18.25 8.75 18.5858 8.75 19V21C8.75 21.4142 8.41421 21.75 8 21.75C7.58579 21.75 7.25 21.4142 7.25 21V19C7.25 18.5858 7.58579 18.25 8 18.25Z" fill="currentColor"/>
<path fill-rule="evenodd" clip-rule="evenodd" d="M18.25 16C18.25 15.5858 18.5858 15.25 19 15.25H21C21.4142 15.25 21.75 15.5858 21.75 16C21.75 16.4142 21.4142 16.75 21 16.75H19C18.5858 16.75 18.25 16.4142 18.25 16Z" fill="currentColor"/>
<path fill-rule="evenodd" clip-rule="evenodd" d="M18.25 12C18.25 11.5858 18.5858 11.25 19 11.25H21C21.4142 11.25 21.75 11.5858 21.75 12C21.75 12.4142 21.4142 12.75 21 12.75H19C18.5858 12.75 18.25 12.4142 18.25 12Z" fill="currentColor"/>
<path fill-rule="evenodd" clip-rule="evenodd" d="M18.25 8C18.25 7.58579 18.5858 7.25 19 7.25H21C21.4142 7.25 21.75 7.58579 21.75 8C21.75 8.41421 21.4142 8.75 21 8.75H19C18.5858 8.75 18.25 8.41421 18.25 8Z" fill="currentColor"/>
<path fill-rule="evenodd" clip-rule="evenodd" d="M2.25 16C2.25 15.5858 2.58579 15.25 3 15.25H5C5.41421 15.25 5.75 15.5858 5.75 16C5.75 16.4142 5.41421 16.75 5 16.75H3C2.58579 16.75 2.25 16.4142 2.25 16Z" fill="currentColor"/>
<path fill-rule="evenodd" clip-rule="evenodd" d="M2.25 12C2.25 11.5858 2.58579 11.25 3 11.25H5C5.41421 11.25 5.75 11.5858 5.75 12C5.75 12.4142 5.41421 12.75 5 12.75H3C2.58579 12.75 2.25 12.4142 2.25 12Z" fill="currentColor"/>
<path fill-rule="evenodd" clip-rule="evenodd" d="M2.25 8C2.25 7.58579 2.58579 7.25 3 7.25H5C5.41421 7.25 5.75 7.58579 5.75 8C5.75 8.41421 5.41421 8.75 5 8.75H3C2.58579 8.75 2.25 8.41421 2.25 8Z" fill="currentColor"/>
<path fill-rule="evenodd" clip-rule="evenodd" d="M7 5.75C6.30921 5.75 5.75 6.30921 5.75 7V17C5.75 17.6908 6.30921 18.25 7 18.25H17C17.6908 18.25 18.25 17.6908 18.25 17V7C18.25 6.30921 17.6908 5.75 17 5.75H7ZM4.25 7C4.25 5.48079 5.48079 4.25 7 4.25H17C18.5192 4.25 19.75 5.48079 19.75 7V17C19.75 18.5192 18.5192 19.75 17 19.75H7C5.48079 19.75 4.25 18.5192 4.25 17V7Z" fill="currentColor"/>
<path fill-rule="evenodd" clip-rule="evenodd" d="M8.97333 9.2134C9.26213 8.83244 9.71622 8.52999 10.278 8.52999H13.722C14.284 8.52999 14.7383 8.83221 15.0272 9.2136C15.3156 9.59436 15.472 10.0868 15.472 10.5991V13.4009C15.472 13.9136 15.3152 14.406 15.0267 14.7866C14.7379 15.1675 14.2838 15.47 13.722 15.47H10.278C9.71622 15.47 9.26213 15.1675 8.97333 14.7866C8.68483 14.406 8.528 13.9136 8.528 13.4009V10.5991C8.528 10.0864 8.68483 9.59396 8.97333 9.2134ZM13.722 10.03H10.278C10.278 10.03 10.278 10.03 10.278 10.03C10.277 10.03 10.2702 10.0298 10.2545 10.0386C10.236 10.0489 10.2045 10.0724 10.1687 10.1196C10.0952 10.2165 10.028 10.3837 10.028 10.5991V13.4009C10.028 13.6163 10.0952 13.7834 10.1687 13.8804C10.2045 13.9276 10.236 13.9511 10.2545 13.9614C10.2702 13.9702 10.2769 13.97 10.2779 13.97L13.722 13.97C13.723 13.97 13.7298 13.9702 13.7455 13.9614C13.764 13.9511 13.7955 13.9276 13.8313 13.8804C13.9048 13.7834 13.972 13.6163 13.972 13.4009V10.5991C13.972 10.3833 13.9049 10.2161 13.8316 10.1194C13.7959 10.0723 13.7644 10.0489 13.7461 10.0386C13.7304 10.0299 13.7234 10.03 13.722 10.03Z" fill="currentColor"/>
<path fill-rule="evenodd" clip-rule="evenodd" d="M16 2.25C16.4142 2.25 16.75 2.58579 16.75 3V5C16.75 5.41421 16.4142 5.75 16 5.75C15.5858 5.75 15.25 5.41421 15.25 5V3C15.25 2.58579 15.5858 2.25 16 2.25Z" fill="currentColor"/>
<path fill-rule="evenodd" clip-rule="evenodd" d="M12 2.25C12.4142 2.25 12.75 2.58579 12.75 3V5C12.75 5.41421 12.4142 5.75 12 5.75C11.5858 5.75 11.25 5.41421 11.25 5V3C11.25 2.58579 11.5858 2.25 12 2.25Z" fill="currentColor"/>
<path fill-rule="evenodd" clip-rule="evenodd" d="M8 2.25C8.41421 2.25 8.75 2.58579 8.75 3V5C8.75 5.41421 8.41421 5.75 8 5.75C7.58579 5.75 7.25 5.41421 7.25 5V3C7.25 2.58579 7.58579 2.25 8 2.25Z" fill="currentColor"/>
<path fill-rule="evenodd" clip-rule="evenodd" d="M16 18.25C16.4142 18.25 16.75 18.5858 16.75 19V21C16.75 21.4142 16.4142 21.75 16 21.75C15.5858 21.75 15.25 21.4142 15.25 21V19C15.25 18.5858 15.5858 18.25 16 18.25Z" fill="currentColor"/>
<path fill-rule="evenodd" clip-rule="evenodd" d="M12 18.25C12.4142 18.25 12.75 18.5858 12.75 19V21C12.75 21.4142 12.4142 21.75 12 21.75C11.5858 21.75 11.25 21.4142 11.25 21V19C11.25 18.5858 11.5858 18.25 12 18.25Z" fill="currentColor"/>
<path fill-rule="evenodd" clip-rule="evenodd" d="M8 18.25C8.41421 18.25 8.75 18.5858 8.75 19V21C8.75 21.4142 8.41421 21.75 8 21.75C7.58579 21.75 7.25 21.4142 7.25 21V19C7.25 18.5858 7.58579 18.25 8 18.25Z" fill="currentColor"/>
<path fill-rule="evenodd" clip-rule="evenodd" d="M18.25 16C18.25 15.5858 18.5858 15.25 19 15.25H21C21.4142 15.25 21.75 15.5858 21.75 16C21.75 16.4142 21.4142 16.75 21 16.75H19C18.5858 16.75 18.25 16.4142 18.25 16Z" fill="currentColor"/>
<path fill-rule="evenodd" clip-rule="evenodd" d="M18.25 12C18.25 11.5858 18.5858 11.25 19 11.25H21C21.4142 11.25 21.75 11.5858 21.75 12C21.75 12.4142 21.4142 12.75 21 12.75H19C18.5858 12.75 18.25 12.4142 18.25 12Z" fill="currentColor"/>
<path fill-rule="evenodd" clip-rule="evenodd" d="M18.25 8C18.25 7.58579 18.5858 7.25 19 7.25H21C21.4142 7.25 21.75 7.58579 21.75 8C21.75 8.41421 21.4142 8.75 21 8.75H19C18.5858 8.75 18.25 8.41421 18.25 8Z" fill="currentColor"/>
<path fill-rule="evenodd" clip-rule="evenodd" d="M2.25 16C2.25 15.5858 2.58579 15.25 3 15.25H5C5.41421 15.25 5.75 15.5858 5.75 16C5.75 16.4142 5.41421 16.75 5 16.75H3C2.58579 16.75 2.25 16.4142 2.25 16Z" fill="currentColor"/>
<path fill-rule="evenodd" clip-rule="evenodd" d="M2.25 12C2.25 11.5858 2.58579 11.25 3 11.25H5C5.41421 11.25 5.75 11.5858 5.75 12C5.75 12.4142 5.41421 12.75 5 12.75H3C2.58579 12.75 2.25 12.4142 2.25 12Z" fill="currentColor"/>
<path fill-rule="evenodd" clip-rule="evenodd" d="M2.25 8C2.25 7.58579 2.58579 7.25 3 7.25H5C5.41421 7.25 5.75 7.58579 5.75 8C5.75 8.41421 5.41421 8.75 5 8.75H3C2.58579 8.75 2.25 8.41421 2.25 8Z" fill="currentColor"/>
<path fill-rule="evenodd" clip-rule="evenodd" d="M7 5.75C6.30921 5.75 5.75 6.30921 5.75 7V17C5.75 17.6908 6.30921 18.25 7 18.25H17C17.6908 18.25 18.25 17.6908 18.25 17V7C18.25 6.30921 17.6908 5.75 17 5.75H7ZM4.25 7C4.25 5.48079 5.48079 4.25 7 4.25H17C18.5192 4.25 19.75 5.48079 19.75 7V17C19.75 18.5192 18.5192 19.75 17 19.75H7C5.48079 19.75 4.25 18.5192 4.25 17V7Z" fill="currentColor"/>
</svg>
