<svg width="835" height="512" viewBox="0 0 835 512" xmlns="http://www.w3.org/2000/svg">
    <path fill-rule="evenodd" clip-rule="evenodd" d="M10.1821 280.582C-3.39404 267.006 -3.39404 244.994 10.1821 231.418L231.418 10.1821C244.994 -3.39403 267.006 -3.39403 280.582 10.1821C294.158 23.7583 294.158 45.7695 280.582 59.3457L118.691 221.236H715.642L553.752 59.3457C540.176 45.7695 540.176 23.7583 553.752 10.1821C567.328 -3.39403 589.339 -3.39403 602.915 10.1821L824.152 231.418C837.728 244.994 837.728 267.006 824.152 280.582L602.915 501.818C589.339 515.394 567.328 515.394 553.752 501.818C540.176 488.242 540.176 466.23 553.752 452.654L715.642 290.764H118.691L280.582 452.654C294.158 466.23 294.158 488.242 280.582 501.818C267.006 515.394 244.994 515.394 231.418 501.818L10.1821 280.582Z"/>
</svg>
