<svg width="24" height="24" viewBox="0 0 24 24" fill="none" xmlns="http://www.w3.org/2000/svg">
<path fill-rule="evenodd" clip-rule="evenodd" d="M15.4028 2.25201C18.3462 2.06036 20.988 4.04803 21.6194 6.9293C21.9868 8.60677 21.6143 10.3613 20.5969 11.7447C19.5795 13.1281 18.0157 14.0065 16.305 14.1556L16.2858 14.1571C15.7815 14.188 15.2891 13.9966 14.9381 13.6336L10.3672 9.06267C10.0043 8.71133 9.81295 8.21869 9.84391 7.71417L9.84525 7.69593C10.0977 4.75712 12.4594 2.44366 15.4028 2.25201ZM20.1542 7.25037C19.6815 5.09338 17.7038 3.60537 15.5003 3.74884C13.3008 3.89205 11.5351 5.61795 11.3408 7.81233C11.3386 7.87746 11.3642 7.94058 11.4114 7.98579L11.423 7.9971L16.0039 12.578L16.0156 12.59C16.0604 12.6368 16.1228 12.6623 16.1873 12.6602C17.4634 12.5453 18.6292 11.8885 19.3885 10.856C20.1503 9.82015 20.4293 8.50644 20.1542 7.25037Z" fill="currentColor"/>
<path fill-rule="evenodd" clip-rule="evenodd" d="M11.3299 7.91715C11.6603 8.16694 11.7257 8.6373 11.4759 8.96772L4.96126 17.5852C4.96123 17.5852 4.96128 17.5852 4.96126 17.5852C4.82899 17.7603 4.84574 18.0062 5.0006 18.1617C5.00051 18.1616 5.00069 18.1617 5.0006 18.1617L5.83975 18.9998C5.99519 19.1547 6.24079 19.1719 6.4163 19.0403C6.41609 19.0405 6.4165 19.0402 6.4163 19.0403L15.0332 12.5251C15.3636 12.2753 15.834 12.3406 16.0838 12.671C16.3336 13.0014 16.2683 13.4718 15.9379 13.7216L7.32028 20.2373L7.31898 20.2383C6.547 20.8194 5.46522 20.7443 4.78086 20.0622L3.93904 19.2214C3.25562 18.5365 3.18119 17.4528 3.76455 16.6808L10.2793 8.06314C10.5291 7.73272 10.9995 7.66736 11.3299 7.91715Z" fill="currentColor"/>
<path fill-rule="evenodd" clip-rule="evenodd" d="M5.41946 18.5805C5.71235 18.8734 5.71235 19.3483 5.41946 19.6412L3.52667 21.534C3.23377 21.8269 2.7589 21.8269 2.46601 21.534C2.17311 21.2411 2.17311 20.7662 2.46601 20.4733L4.3588 18.5805C4.65169 18.2876 5.12656 18.2876 5.41946 18.5805Z" fill="currentColor"/>
<path fill-rule="evenodd" clip-rule="evenodd" d="M15.4028 2.25201C18.3462 2.06036 20.988 4.04803 21.6194 6.9293C21.9868 8.60677 21.6143 10.3613 20.5969 11.7447C19.5795 13.1281 18.0157 14.0065 16.305 14.1556L16.2858 14.1571C15.7815 14.188 15.2891 13.9966 14.9381 13.6336L10.3672 9.06267C10.0043 8.71133 9.81295 8.21869 9.84391 7.71417L9.84525 7.69593C10.0977 4.75712 12.4594 2.44366 15.4028 2.25201ZM20.1542 7.25037C19.6815 5.09338 17.7038 3.60537 15.5003 3.74884C13.3008 3.89205 11.5351 5.61795 11.3408 7.81233C11.3386 7.87746 11.3642 7.94058 11.4114 7.98579L11.423 7.9971L16.0039 12.578L16.0156 12.59C16.0604 12.6368 16.1228 12.6623 16.1873 12.6602C17.4634 12.5453 18.6292 11.8885 19.3885 10.856C20.1503 9.82015 20.4293 8.50644 20.1542 7.25037Z" fill="currentColor"/>
<path fill-rule="evenodd" clip-rule="evenodd" d="M11.3299 7.91715C11.6603 8.16694 11.7257 8.6373 11.4759 8.96772L4.96126 17.5852C4.96123 17.5852 4.96128 17.5852 4.96126 17.5852C4.82899 17.7603 4.84574 18.0062 5.0006 18.1617C5.00051 18.1616 5.00069 18.1617 5.0006 18.1617L5.83975 18.9998C5.99519 19.1547 6.24079 19.1719 6.4163 19.0403C6.41609 19.0405 6.4165 19.0402 6.4163 19.0403L15.0332 12.5251C15.3636 12.2753 15.834 12.3406 16.0838 12.671C16.3336 13.0014 16.2683 13.4718 15.9379 13.7216L7.32028 20.2373L7.31898 20.2383C6.547 20.8194 5.46522 20.7443 4.78086 20.0622L3.93904 19.2214C3.25562 18.5365 3.18119 17.4528 3.76455 16.6808L10.2793 8.06314C10.5291 7.73272 10.9995 7.66736 11.3299 7.91715Z" fill="currentColor"/>
<path fill-rule="evenodd" clip-rule="evenodd" d="M5.41946 18.5805C5.71235 18.8734 5.71235 19.3483 5.41946 19.6412L3.52667 21.534C3.23377 21.8269 2.7589 21.8269 2.46601 21.534C2.17311 21.2411 2.17311 20.7662 2.46601 20.4733L4.3588 18.5805C4.65169 18.2876 5.12656 18.2876 5.41946 18.5805Z" fill="currentColor"/>
</svg>
