<svg width="24" height="24" viewBox="0 0 24 24" fill="none" xmlns="http://www.w3.org/2000/svg">
<path fill-rule="evenodd" clip-rule="evenodd" d="M4.00293 3.75C3.31214 3.75 2.75293 4.30921 2.75293 5V19C2.75293 19.6908 3.31214 20.25 4.00293 20.25H19.9969C20.687 20.25 21.2469 19.6905 21.2469 19V5C21.2469 4.30921 20.6877 3.75 19.9969 3.75H4.00293ZM1.25293 5C1.25293 3.48079 2.48372 2.25 4.00293 2.25H19.9969C21.5161 2.25 22.7469 3.48079 22.7469 5V19C22.7469 20.5195 21.5149 21.75 19.9969 21.75H4.00293C2.48372 21.75 1.25293 20.5192 1.25293 19V5Z" fill="currentColor"/>
<path fill-rule="evenodd" clip-rule="evenodd" d="M8.88389 8.11612C8.39573 7.62796 7.60427 7.62796 7.11612 8.11612C6.62796 8.60427 6.62796 9.39573 7.11612 9.88389C7.60427 10.372 8.39573 10.372 8.88389 9.88389C9.37204 9.39573 9.37204 8.60427 8.88389 8.11612ZM9.94369 7.0546C8.86968 5.98151 7.12911 5.9818 6.05546 7.05546C4.98151 8.1294 4.98151 9.8706 6.05546 10.9445C7.1294 12.0185 8.8706 12.0185 9.94455 10.9445C11.0185 9.8706 11.0185 8.1294 9.94455 7.05546C9.94426 7.05517 9.94397 7.05488 9.94369 7.0546Z" fill="currentColor"/>
<path fill-rule="evenodd" clip-rule="evenodd" d="M15.7895 12.3123C16.3932 11.5581 17.4951 11.4355 18.2497 12.0395L22.4685 15.4143C22.792 15.6731 22.8444 16.1451 22.5857 16.4685C22.3269 16.792 21.855 16.8444 21.5315 16.5857L17.3125 13.2107C17.2051 13.1247 17.047 13.1419 16.9607 13.2495M16.9607 13.2495L13.6247 17.4195C13.0207 18.174 11.92 18.296 11.165 17.6931L9.2965 16.1977C9.29646 16.1976 9.29654 16.1977 9.2965 16.1977C9.19019 16.1127 9.03567 16.1281 8.9483 16.233L4.57621 21.4801C4.31106 21.7983 3.83814 21.8414 3.51991 21.5762C3.20169 21.311 3.15867 20.8381 3.42383 20.5199L7.79574 15.273C8.40634 14.5399 9.48985 14.4314 10.2335 15.0264L12.101 16.521C12.101 16.5209 12.1011 16.521 12.101 16.521C12.21 16.6078 12.3675 16.5898 12.4535 16.4823L15.7895 12.3123" fill="currentColor"/>
</svg>
