<svg width="24" height="24" viewBox="0 0 24 24" fill="none" xmlns="http://www.w3.org/2000/svg">
<path fill-rule="evenodd" clip-rule="evenodd" d="M9.18626 3.74609C8.97889 3.74609 8.81079 3.9142 8.81079 4.12156V5.62249H15.1891V4.12156C15.1891 3.9142 15.021 3.74609 14.8136 3.74609H9.18626ZM16.6891 5.62249V4.12156C16.6891 3.08577 15.8494 2.24609 14.8136 2.24609H9.18626C8.15047 2.24609 7.31079 3.08577 7.31079 4.12156V5.62249H3.99658C3.58237 5.62249 3.24658 5.95828 3.24658 6.37249C3.24658 6.78671 3.58237 7.12249 3.99658 7.12249H4.55255L5.46488 18.9828C5.58515 20.5463 6.88888 21.7536 8.45698 21.7536H15.5428C17.1109 21.7536 18.4146 20.5463 18.5349 18.9828L19.4472 7.12249H20.0032C20.4175 7.12249 20.7532 6.78671 20.7532 6.37249C20.7532 5.95828 20.4175 5.62249 20.0032 5.62249H16.6891ZM15.941 7.1225C15.9415 7.1225 15.942 7.12249 15.9425 7.12249H17.9428L17.0393 18.8678C16.9791 19.6498 16.3271 20.2536 15.5428 20.2536H8.45698C7.67269 20.2536 7.02062 19.6498 6.96046 18.8678L6.05698 7.1225H8.05888C8.05952 7.1225 8.06015 7.1225 8.06079 7.1225H15.9391C15.9397 7.1225 15.9403 7.1225 15.941 7.1225ZM10.0305 10.1244C10.4447 10.1244 10.7805 10.4602 10.7805 10.8744V16.5017C10.7805 16.9159 10.4447 17.2517 10.0305 17.2517C9.61627 17.2517 9.28048 16.9159 9.28048 16.5017V10.8744C9.28048 10.4602 9.61627 10.1244 10.0305 10.1244ZM13.2197 16.5017V10.8744C13.2197 10.4602 13.5555 10.1244 13.9697 10.1244C14.3839 10.1244 14.7197 10.4602 14.7197 10.8744V16.5017C14.7197 16.9159 14.3839 17.2517 13.9697 17.2517C13.5555 17.2517 13.2197 16.9159 13.2197 16.5017Z" fill="currentColor"/>
</svg>
