<svg width="24" height="24" viewBox="0 0 24 24" fill="none" xmlns="http://www.w3.org/2000/svg">
<path fill-rule="evenodd" clip-rule="evenodd" d="M6.57583 10.4294C6.57583 10.0152 6.91162 9.6794 7.32583 9.6794H16.6732C17.0875 9.6794 17.4232 10.0152 17.4232 10.4294C17.4232 10.8436 17.0875 11.1794 16.6732 11.1794H7.32583C6.91162 11.1794 6.57583 10.8436 6.57583 10.4294Z" fill="currentColor"/>
<path fill-rule="evenodd" clip-rule="evenodd" d="M12 6.576C12.4142 6.576 12.75 6.91179 12.75 7.326V16.6734C12.75 17.0876 12.4142 17.4234 12 17.4234C11.5858 17.4234 11.25 17.0876 11.25 16.6734V7.326C11.25 6.91179 11.5858 6.576 12 6.576Z" fill="currentColor"/>
<path fill-rule="evenodd" clip-rule="evenodd" d="M3.79534 3.79449C4.08824 3.5016 4.56311 3.5016 4.856 3.79449L7.80046 6.73895C8.09336 7.03184 8.09336 7.50671 7.80046 7.79961C7.50757 8.0925 7.0327 8.0925 6.7398 7.79961L3.79534 4.85515C3.50245 4.56226 3.50245 4.08738 3.79534 3.79449Z" fill="currentColor"/>
<path fill-rule="evenodd" clip-rule="evenodd" d="M20.2042 20.4266C19.9113 20.7195 19.4365 20.7195 19.1436 20.4266L16.1991 17.4822C15.9062 17.1893 15.9062 16.7144 16.1991 16.4215C16.492 16.1286 16.9669 16.1286 17.2598 16.4215L20.2042 19.3659C20.4971 19.6588 20.4971 20.1337 20.2042 20.4266Z" fill="currentColor"/>
<path fill-rule="evenodd" clip-rule="evenodd" d="M20.2042 3.79449C19.9113 3.5016 19.4365 3.5016 19.1436 3.79449L16.1991 6.73895C15.9062 7.03184 15.9062 7.50671 16.1991 7.79961C16.492 8.0925 16.9669 8.0925 17.2598 7.79961L20.2042 4.85515C20.4971 4.56226 20.4971 4.08738 20.2042 3.79449Z" fill="currentColor"/>
<path fill-rule="evenodd" clip-rule="evenodd" d="M3.79534 20.4266C4.08824 20.7195 4.56311 20.7195 4.856 20.4266L7.80046 17.4822C8.09336 17.1893 8.09336 16.7144 7.80046 16.4215C7.50757 16.1286 7.0327 16.1286 6.7398 16.4215L3.79534 19.3659C3.50245 19.6588 3.50245 20.1337 3.79534 20.4266Z" fill="currentColor"/>
<path fill-rule="evenodd" clip-rule="evenodd" d="M6.57583 13.5703C6.57583 13.1561 6.91162 12.8203 7.32583 12.8203H16.6732C17.0875 12.8203 17.4232 13.1561 17.4232 13.5703C17.4232 13.9845 17.0875 14.3203 16.6732 14.3203H7.32583C6.91162 14.3203 6.57583 13.9845 6.57583 13.5703Z" fill="currentColor"/>
<path fill-rule="evenodd" clip-rule="evenodd" d="M2.24646 5.99609C2.24646 3.92502 3.92539 2.24609 5.99646 2.24609H18.004C20.075 2.24609 21.754 3.92503 21.754 5.99609V18.0036C21.754 20.0747 20.075 21.7536 18.004 21.7536H5.99646C3.92539 21.7536 2.24646 20.0747 2.24646 18.0036V5.99609ZM5.99646 3.74609C4.75382 3.74609 3.74646 4.75345 3.74646 5.99609V18.0036C3.74646 19.2462 4.75382 20.2536 5.99646 20.2536H18.004C19.2466 20.2536 20.254 19.2462 20.254 18.0036V5.99609C20.254 4.75345 19.2466 3.74609 18.004 3.74609H5.99646Z" fill="currentColor"/>
<path fill-rule="evenodd" clip-rule="evenodd" d="M6.25016 7.99979C6.25016 7.03329 7.03366 6.24979 8.00016 6.24979H16.0002C16.9667 6.24979 17.7502 7.03329 17.7502 7.99979V15.9998C17.7502 16.9663 16.9667 17.7498 16.0002 17.7498H8.00016C7.03366 17.7498 6.25016 16.9663 6.25016 15.9998V7.99979ZM8.00016 7.74979C7.86209 7.74979 7.75016 7.86172 7.75016 7.99979V15.9998C7.75016 16.1379 7.86209 16.2498 8.00016 16.2498H16.0002C16.1382 16.2498 16.2502 16.1379 16.2502 15.9998V7.99979C16.2502 7.86172 16.1382 7.74979 16.0002 7.74979H8.00016Z" fill="currentColor"/>
<path fill-rule="evenodd" clip-rule="evenodd" d="M6.57583 10.4294C6.57583 10.0152 6.91162 9.6794 7.32583 9.6794H16.6732C17.0875 9.6794 17.4232 10.0152 17.4232 10.4294C17.4232 10.8436 17.0875 11.1794 16.6732 11.1794H7.32583C6.91162 11.1794 6.57583 10.8436 6.57583 10.4294Z" fill="currentColor"/>
<path fill-rule="evenodd" clip-rule="evenodd" d="M12 6.576C12.4142 6.576 12.75 6.91179 12.75 7.326V16.6734C12.75 17.0876 12.4142 17.4234 12 17.4234C11.5858 17.4234 11.25 17.0876 11.25 16.6734V7.326C11.25 6.91179 11.5858 6.576 12 6.576Z" fill="currentColor"/>
<path fill-rule="evenodd" clip-rule="evenodd" d="M3.79534 3.79449C4.08824 3.5016 4.56311 3.5016 4.856 3.79449L7.80046 6.73895C8.09336 7.03184 8.09336 7.50671 7.80046 7.79961C7.50757 8.0925 7.0327 8.0925 6.7398 7.79961L3.79534 4.85515C3.50245 4.56226 3.50245 4.08738 3.79534 3.79449Z" fill="currentColor"/>
<path fill-rule="evenodd" clip-rule="evenodd" d="M20.2042 20.4266C19.9113 20.7195 19.4365 20.7195 19.1436 20.4266L16.1991 17.4822C15.9062 17.1893 15.9062 16.7144 16.1991 16.4215C16.492 16.1286 16.9669 16.1286 17.2598 16.4215L20.2042 19.3659C20.4971 19.6588 20.4971 20.1337 20.2042 20.4266Z" fill="currentColor"/>
<path fill-rule="evenodd" clip-rule="evenodd" d="M20.2042 3.79449C19.9113 3.5016 19.4365 3.5016 19.1436 3.79449L16.1991 6.73895C15.9062 7.03184 15.9062 7.50671 16.1991 7.79961C16.492 8.0925 16.9669 8.0925 17.2598 7.79961L20.2042 4.85515C20.4971 4.56226 20.4971 4.08738 20.2042 3.79449Z" fill="currentColor"/>
<path fill-rule="evenodd" clip-rule="evenodd" d="M3.79534 20.4266C4.08824 20.7195 4.56311 20.7195 4.856 20.4266L7.80046 17.4822C8.09336 17.1893 8.09336 16.7144 7.80046 16.4215C7.50757 16.1286 7.0327 16.1286 6.7398 16.4215L3.79534 19.3659C3.50245 19.6588 3.50245 20.1337 3.79534 20.4266Z" fill="currentColor"/>
<path fill-rule="evenodd" clip-rule="evenodd" d="M6.57583 13.5703C6.57583 13.1561 6.91162 12.8203 7.32583 12.8203H16.6732C17.0875 12.8203 17.4232 13.1561 17.4232 13.5703C17.4232 13.9845 17.0875 14.3203 16.6732 14.3203H7.32583C6.91162 14.3203 6.57583 13.9845 6.57583 13.5703Z" fill="currentColor"/>
<path fill-rule="evenodd" clip-rule="evenodd" d="M2.24646 5.99609C2.24646 3.92502 3.92539 2.24609 5.99646 2.24609H18.004C20.075 2.24609 21.754 3.92503 21.754 5.99609V18.0036C21.754 20.0747 20.075 21.7536 18.004 21.7536H5.99646C3.92539 21.7536 2.24646 20.0747 2.24646 18.0036V5.99609ZM5.99646 3.74609C4.75382 3.74609 3.74646 4.75345 3.74646 5.99609V18.0036C3.74646 19.2462 4.75382 20.2536 5.99646 20.2536H18.004C19.2466 20.2536 20.254 19.2462 20.254 18.0036V5.99609C20.254 4.75345 19.2466 3.74609 18.004 3.74609H5.99646Z" fill="currentColor"/>
<path fill-rule="evenodd" clip-rule="evenodd" d="M6.25016 7.99979C6.25016 7.03329 7.03366 6.24979 8.00016 6.24979H16.0002C16.9667 6.24979 17.7502 7.03329 17.7502 7.99979V15.9998C17.7502 16.9663 16.9667 17.7498 16.0002 17.7498H8.00016C7.03366 17.7498 6.25016 16.9663 6.25016 15.9998V7.99979ZM8.00016 7.74979C7.86209 7.74979 7.75016 7.86172 7.75016 7.99979V15.9998C7.75016 16.1379 7.86209 16.2498 8.00016 16.2498H16.0002C16.1382 16.2498 16.2502 16.1379 16.2502 15.9998V7.99979C16.2502 7.86172 16.1382 7.74979 16.0002 7.74979H8.00016Z" fill="currentColor"/>
</svg>
