<svg width="24" height="24" viewBox="0 0 24 24" fill="none" xmlns="http://www.w3.org/2000/svg">
<path fill-rule="evenodd" clip-rule="evenodd" d="M3.99665 10.2494C4.41087 10.2494 4.74665 10.5852 4.74665 10.9994V21.0036C4.74665 21.4178 4.41087 21.7536 3.99665 21.7536C3.58244 21.7536 3.24665 21.4178 3.24665 21.0036V10.9994C3.24665 10.5852 3.58244 10.2494 3.99665 10.2494Z" fill="currentColor"/>
<path fill-rule="evenodd" clip-rule="evenodd" d="M9.99915 3.74609C9.30834 3.74609 8.74832 4.30611 8.74832 4.99693V10.2494H15.2517V4.99693C15.2517 4.30611 14.6916 3.74609 14.0008 3.74609H9.99915ZM7.24832 4.99693C7.24832 3.47768 8.47991 2.24609 9.99915 2.24609H14.0008C15.5201 2.24609 16.7517 3.47768 16.7517 4.99693V10.9994C16.7517 11.4136 16.4159 11.7494 16.0017 11.7494H7.99832C7.58411 11.7494 7.24832 11.4136 7.24832 10.9994V4.99693Z" fill="currentColor"/>
<path fill-rule="evenodd" clip-rule="evenodd" d="M7.99832 14.7507C7.86002 14.7507 7.7479 14.8628 7.7479 15.0011V15.5013C7.7479 15.9159 8.08397 16.2519 8.49853 16.2519H15.5014C15.916 16.2519 16.2521 15.9159 16.2521 15.5013V15.0011C16.2521 14.8628 16.14 14.7507 16.0017 14.7507H7.99832ZM6.2479 15.0011C6.2479 14.0344 7.03159 13.2507 7.99832 13.2507H16.0017C16.9684 13.2507 17.7521 14.0344 17.7521 15.0011V15.5013C17.7521 16.7443 16.7444 17.7519 15.5014 17.7519H8.49853C7.25554 17.7519 6.2479 16.7443 6.2479 15.5013V15.0011Z" fill="currentColor"/>
<path fill-rule="evenodd" clip-rule="evenodd" d="M12 16.2519C12.4142 16.2519 12.75 16.5877 12.75 17.0019V21.0036C12.75 21.4178 12.4142 21.7536 12 21.7536C11.5858 21.7536 11.25 21.4178 11.25 21.0036V17.0019C11.25 16.5877 11.5858 16.2519 12 16.2519Z" fill="currentColor"/>
<path fill-rule="evenodd" clip-rule="evenodd" d="M8.24874 21.0035C8.24874 20.5893 8.58452 20.2535 8.99874 20.2535H15.0012C15.4154 20.2535 15.7512 20.5893 15.7512 21.0035C15.7512 21.4178 15.4154 21.7535 15.0012 21.7535H8.99874C8.58452 21.7535 8.24874 21.4178 8.24874 21.0035Z" fill="currentColor"/>
<path fill-rule="evenodd" clip-rule="evenodd" d="M1.24582 10.9994C1.24582 10.5852 1.58161 10.2494 1.99582 10.2494H22.0042C22.4184 10.2494 22.7542 10.5852 22.7542 10.9994C22.7542 11.4136 22.4184 11.7494 22.0042 11.7494H1.99582C1.58161 11.7494 1.24582 11.4136 1.24582 10.9994Z" fill="currentColor"/>
<path fill-rule="evenodd" clip-rule="evenodd" d="M20.0033 10.2494C20.4175 10.2494 20.7533 10.5852 20.7533 10.9994V21.0036C20.7533 21.4178 20.4175 21.7536 20.0033 21.7536C19.5891 21.7536 19.2533 21.4178 19.2533 21.0036V10.9994C19.2533 10.5852 19.5891 10.2494 20.0033 10.2494Z" fill="currentColor"/>
</svg>
