<svg width="24" height="24" viewBox="0 0 24 24" fill="none" xmlns="http://www.w3.org/2000/svg">
<path fill-rule="evenodd" clip-rule="evenodd" d="M11.0585 4.74707C7.57253 4.74707 4.74658 7.57302 4.74658 11.059C4.74658 14.545 7.57253 17.371 11.0585 17.371C14.5445 17.371 17.3705 14.545 17.3705 11.059C17.3705 7.57302 14.5445 4.74707 11.0585 4.74707ZM3.24658 11.059C3.24658 6.7446 6.74411 3.24707 11.0585 3.24707C15.3729 3.24707 18.8705 6.7446 18.8705 11.059C18.8705 15.3734 15.3729 18.871 11.0585 18.871C6.74411 18.871 3.24658 15.3734 3.24658 11.059Z" fill="currentColor"/>
<path fill-rule="evenodd" clip-rule="evenodd" d="M15.5214 15.5218C15.8143 15.2289 16.2892 15.2289 16.5821 15.5218L20.5337 19.4734C20.8266 19.7663 20.8266 20.2412 20.5337 20.5341C20.2408 20.827 19.766 20.827 19.4731 20.5341L15.5214 16.5824C15.2285 16.2895 15.2285 15.8147 15.5214 15.5218Z" fill="currentColor"/>
</svg>
