<svg width="24" height="24" viewBox="0 0 24 24" fill="none" xmlns="http://www.w3.org/2000/svg">
<path fill-rule="evenodd" clip-rule="evenodd" d="M5 13.2505C5.41421 13.2505 5.75 13.5863 5.75 14.0005C5.75 17.4523 8.54821 20.2505 12 20.2505C15.4518 20.2505 18.25 17.4523 18.25 14.0005C18.25 13.5863 18.5858 13.2505 19 13.2505C19.4142 13.2505 19.75 13.5863 19.75 14.0005C19.75 18.2807 16.2802 21.7505 12 21.7505C7.71979 21.7505 4.25 18.2807 4.25 14.0005C4.25 13.5863 4.58579 13.2505 5 13.2505Z" fill="currentColor"/>
<path fill-rule="evenodd" clip-rule="evenodd" d="M4.25 14.0005C4.25 13.5863 4.58579 13.2505 5 13.2505C8.08812 13.2505 10.7544 15.0567 12 17.6703C13.2456 15.0567 15.9119 13.2505 19 13.2505C19.4142 13.2505 19.75 13.5863 19.75 14.0005C19.75 14.4147 19.4142 14.7505 19 14.7505C15.5482 14.7505 12.75 17.5487 12.75 21.0005C12.75 21.4147 12.4142 21.7505 12 21.7505C11.5858 21.7505 11.25 21.4147 11.25 21.0005C11.25 17.5487 8.45179 14.7505 5 14.7505C4.58579 14.7505 4.25 14.4147 4.25 14.0005Z" fill="currentColor"/>
<path fill-rule="evenodd" clip-rule="evenodd" d="M11.2702 2.48629C11.7073 2.17045 12.2956 2.17218 12.7312 2.48585L14.6319 3.85462C14.6318 3.85454 14.632 3.85469 14.6319 3.85462C14.7192 3.91717 14.8376 3.91739 14.9248 3.85482C14.9247 3.85489 14.9249 3.85475 14.9248 3.85482L16.3257 2.84591C17.1525 2.25142 18.306 2.84093 18.306 3.8605V7.4445C18.306 10.9278 15.4821 13.7505 12 13.7505C8.51787 13.7505 5.694 10.9278 5.694 7.4445V3.8605C5.694 2.83952 6.84921 2.25191 7.67484 2.84557L9.07591 3.85462C9.07586 3.85458 9.07596 3.85465 9.07591 3.85462C9.16319 3.9173 9.28156 3.91742 9.36886 3.85478L11.2691 2.48704C11.2695 2.48679 11.2698 2.48654 11.2702 2.48629ZM12.001 3.80843L13.7557 5.07211C14.3663 5.51127 15.1903 5.51154 15.8009 5.07238L16.806 4.34851V7.4445C16.806 10.0992 14.6539 12.2505 12 12.2505C9.34613 12.2505 7.194 10.0992 7.194 7.4445V4.34779L8.19969 5.07209C8.81031 5.51125 9.63429 5.51154 10.2449 5.07238L12.001 3.80843Z" fill="currentColor"/>
</svg>
