<svg width="24" height="24" viewBox="0 0 24 24" fill="none" xmlns="http://www.w3.org/2000/svg">
<path fill-rule="evenodd" clip-rule="evenodd" d="M12.0001 3.74609C9.52427 3.74609 7.33292 4.63994 5.83871 6.01753C5.53417 6.2983 5.05969 6.27903 4.77892 5.9745C4.49815 5.66996 4.51742 5.19548 4.82196 4.91471C6.60911 3.26705 9.16974 2.24609 12.0001 2.24609C14.8305 2.24609 17.3911 3.26705 19.1783 4.91471C19.4828 5.19548 19.5021 5.66996 19.2213 5.9745C18.9405 6.27903 18.466 6.2983 18.1615 6.01753C16.6673 4.63994 14.4759 3.74609 12.0001 3.74609Z" fill="currentColor"/>
<path fill-rule="evenodd" clip-rule="evenodd" d="M12.0001 7.45164C10.387 7.45164 8.9779 7.97648 8.0332 8.76041C7.71444 9.02493 7.24161 8.98095 6.9771 8.6622C6.71259 8.34344 6.75656 7.87061 7.07532 7.60609C8.31753 6.57528 10.0758 5.95164 12.0001 5.95164C13.9245 5.95164 15.6827 6.57528 16.9249 7.60609C17.2437 7.87061 17.2876 8.34344 17.0231 8.6622C16.7586 8.98095 16.2858 9.02493 15.967 8.76041C15.0223 7.97648 13.6132 7.45164 12.0001 7.45164Z" fill="currentColor"/>
<path fill-rule="evenodd" clip-rule="evenodd" d="M12.0001 11.0081C11.2715 11.0081 10.6548 11.2457 10.2562 11.5765C9.93745 11.8411 9.46461 11.7972 9.20007 11.4784C8.93553 11.1597 8.97946 10.6869 9.29819 10.4223C9.99406 9.84475 10.9599 9.50812 12.0001 9.50812C13.0399 9.50812 14.0072 9.84454 14.7025 10.4227C15.021 10.6876 15.0645 11.1604 14.7997 11.4789C14.5349 11.7974 14.062 11.8409 13.7435 11.5761C13.3464 11.2459 12.7291 11.0081 12.0001 11.0081Z" fill="currentColor"/>
<path fill-rule="evenodd" clip-rule="evenodd" d="M4.55005 10.264C4.95622 10.3452 5.21962 10.7404 5.13838 11.1465L3.78481 17.9134C3.54263 19.1235 4.46869 20.2536 5.70449 20.2536H18.2967C19.5313 20.2536 20.4576 19.1238 20.2154 17.9134L18.8618 11.1465C18.7806 10.7404 19.044 10.3452 19.4502 10.264C19.8563 10.1827 20.2515 10.4462 20.3327 10.8523L21.6863 17.6191C21.6863 17.6191 21.6863 17.6191 21.6863 17.6191C22.1143 19.7581 20.4775 21.7536 18.2967 21.7536H5.70449C3.52288 21.7536 1.8859 19.7583 2.31395 17.6191C2.31395 17.6192 2.31395 17.6191 2.31395 17.6191L3.66751 10.8523C3.74876 10.4462 4.14389 10.1827 4.55005 10.264Z" fill="currentColor"/>
<path fill-rule="evenodd" clip-rule="evenodd" d="M12.0001 3.74609C9.52427 3.74609 7.33292 4.63994 5.83871 6.01753C5.53417 6.2983 5.05969 6.27903 4.77892 5.9745C4.49815 5.66996 4.51742 5.19548 4.82196 4.91471C6.60911 3.26705 9.16974 2.24609 12.0001 2.24609C14.8305 2.24609 17.3911 3.26705 19.1783 4.91471C19.4828 5.19548 19.5021 5.66996 19.2213 5.9745C18.9405 6.27903 18.466 6.2983 18.1615 6.01753C16.6673 4.63994 14.4759 3.74609 12.0001 3.74609Z" fill="currentColor"/>
<path fill-rule="evenodd" clip-rule="evenodd" d="M12.0001 7.45164C10.387 7.45164 8.9779 7.97648 8.0332 8.76041C7.71444 9.02493 7.24161 8.98095 6.9771 8.6622C6.71259 8.34344 6.75656 7.87061 7.07532 7.60609C8.31753 6.57528 10.0758 5.95164 12.0001 5.95164C13.9245 5.95164 15.6827 6.57528 16.9249 7.60609C17.2437 7.87061 17.2876 8.34344 17.0231 8.6622C16.7586 8.98095 16.2858 9.02493 15.967 8.76041C15.0223 7.97648 13.6132 7.45164 12.0001 7.45164Z" fill="currentColor"/>
<path fill-rule="evenodd" clip-rule="evenodd" d="M12.0001 11.0081C11.2715 11.0081 10.6548 11.2457 10.2562 11.5765C9.93745 11.8411 9.46461 11.7972 9.20007 11.4784C8.93553 11.1597 8.97946 10.6869 9.29819 10.4223C9.99406 9.84475 10.9599 9.50812 12.0001 9.50812C13.0399 9.50812 14.0072 9.84454 14.7025 10.4227C15.021 10.6876 15.0645 11.1604 14.7997 11.4789C14.5349 11.7974 14.062 11.8409 13.7435 11.5761C13.3464 11.2459 12.7291 11.0081 12.0001 11.0081Z" fill="currentColor"/>
<path fill-rule="evenodd" clip-rule="evenodd" d="M4.55005 10.264C4.95622 10.3452 5.21962 10.7404 5.13838 11.1465L3.78481 17.9134C3.54263 19.1235 4.46869 20.2536 5.70449 20.2536H18.2967C19.5313 20.2536 20.4576 19.1238 20.2154 17.9134L18.8618 11.1465C18.7806 10.7404 19.044 10.3452 19.4502 10.264C19.8563 10.1827 20.2515 10.4462 20.3327 10.8523L21.6863 17.6191C21.6863 17.6191 21.6863 17.6191 21.6863 17.6191C22.1143 19.7581 20.4775 21.7536 18.2967 21.7536H5.70449C3.52288 21.7536 1.8859 19.7583 2.31395 17.6191C2.31395 17.6192 2.31395 17.6191 2.31395 17.6191L3.66751 10.8523C3.74876 10.4462 4.14389 10.1827 4.55005 10.264Z" fill="currentColor"/>
</svg>
