<svg width="513" height="512" viewBox="0 0 513 512" xmlns="http://www.w3.org/2000/svg">
<path fill-rule="evenodd" clip-rule="evenodd" d="M256.001 35.7209C134.344 35.7209 35.7211 134.343 35.7211 256C35.7211 377.657 134.344 476.279 256.001 476.279C377.658 476.279 476.281 377.657 476.281 256C476.281 134.343 377.658 35.7209 256.001 35.7209ZM0 256C0 114.615 114.616 0 256.001 0C397.387 0 512.002 114.615 512.002 256C512.002 397.385 397.387 512 256.001 512C114.616 512 0 397.385 0 256Z" fill="currentColor"/>
<path fill-rule="evenodd" clip-rule="evenodd" d="M256.001 142.884C265.865 142.884 273.862 150.88 273.862 160.744V351.256C273.862 361.12 265.865 369.116 256.001 369.116C246.137 369.116 238.141 361.12 238.141 351.256V160.744C238.141 150.88 246.137 142.884 256.001 142.884Z" fill="currentColor"/>
<path fill-rule="evenodd" clip-rule="evenodd" d="M476.281 256C476.281 134.343 377.658 35.7209 256.001 35.7209C134.344 35.7209 35.7211 134.343 35.7211 256C35.7211 377.657 134.344 476.279 256.001 476.279C377.658 476.279 476.281 377.657 476.281 256ZM256.001 0C397.387 0 512.002 114.615 512.002 256C512.002 397.385 397.387 512 256.001 512C114.616 512 0 397.385 0 256C0 114.615 114.616 0 256.001 0Z" fill="currentColor"/>
<path fill-rule="evenodd" clip-rule="evenodd" d="M369.12 256C369.12 265.864 361.124 273.861 351.26 273.861L160.747 273.861C150.883 273.861 142.887 265.864 142.887 256C142.887 246.136 150.883 238.14 160.747 238.14L351.26 238.14C361.124 238.14 369.12 246.136 369.12 256Z" fill="currentColor"/>
</svg>
