<svg width="24" height="24" viewBox="0 0 24 24" fill="none" xmlns="http://www.w3.org/2000/svg">
<path d="M7.03412 13.3835C7.3089 13.3 7.59452 13.3819 7.78399 13.5721C7.70051 13.4877 7.59572 13.422 7.4745 13.3842L4.03721 12.3117L18.9443 6.58161L18.3876 5.16921L2.87223 11.1534C1.75013 11.5858 1.8082 13.1869 2.95075 13.5441L6.64961 14.6981L6.53448 14.3191C6.41409 13.9228 6.63779 13.5039 7.03412 13.3835Z" fill="currentColor"/>
<path d="M12.2551 16.3136C12.2821 16.3347 12.3081 16.3578 12.3327 16.3831C12.6215 16.68 12.615 17.1548 12.3181 17.4437L11.8616 17.8878L15.1855 20.3434C16.154 21.0591 17.5365 20.5324 17.7868 19.3558L20.4277 6.9091L18.6514 8.53079L16.3195 19.0441C16.2958 19.1554 16.1664 19.2031 16.0769 19.137L12.2551 16.3136Z" fill="currentColor"/>
<path d="M7.03412 13.3835C6.63779 13.5039 6.41409 13.9228 6.53448 14.3191L6.64961 14.6981L7.02775 14.8161C7.42316 14.9395 7.84372 14.7189 7.96708 14.3235C8.05263 14.0493 7.97281 13.763 7.78399 13.5721C7.59452 13.3819 7.3089 13.3 7.03412 13.3835Z" fill="currentColor"/>
<path d="M9.30577 18.2816L7.96973 13.8831C7.93281 13.7616 7.86781 13.6563 7.78399 13.5721C7.97281 13.763 8.05263 14.0493 7.96708 14.3235C7.84372 14.7189 7.42316 14.9395 7.02775 14.8161L6.64961 14.6981L7.91048 18.8491C8.21899 19.8654 9.49299 20.1916 10.2531 19.4527L11.8616 17.8878L10.6389 16.9846L9.30577 18.2816Z" fill="currentColor"/>
<path d="M12.3181 17.4437C12.615 17.1548 12.6215 16.68 12.3327 16.3831C12.3081 16.3578 12.2821 16.3347 12.2551 16.3136L12.2248 16.2913C11.9357 16.0887 11.5344 16.1133 11.2721 16.3685L10.6389 16.9846L11.8616 17.8878L12.3181 17.4437Z" fill="currentColor"/>
<path d="M18.9443 6.58161C18.9443 6.58161 10.3486 13.3059 9.68452 13.9054L18.9443 6.58161Z" fill="currentColor"/>
<path d="M9.68452 13.9054C8.93341 14.5831 8.99911 15.7739 9.80808 16.3708L10.6389 16.9846L11.2721 16.3685C11.5344 16.1133 11.9357 16.0887 12.2248 16.2913L10.6988 15.1639C10.6484 15.1268 10.647 15.0573 10.6894 15.0191C10.7317 14.9809 17.8382 9.26467 18.6514 8.53079L20.4277 6.9091C20.6796 5.72341 19.5156 4.73492 18.3876 5.16921L18.9443 6.58161L9.68452 13.9054Z" fill="currentColor"/>
</svg>
