<svg width="24" height="24" viewBox="0 0 24 24" fill="none" xmlns="http://www.w3.org/2000/svg">
<path fill-rule="evenodd" clip-rule="evenodd" d="M14.0153 9.98475C12.9023 8.87175 11.0978 8.87175 9.98476 9.98475C8.87176 11.0977 8.87176 12.9023 9.98476 14.0153C11.0978 15.1283 12.9023 15.1283 14.0153 14.0153C15.1283 12.9023 15.1283 11.0977 14.0153 9.98475ZM15.0759 8.92409C13.3771 7.22531 10.6229 7.22531 8.9241 8.92409C7.22532 10.6229 7.22532 13.3771 8.9241 15.0759C10.6229 16.7747 13.3771 16.7747 15.0759 15.0759C16.7747 13.3771 16.7747 10.6229 15.0759 8.92409Z" fill="currentColor"/>
<path fill-rule="evenodd" clip-rule="evenodd" d="M7.5 3.75C5.42921 3.75 3.75 5.42921 3.75 7.5V16.504C3.75 18.5728 5.42721 20.25 7.496 20.25H16.504C18.5729 20.25 20.25 18.5727 20.25 16.505V7.496C20.25 5.42721 18.5728 3.75 16.504 3.75H7.5ZM7.5 2.25H16.504C19.4012 2.25 21.75 4.59879 21.75 7.496V16.505C21.75 19.4013 19.4011 21.75 16.504 21.75H7.496C4.59879 21.75 2.25 19.4012 2.25 16.504V7.5C2.25 4.60079 4.60079 2.25 7.5 2.25Z" fill="currentColor"/>
<path d="M18.0347 6.96045C18.0347 7.51273 17.587 7.96045 17.0347 7.96045C16.4824 7.96045 16.0347 7.51273 16.0347 6.96045C16.0347 6.40816 16.4824 5.96045 17.0347 5.96045C17.587 5.96045 18.0347 6.40816 18.0347 6.96045Z" fill="currentColor"/>
</svg>
