<svg width="24" height="24" viewBox="0 0 24 24" fill="none" xmlns="http://www.w3.org/2000/svg">
<path d="M16.1 21.8002C15.8 21.8002 15.6 21.8002 15.3 21.7002C12.4 21.1002 9.49998 19.5002 6.99998 17.0002C4.49998 14.5002 2.89998 11.6002 2.29998 8.70019C2.09998 7.4002 2.49998 6.10019 3.39998 5.2002L3.99998 4.5002C5.09998 3.4002 6.79998 3.4002 7.89998 4.5002L9.09999 5.7002C9.99999 6.60019 9.89998 8.00019 8.99998 8.90019L8.19998 9.8002C8.79998 11.1002 9.59998 12.3002 10.7 13.4002C11.8 14.5002 13 15.3002 14.3 15.9002L15.2 15.0002C16 14.2002 17.5 14.1002 18.4 15.0002L19.6 16.2002C20.7 17.3002 20.7 19.0002 19.6 20.1002L18.9 20.8002C18.1 21.4002 17.1 21.8002 16.1 21.8002ZM5.99998 5.2002C5.69998 5.2002 5.39998 5.3002 5.09998 5.6002L4.39998 6.2002C3.89998 6.8002 3.59998 7.60019 3.79998 8.40019C4.29998 11.0002 5.79999 13.7002 8.09999 15.9002C10.4 18.2002 13 19.7002 15.6 20.2002C16.4 20.4002 17.2 20.1002 17.8 19.6002L18.5 18.9002C19 18.4002 19 17.6002 18.5 17.1002L17.3 16.0002C17 15.7002 16.5 15.7002 16.2 16.0002L15.3 16.9002C14.9 17.3002 14.2 17.5002 13.7 17.2002C12.2 16.6002 10.8 15.6002 9.59999 14.4002C8.39999 13.2002 7.39998 11.8002 6.79998 10.4002C6.59999 9.80019 6.69998 9.10019 7.09998 8.70019L7.89998 7.9002C8.29998 7.5002 8.29998 7.0002 7.99998 6.7002L6.89998 5.6002C6.59998 5.3002 6.29998 5.2002 5.99998 5.2002Z" fill="currentColor"/>
<path d="M15.9 8.9002C15.7 8.9002 15.5 8.8002 15.4 8.7002C14.8 8.1002 14 7.8002 13.1 7.8002C13.1 7.8002 13.1 7.8002 13 7.8002C12.6 7.8002 12.3 7.5002 12.2 7.10019C12.2 6.70019 12.5 6.3002 12.9 6.3002C14.2 6.3002 15.4 6.8002 16.3 7.7002C16.6 8.0002 16.6 8.5002 16.3 8.8002C16.2 8.8002 16 8.9002 15.9 8.9002Z" fill="currentColor"/>
<path d="M18.7 6.1002C18.5 6.1002 18.3 6.0002 18.2 5.9002C16.8 4.5002 15 3.8002 13 3.8002C12.6 3.8002 12.2 3.5002 12.2 3.0002C12.2 2.5002 12.5 2.2002 13 2.2002C15.3 2.2002 17.6 3.1002 19.2 4.8002C19.5 5.1002 19.5 5.6002 19.2 5.9002C19.1 6.0002 18.9 6.1002 18.7 6.1002Z" fill="currentColor"/>
<path d="M17 11.8002C16.6 11.8002 16.2 11.5002 16.2 11.0002C16.2 10.1002 15.9 9.3002 15.3 8.7002C15 8.4002 15 7.9002 15.3 7.6002C15.6 7.3002 16.1 7.3002 16.4 7.6002C17.3 8.5002 17.8 9.7002 17.8 11.0002C17.8 11.4002 17.4 11.8002 17 11.8002Z" fill="currentColor"/>
<path d="M21 11.8002C20.6 11.8002 20.2 11.5002 20.2 11.0002C20.2 9.1002 19.4 7.2002 18.1 5.8002C17.8 5.5002 17.8 5.0002 18.1 4.7002C18.4 4.4002 18.9 4.4002 19.2 4.7002C20.9 6.4002 21.8 8.60019 21.8 10.9002C21.8 11.4002 21.5 11.8002 21 11.8002Z" fill="currentColor"/>
</svg>
