<svg width="24" height="24" viewBox="0 0 24 24" fill="none" xmlns="http://www.w3.org/2000/svg">
<path fill-rule="evenodd" clip-rule="evenodd" d="M3 15.75C2.86193 15.75 2.75 15.8619 2.75 16V20C2.75 20.1381 2.86193 20.25 3 20.25H12.25V15.75H3ZM1.25 16C1.25 15.0335 2.0335 14.25 3 14.25H13C13.4142 14.25 13.75 14.5858 13.75 15V21C13.75 21.4142 13.4142 21.75 13 21.75H3C2.0335 21.75 1.25 20.9665 1.25 20V16Z" fill="currentColor"/>
<path fill-rule="evenodd" clip-rule="evenodd" d="M14 3.75C13.8619 3.75 13.75 3.86193 13.75 4V20.25H21C21.1381 20.25 21.25 20.1381 21.25 20V4C21.25 3.86193 21.1381 3.75 21 3.75H14ZM12.25 4C12.25 3.0335 13.0335 2.25 14 2.25H21C21.9665 2.25 22.75 3.0335 22.75 4V20C22.75 20.9665 21.9665 21.75 21 21.75H13C12.5858 21.75 12.25 21.4142 12.25 21V4Z" fill="currentColor"/>
<path fill-rule="evenodd" clip-rule="evenodd" d="M1.80276 3.57555C1.99753 2.79652 2.69749 2.25 3.50051 2.25H8.49951C9.30251 2.25002 10.0025 2.79653 10.1972 3.57556L10.6972 5.57556C10.8279 6.09835 10.7105 6.65221 10.3789 7.07697C10.0472 7.50172 9.53838 7.75 8.99949 7.75H3.00049C2.46161 7.74999 1.95277 7.50171 1.62114 7.07695C1.28951 6.6522 1.17206 6.09835 1.30276 5.57556C1.30276 5.57556 1.30276 5.57556 1.30276 5.57556L1.80276 3.57555ZM3.25798 3.93937C3.25798 3.93937 3.25798 3.93936 3.25798 3.93937L2.75798 5.93936C2.73931 6.01405 2.75608 6.09317 2.80346 6.15385C2.85083 6.21453 2.92351 6.24999 3.00049 6.25C3.00049 6.25 3.0005 6.25 3.00049 6.25H8.99949C9.07647 6.25 9.14916 6.21453 9.19654 6.15385C9.24392 6.09317 9.2607 6.01405 9.24202 5.93937L8.74202 3.93936C8.7142 3.82808 8.61422 3.75001 8.49951 3.75C8.49951 3.75 8.49952 3.75 8.49951 3.75H3.50051C3.3858 3.75 3.2858 3.82808 3.25798 3.93937Z" fill="currentColor"/>
<path fill-rule="evenodd" clip-rule="evenodd" d="M12.25 11C12.25 10.5858 12.5858 10.25 13 10.25H22C22.4142 10.25 22.75 10.5858 22.75 11C22.75 11.4142 22.4142 11.75 22 11.75H13C12.5858 11.75 12.25 11.4142 12.25 11Z" fill="currentColor"/>
<path fill-rule="evenodd" clip-rule="evenodd" d="M3 9.25C3.41421 9.25 3.75 9.58579 3.75 10V11C3.75 11.4142 3.41421 11.75 3 11.75C2.58579 11.75 2.25 11.4142 2.25 11V10C2.25 9.58579 2.58579 9.25 3 9.25Z" fill="currentColor"/>
<path fill-rule="evenodd" clip-rule="evenodd" d="M6 9.25C6.41421 9.25 6.75 9.58579 6.75 10V11C6.75 11.4142 6.41421 11.75 6 11.75C5.58579 11.75 5.25 11.4142 5.25 11V10C5.25 9.58579 5.58579 9.25 6 9.25Z" fill="currentColor"/>
<path fill-rule="evenodd" clip-rule="evenodd" d="M9 9.25C9.41421 9.25 9.75 9.58579 9.75 10V11C9.75 11.4142 9.41421 11.75 9 11.75C8.58579 11.75 8.25 11.4142 8.25 11V10C8.25 9.58579 8.58579 9.25 9 9.25Z" fill="currentColor"/>
</svg>
