<svg width="25" height="24" viewBox="0 0 25 24" fill="none" xmlns="http://www.w3.org/2000/svg">
<path d="M18.8 21.7998C18.5 21.7998 18.2 21.6998 17.9 21.3998L15.6 19.0998C15.3 18.7998 15.3 18.2998 15.6 17.9998C15.9 17.6998 16.4 17.6998 16.7 17.9998L18.6 19.8998V18.5998C18.6 18.1998 18.9 17.7998 19.4 17.7998C19.9 17.7998 20.2 18.0998 20.2 18.5998V20.4998C20.2 20.9998 19.9 21.4998 19.4 21.6998C19.1 21.6998 19 21.7998 18.8 21.7998Z" fill="currentColor"/>
<path d="M19.3 19.2998C18.9 19.2998 18.5 18.9998 18.5 18.4998C18.5 17.9998 18.8 17.6998 19.3 17.6998C20.3 17.6998 21 16.8998 21 15.9998V11.9998C21 10.9998 20.2 10.2998 19.3 10.2998H18.8C18.4 10.2998 18 9.9998 18 9.4998C18 8.9998 18.3 8.6998 18.8 8.6998H19.3C21.1 8.6998 22.5 10.1998 22.5 11.8998V15.9998C22.6 17.8998 21.1 19.2998 19.3 19.2998Z" fill="currentColor"/>
<path d="M16.2 19.2998H13.3C11.5 19.2998 10.1 17.7998 10.1 16.0998V14.9998C10.1 14.5998 10.4 14.1998 10.9 14.1998C11.4 14.1998 11.7 14.4998 11.7 14.9998V16.0998C11.7 17.0998 12.5 17.7998 13.4 17.7998H16.3C16.7 17.7998 17.1 18.0998 17.1 18.5998C17.1 19.0998 16.6 19.2998 16.2 19.2998Z" fill="currentColor"/>
<path d="M6.8 15.2998C6.6 15.2998 6.5 15.2998 6.3 15.1998C5.9 14.9998 5.5 14.4998 5.5 13.9998V12.6998C4.9 12.5998 4.4 12.2998 4 11.7998C3.4 11.1998 3 10.3998 3 9.4998V5.4998C3 3.6998 4.5 2.2998 6.2 2.2998H13.2C15 2.2998 16.4 3.7998 16.4 5.4998V9.4998C16.4 10.3998 16.1 11.1998 15.4 11.7998C14.8 12.3998 14 12.7998 13.1 12.7998H9.8L7.7 14.8998C7.4 15.0998 7.1 15.2998 6.8 15.2998ZM6.3 3.6998C5.3 3.6998 4.6 4.4998 4.6 5.3998V9.3998C4.6 9.8998 4.8 10.2998 5.1 10.5998C5.4 10.8998 5.9 11.0998 6.3 11.0998C6.7 11.0998 7.1 11.3998 7.1 11.8998V13.2998L9 11.3998C9.1 11.2998 9.3 11.1998 9.5 11.1998H13.3C13.8 11.1998 14.2 10.9998 14.5 10.6998C14.8 10.3998 15 9.8998 15 9.4998V5.4998C15 4.4998 14.2 3.6998 13.3 3.6998H6.3Z" fill="currentColor"/>
</svg>
