<svg width="20" height="20" viewBox="0 0 20 20" fill="none" xmlns="http://www.w3.org/2000/svg">
<path fill-rule="evenodd" clip-rule="evenodd" d="M3.95626 10C3.95626 9.65484 4.23608 9.37502 4.58126 9.37502H15.4188C15.764 9.37502 16.0438 9.65484 16.0438 10C16.0438 10.3452 15.764 10.625 15.4188 10.625H4.58126C4.23608 10.625 3.95626 10.3452 3.95626 10Z" fill="currentColor"/>
<path fill-rule="evenodd" clip-rule="evenodd" d="M3.95626 13.3347C3.95626 12.9895 4.23608 12.7097 4.58126 12.7097H15.4188C15.764 12.7097 16.0438 12.9895 16.0438 13.3347C16.0438 13.6799 15.764 13.9597 15.4188 13.9597H4.58126C4.23608 13.9597 3.95626 13.6799 3.95626 13.3347Z" fill="currentColor"/>
<path fill-rule="evenodd" clip-rule="evenodd" d="M3.95605 6.66528C3.95605 6.32011 4.23588 6.04028 4.58105 6.04028H15.4186C15.7638 6.04028 16.0436 6.32011 16.0436 6.66528C16.0436 7.01046 15.7638 7.29028 15.4186 7.29028H4.58105C4.23588 7.29028 3.95605 7.01046 3.95605 6.66528Z" fill="currentColor"/>
</svg>
