<svg width="24" height="24" viewBox="0 0 24 24" fill="none" xmlns="http://www.w3.org/2000/svg">
<path fill-rule="evenodd" clip-rule="evenodd" d="M3.99675 3.74609C3.85845 3.74609 3.74634 3.85821 3.74634 3.99651V4.99693C3.74634 5.13523 3.85845 5.24734 3.99675 5.24734H7.99842C8.41263 5.24734 8.74842 5.58313 8.74842 5.99734C8.74842 6.41156 8.41263 6.74734 7.99842 6.74734H3.99675C3.03003 6.74734 2.24634 5.96366 2.24634 4.99693V3.99651C2.24634 3.02978 3.03003 2.24609 3.99675 2.24609H8.99884C9.41305 2.24609 9.74884 2.58188 9.74884 2.99609C9.74884 3.41031 9.41305 3.74609 8.99884 3.74609H3.99675Z" fill="currentColor"/>
<path fill-rule="evenodd" clip-rule="evenodd" d="M3.24675 5.99734C3.24675 5.58313 3.58254 5.24734 3.99675 5.24734H8.99884C9.41305 5.24734 9.74884 5.58313 9.74884 5.99734C9.74884 6.41156 9.41305 6.74734 8.99884 6.74734H4.74675V16.2519H20.0034C20.4176 16.2519 20.7534 16.5877 20.7534 17.0019C20.7534 17.4161 20.4176 17.7519 20.0034 17.7519H3.99675C3.58254 17.7519 3.24675 17.4161 3.24675 17.0019V5.99734Z" fill="currentColor"/>
<path fill-rule="evenodd" clip-rule="evenodd" d="M2.24634 17.0019C2.24634 16.5877 2.58212 16.2519 2.99634 16.2519H21.0038C21.4181 16.2519 21.7538 16.5877 21.7538 17.0019C21.7538 17.4161 21.4181 17.7519 21.0038 17.7519H2.99634C2.58212 17.7519 2.24634 17.4161 2.24634 17.0019Z" fill="currentColor"/>
<path fill-rule="evenodd" clip-rule="evenodd" d="M12.0001 16.2519C12.4143 16.2519 12.7501 16.5877 12.7501 17.0019V19.0028C12.7501 19.417 12.4143 19.7528 12.0001 19.7528C11.5859 19.7528 11.2501 19.417 11.2501 19.0028V17.0019C11.2501 16.5877 11.5859 16.2519 12.0001 16.2519Z" fill="currentColor"/>
<path fill-rule="evenodd" clip-rule="evenodd" d="M12.0001 19.7528C11.5855 19.7528 11.2495 20.0888 11.2495 20.5034C11.2495 20.9179 11.5855 21.254 12.0001 21.254C12.4146 21.254 12.7507 20.9179 12.7507 20.5034C12.7507 20.0888 12.4146 19.7528 12.0001 19.7528ZM9.74946 20.5034C9.74946 19.2604 10.7571 18.2528 12.0001 18.2528C13.2431 18.2528 14.2507 19.2604 14.2507 20.5034C14.2507 21.7464 13.2431 22.754 12.0001 22.754C10.7571 22.754 9.74946 21.7464 9.74946 20.5034Z" fill="currentColor"/>
<path fill-rule="evenodd" clip-rule="evenodd" d="M20.0034 10.2494C20.4176 10.2494 20.7534 10.5852 20.7534 10.9994L20.7534 17.0019C20.7534 17.4161 20.4176 17.7519 20.0034 17.7519C19.5892 17.7519 19.2534 17.4161 19.2534 17.0019V10.9994C19.2534 10.5852 19.5892 10.2494 20.0034 10.2494Z" fill="currentColor"/>
<path fill-rule="evenodd" clip-rule="evenodd" d="M20.2538 4.39896L19.0027 5.17019V6.4911L20.2538 7.26232V4.39896ZM19.7629 2.93952C20.1657 2.6912 20.6714 2.68029 21.0846 2.91099C21.4978 3.14168 21.7538 3.57789 21.7538 4.05111V7.61019C21.7538 8.08342 21.4978 8.51962 21.0846 8.75031C20.6714 8.981 20.1657 8.97008 19.7629 8.72175C19.7629 8.72175 19.7629 8.72176 19.7629 8.72175L17.8591 7.54829C17.6376 7.41173 17.5027 7.17008 17.5027 6.90983V4.75146C17.5027 4.49122 17.6376 4.24958 17.8591 4.11302L19.7629 2.93952Z" fill="currentColor"/>
<path fill-rule="evenodd" clip-rule="evenodd" d="M11.2501 4.24609C11.2501 3.14152 12.1455 2.24609 13.2501 2.24609H17.0027C18.1073 2.24609 19.0027 3.14153 19.0027 4.24609V7.41513C19.0027 8.5197 18.1073 9.41512 17.0027 9.41512H13.2501C12.1455 9.41512 11.2501 8.51969 11.2501 7.41512V4.24609ZM13.2501 3.74609C12.9739 3.74609 12.7501 3.96995 12.7501 4.24609V7.41512C12.7501 7.69127 12.9739 7.91512 13.2501 7.91512H17.0027C17.2788 7.91512 17.5027 7.69127 17.5027 7.41513V4.24609C17.5027 3.96995 17.2788 3.74609 17.0027 3.74609H13.2501Z" fill="currentColor"/>
</svg>
