<svg width="24" height="24" viewBox="0 0 24 24" fill="none" xmlns="http://www.w3.org/2000/svg">
<path fill-rule="evenodd" clip-rule="evenodd" d="M1.25 11.5C1.25 10.2578 2.25779 9.25 3.5 9.25H4.5C5.74221 9.25 6.75 10.2578 6.75 11.5V13.25H17.25V11.5C17.25 10.2578 18.2578 9.25 19.5 9.25H20.5C21.7422 9.25 22.75 10.2578 22.75 11.5V16C22.75 17.5192 21.5192 18.75 20 18.75H4C2.48079 18.75 1.25 17.5192 1.25 16V11.5ZM3.5 10.75C3.08621 10.75 2.75 11.0862 2.75 11.5V16C2.75 16.6908 3.30921 17.25 4 17.25H20C20.6908 17.25 21.25 16.6908 21.25 16V11.5C21.25 11.0862 20.9138 10.75 20.5 10.75H19.5C19.0862 10.75 18.75 11.0862 18.75 11.5V14C18.75 14.4142 18.4142 14.75 18 14.75H6C5.58579 14.75 5.25 14.4142 5.25 14V11.5C5.25 11.0862 4.91379 10.75 4.5 10.75H3.5Z" fill="currentColor"/>
<path fill-rule="evenodd" clip-rule="evenodd" d="M5 17.25C5.41421 17.25 5.75 17.5858 5.75 18V20C5.75 20.4142 5.41421 20.75 5 20.75C4.58579 20.75 4.25 20.4142 4.25 20V18C4.25 17.5858 4.58579 17.25 5 17.25Z" fill="currentColor"/>
<path fill-rule="evenodd" clip-rule="evenodd" d="M19 17.25C19.4142 17.25 19.75 17.5858 19.75 18V20C19.75 20.4142 19.4142 20.75 19 20.75C18.5858 20.75 18.25 20.4142 18.25 20V18C18.25 17.5858 18.5858 17.25 19 17.25Z" fill="currentColor"/>
<path fill-rule="evenodd" clip-rule="evenodd" d="M7 5.75C5.75721 5.75 4.75 6.75721 4.75 8V10C4.75 10.4142 4.41421 10.75 4 10.75C3.58579 10.75 3.25 10.4142 3.25 10V8C3.25 5.92879 4.92879 4.25 7 4.25H17C19.0712 4.25 20.75 5.92879 20.75 8V10C20.75 10.4142 20.4142 10.75 20 10.75C19.5858 10.75 19.25 10.4142 19.25 10V8C19.25 6.75721 18.2428 5.75 17 5.75H7Z" fill="currentColor"/>
</svg>
