<svg width="24" height="24" viewBox="0 0 24 24" fill="none" xmlns="http://www.w3.org/2000/svg">
<path fill-rule="evenodd" clip-rule="evenodd" d="M4.99717 5.93301C4.30592 5.93301 3.74634 6.4926 3.74634 7.18385V17.0019C3.74634 17.6932 4.30592 18.2528 4.99717 18.2528H5.99759C6.4118 18.2528 6.74759 18.5886 6.74759 19.0028C6.74759 19.417 6.4118 19.7528 5.99759 19.7528H4.99717C3.4775 19.7528 2.24634 18.5216 2.24634 17.0019V7.18385C2.24634 5.66417 3.4775 4.43301 4.99717 4.43301H5.99759C6.4118 4.43301 6.74759 4.7688 6.74759 5.18301C6.74759 5.59723 6.4118 5.93301 5.99759 5.93301H4.99717Z" fill="currentColor"/>
<path fill-rule="evenodd" clip-rule="evenodd" d="M11.5132 5.18301C11.5132 4.7688 11.849 4.43301 12.2632 4.43301H19.003C20.5227 4.43301 21.7538 5.66417 21.7538 7.18385V17.0019C21.7538 18.5216 20.5227 19.7528 19.003 19.7528H12.2632C11.849 19.7528 11.5132 19.417 11.5132 19.0028C11.5132 18.5886 11.849 18.2528 12.2632 18.2528H19.003C19.6942 18.2528 20.2538 17.6932 20.2538 17.0019V7.18385C20.2538 6.4926 19.6942 5.93301 19.003 5.93301H12.2632C11.849 5.93301 11.5132 5.59723 11.5132 5.18301Z" fill="currentColor"/>
<path fill-rule="evenodd" clip-rule="evenodd" d="M7.99839 3.74609C7.30715 3.74609 6.74756 4.30568 6.74756 4.99693L6.74759 19.0028C6.74759 19.694 7.30715 20.2536 7.99839 20.2536H10.2623C10.9536 20.2536 11.5132 19.694 11.5132 19.0028L11.5132 4.99693C11.5132 4.30568 10.9536 3.74609 10.2623 3.74609H7.99839ZM5.24756 4.99693C5.24756 3.47725 6.47872 2.24609 7.99839 2.24609H10.2623C11.782 2.24609 13.0132 3.47725 13.0132 4.99693V19.0028C13.0132 20.5224 11.782 21.7536 10.2623 21.7536H7.99839C6.47872 21.7536 5.24756 20.5224 5.24756 19.0028V4.99693Z" fill="currentColor"/>
<path fill-rule="evenodd" clip-rule="evenodd" d="M14.2512 8.9986C14.2512 8.58438 14.587 8.2486 15.0012 8.2486H18.0025C18.4167 8.2486 18.7525 8.58438 18.7525 8.9986C18.7525 9.41281 18.4167 9.7486 18.0025 9.7486H15.0012C14.587 9.7486 14.2512 9.41281 14.2512 8.9986Z" fill="currentColor"/>
<path fill-rule="evenodd" clip-rule="evenodd" d="M15.0512 11.65C14.5993 11.65 14.2512 12.0186 14.2512 12.45C14.2512 12.8923 14.609 13.2501 15.0512 13.2501C15.4935 13.2501 15.8513 12.8923 15.8513 12.45C15.8513 12.0078 15.4935 11.65 15.0512 11.65Z" fill="currentColor"/>
<path fill-rule="evenodd" clip-rule="evenodd" d="M15.0512 14.1511C14.5993 14.1511 14.2512 14.5196 14.2512 14.9511C14.2512 15.3933 14.609 15.7511 15.0512 15.7511C15.4935 15.7511 15.8513 15.3933 15.8513 14.9511C15.8513 14.5089 15.4935 14.1511 15.0512 14.1511Z" fill="currentColor"/>
<path fill-rule="evenodd" clip-rule="evenodd" d="M17.1525 12.4649C17.142 11.9837 17.5392 11.65 17.9524 11.65C18.3947 11.65 18.7525 12.0078 18.7525 12.45C18.7525 12.8923 18.3947 13.2501 17.9524 13.2501C17.5152 13.2501 17.1605 12.9003 17.1525 12.4649Z" fill="currentColor"/>
<path fill-rule="evenodd" clip-rule="evenodd" d="M17.1525 14.966C17.142 14.4847 17.5392 14.1511 17.9524 14.1511C18.3947 14.1511 18.7525 14.5089 18.7525 14.9511C18.7525 15.3933 18.3947 15.7511 17.9524 15.7511C17.5152 15.7511 17.1605 15.4013 17.1525 14.966Z" fill="currentColor"/>
</svg>
