<svg width="24" height="24" viewBox="0 0 24 24" fill="none" xmlns="http://www.w3.org/2000/svg">
<path fill-rule="evenodd" clip-rule="evenodd" d="M3.25 3C3.25 2.58579 3.58579 2.25 4 2.25H9C9.41421 2.25 9.75 2.58579 9.75 3C9.75 3.41421 9.41421 3.75 9 3.75H4.75V20.25H9C9.41421 20.25 9.75 20.5858 9.75 21C9.75 21.4142 9.41421 21.75 9 21.75H4C3.58579 21.75 3.25 21.4142 3.25 21V3Z" fill="currentColor"/>
<path fill-rule="evenodd" clip-rule="evenodd" d="M8.58301 3C8.58301 2.58579 8.91879 2.25 9.33301 2.25H14.666C15.0802 2.25 15.416 2.58579 15.416 3V21C15.416 21.4142 15.0802 21.75 14.666 21.75H9.33301C8.91879 21.75 8.58301 21.4142 8.58301 21V3ZM10.083 3.75V20.25H13.916V3.75H10.083Z" fill="currentColor"/>
<path fill-rule="evenodd" clip-rule="evenodd" d="M14.25 3C14.25 2.58579 14.5858 2.25 15 2.25H20C20.4142 2.25 20.75 2.58579 20.75 3V21C20.75 21.4142 20.4142 21.75 20 21.75H15C14.5858 21.75 14.25 21.4142 14.25 21C14.25 20.5858 14.5858 20.25 15 20.25H19.25V3.75H15C14.5858 3.75 14.25 3.41421 14.25 3Z" fill="currentColor"/>
</svg>
