<svg width="24" height="24" viewBox="0 0 24 24" fill="none" xmlns="http://www.w3.org/2000/svg">
<path fill-rule="evenodd" clip-rule="evenodd" d="M1.99615 14.0002C1.99615 13.0337 2.77966 12.2502 3.74615 12.2502H20.2539C21.2204 12.2502 22.0039 13.0337 22.0039 14.0002V15.0015C22.0039 15.968 21.2204 16.7515 20.2539 16.7515H3.74616C2.77966 16.7515 1.99615 15.968 1.99615 15.0015V14.0002ZM3.74615 13.7502C3.60808 13.7502 3.49615 13.8622 3.49615 14.0002V15.0015C3.49615 15.1396 3.60808 15.2515 3.74616 15.2515H20.2539C20.3919 15.2515 20.5039 15.1396 20.5039 15.0015V14.0002C20.5039 13.8622 20.3919 13.7502 20.2539 13.7502H3.74615Z" fill="currentColor"/>
<path fill-rule="evenodd" clip-rule="evenodd" d="M3.99668 15.2515C4.41089 15.2515 4.74668 15.5873 4.74668 16.0015V21.0035C4.74668 21.4178 4.41089 21.7535 3.99668 21.7535C3.58246 21.7535 3.24668 21.4178 3.24668 21.0035V16.0015C3.24668 15.5873 3.58246 15.2515 3.99668 15.2515Z" fill="currentColor"/>
<path fill-rule="evenodd" clip-rule="evenodd" d="M12.2504 16.0015C12.2504 15.5873 12.5862 15.2515 13.0004 15.2515H20.0033C20.4176 15.2515 20.7533 15.5873 20.7533 16.0015V21.0035C20.7533 21.4178 20.4176 21.7535 20.0033 21.7535H13.0004C12.5862 21.7535 12.2504 21.4178 12.2504 21.0035V16.0015ZM13.7504 16.7515V20.2535H19.2533V16.7515H13.7504Z" fill="currentColor"/>
<path fill-rule="evenodd" clip-rule="evenodd" d="M15.0016 18.5025C15.0016 18.0883 15.3374 17.7525 15.7516 17.7525H17.2522C17.6664 17.7525 18.0022 18.0883 18.0022 18.5025C18.0022 18.9167 17.6664 19.2525 17.2522 19.2525H15.7516C15.3374 19.2525 15.0016 18.9167 15.0016 18.5025Z" fill="currentColor"/>
<path fill-rule="evenodd" clip-rule="evenodd" d="M8.1224 3.74609C8.02308 3.74609 7.92783 3.78555 7.85761 3.85577C7.78738 3.926 7.74793 4.02125 7.74793 4.12056V8.87454C7.74793 8.97386 7.78738 9.0691 7.85761 9.13933C7.92783 9.20956 8.02308 9.24901 8.1224 9.24901H15.8776C16.0844 9.24901 16.2521 9.08136 16.2521 8.87454V4.12056C16.2521 3.91375 16.0844 3.74609 15.8776 3.74609H8.1224ZM6.79695 2.79511C7.14848 2.44358 7.62526 2.24609 8.1224 2.24609H15.8776C16.9129 2.24609 17.7521 3.08532 17.7521 4.12056V8.87454C17.7521 9.90978 16.9129 10.749 15.8776 10.749H8.1224C7.62525 10.749 7.14848 10.5515 6.79695 10.2C6.44542 9.84846 6.24793 9.37168 6.24793 8.87454V4.12056C6.24793 3.62342 6.44541 3.14664 6.79695 2.79511Z" fill="currentColor"/>
<path fill-rule="evenodd" clip-rule="evenodd" d="M13.3773 9.25916C13.7859 9.19107 14.1723 9.46708 14.2404 9.87566L14.7406 12.8769C14.8087 13.2855 14.5327 13.6719 14.1241 13.74C13.7156 13.8081 13.3291 13.5321 13.261 13.1235L12.7608 10.1223C12.6927 9.71368 12.9688 9.32726 13.3773 9.25916Z" fill="currentColor"/>
<path fill-rule="evenodd" clip-rule="evenodd" d="M10.6227 9.25916C11.0313 9.32726 11.3073 9.71368 11.2392 10.1223L10.739 13.1235C10.6709 13.5321 10.2845 13.8081 9.87588 13.74C9.4673 13.6719 9.19128 13.2855 9.25938 12.8769L9.75959 9.87566C9.82768 9.46708 10.2141 9.19107 10.6227 9.25916Z" fill="currentColor"/>
</svg>
