<svg width="24" height="24" viewBox="0 0 24 24" fill="none" xmlns="http://www.w3.org/2000/svg">
<path fill-rule="evenodd" clip-rule="evenodd" d="M10.2 3.75C9.02363 3.75 8.07 4.70363 8.07 5.88V10.2C8.07 10.5811 8.37892 10.89 8.76 10.89H14.52C14.9011 10.89 15.21 10.5811 15.21 10.2V5.88C15.21 4.70363 14.2564 3.75 13.08 3.75H10.2ZM6.57 5.88C6.57 3.87521 8.19521 2.25 10.2 2.25H13.08C15.0848 2.25 16.71 3.87521 16.71 5.88V10.2C16.71 11.4095 15.7295 12.39 14.52 12.39H8.76C7.5505 12.39 6.57 11.4095 6.57 10.2V5.88Z" fill="currentColor"/>
<path fill-rule="evenodd" clip-rule="evenodd" d="M6.6 12.39C6.21893 12.39 5.91 12.6989 5.91 13.08V13.8C5.91 14.5787 6.54128 15.21 7.32 15.21H15.96C16.7387 15.21 17.37 14.5787 17.37 13.8V13.08C17.37 12.6989 17.0611 12.39 16.68 12.39H6.6ZM4.41 13.08C4.41 11.8705 5.3905 10.89 6.6 10.89H16.68C17.8895 10.89 18.87 11.8705 18.87 13.08V13.8C18.87 15.4071 17.5672 16.71 15.96 16.71H7.32C5.71285 16.71 4.41 15.4071 4.41 13.8V13.08Z" fill="currentColor"/>
<path fill-rule="evenodd" clip-rule="evenodd" d="M11.64 15.21C12.0542 15.21 12.39 15.5457 12.39 15.96V20.28C12.39 20.6942 12.0542 21.03 11.64 21.03C11.2258 21.03 10.89 20.6942 10.89 20.28V15.96C10.89 15.5457 11.2258 15.21 11.64 15.21Z" fill="currentColor"/>
<path fill-rule="evenodd" clip-rule="evenodd" d="M7.29 20.28C7.29 19.8658 7.62579 19.53 8.04 19.53H15.24C15.6542 19.53 15.99 19.8658 15.99 20.28C15.99 20.6942 15.6542 21.03 15.24 21.03H8.04C7.62579 21.03 7.29 20.6942 7.29 20.28Z" fill="currentColor"/>
<path fill-rule="evenodd" clip-rule="evenodd" d="M3 8.00995C3.41421 8.00995 3.75 8.34574 3.75 8.75995V10.2005C3.75 10.5816 4.05892 10.8905 4.44 10.8905H18.84C19.2211 10.8905 19.53 10.5816 19.53 10.2005V8.75995C19.53 8.34574 19.8658 8.00995 20.28 8.00995C20.6942 8.00995 21.03 8.34574 21.03 8.75995V10.2005C21.03 11.41 20.0495 12.3905 18.84 12.3905H4.44C3.2305 12.3905 2.25 11.41 2.25 10.2005V8.75995C2.25 8.34574 2.58579 8.00995 3 8.00995Z" fill="currentColor"/>
</svg>
