<svg width="513" height="512" viewBox="0 0 513 512" xmlns="http://www.w3.org/2000/svg">
<path fill-rule="evenodd" clip-rule="evenodd" d="M125.39 41.3107C122.8 38.7335 118.639 38.761 116.101 41.299L41.3187 116.081C38.7763 118.617 38.7328 122.773 41.3187 125.359L386.643 470.683C389.234 473.256 393.402 473.238 395.939 470.701L470.703 395.937C473.276 393.346 473.257 389.178 470.721 386.641L125.39 41.3107ZM88.2502 13.4484C106.191 -4.49264 135.268 -4.46704 153.211 13.4306L498.571 358.79C516.512 376.732 516.487 405.808 498.589 423.752L423.789 498.552C405.848 516.493 376.771 516.467 358.828 498.569L13.4681 153.21C-4.47576 135.266 -4.50517 106.17 13.4747 88.224L88.2502 13.4484Z" fill="currentColor"/>
<path fill-rule="evenodd" clip-rule="evenodd" d="M325.874 186.146C333.565 193.836 333.565 206.306 325.874 213.996L286.487 253.383C278.797 261.074 266.327 261.074 258.637 253.383C250.946 245.692 250.946 233.223 258.637 225.532L298.023 186.146C305.714 178.455 318.183 178.455 325.874 186.146Z" fill="currentColor"/>
<path fill-rule="evenodd" clip-rule="evenodd" d="M393.894 254.141C401.591 261.839 401.591 274.318 393.894 282.016L367.636 308.274C359.938 315.971 347.459 315.971 339.761 308.274C332.064 300.576 332.064 288.096 339.761 280.399L366.019 254.141C373.716 246.444 386.196 246.444 393.894 254.141Z" fill="currentColor"/>
<path fill-rule="evenodd" clip-rule="evenodd" d="M456.387 316.635C464.084 324.332 464.084 336.812 456.387 344.509L417 383.896C409.303 391.593 396.823 391.593 389.126 383.896C381.428 376.199 381.428 363.719 389.126 356.021L428.512 316.635C436.21 308.937 448.69 308.937 456.387 316.635Z" fill="currentColor"/>
<path fill-rule="evenodd" clip-rule="evenodd" d="M263.462 123.71C271.121 131.446 271.058 143.926 263.322 151.585L237.065 177.58C229.329 185.238 216.849 185.176 209.19 177.44C201.532 169.704 201.594 157.224 209.33 149.565L235.588 123.57C243.324 115.912 255.804 115.974 263.462 123.71Z" fill="currentColor"/>
<path fill-rule="evenodd" clip-rule="evenodd" d="M195.373 55.6447C203.064 63.3354 203.064 75.8045 195.373 83.4952L155.986 122.882C148.296 130.573 135.826 130.573 128.136 122.882C120.445 115.191 120.445 102.722 128.136 95.0313L167.522 55.6447C175.213 47.9539 187.682 47.9539 195.373 55.6447Z" fill="currentColor"/>
<path fill-rule="evenodd" clip-rule="evenodd" d="M442.572 50.3842C429.672 37.4838 409.004 37.5461 396.402 50.1479L279.24 167.31C271.549 175.001 259.08 175.001 251.39 167.31C243.699 159.619 243.699 147.15 251.39 139.459L368.552 22.2973C396.702 -5.85295 442.309 -5.58063 470.423 22.5336L489.223 41.3342C517.338 69.4484 517.61 115.055 489.46 143.205L372.298 260.367C364.607 268.058 352.138 268.058 344.447 260.367C336.756 252.677 336.756 240.208 344.447 232.517L461.609 115.355C474.211 102.753 474.273 82.0851 461.373 69.1847L442.572 50.3842Z" fill="currentColor"/>
<path fill-rule="evenodd" clip-rule="evenodd" d="M167.33 251.37C175.02 259.061 175.02 271.53 167.33 279.22L61.5109 385.039C60.7091 385.841 60.1032 386.881 59.7942 388.061L40.3159 463.428C39.0373 468.369 43.5299 472.849 48.4596 471.56L123.685 451.946C124.814 451.65 125.855 451.056 126.692 450.22L232.537 344.375C240.227 336.684 252.696 336.684 260.387 344.375C268.078 352.066 268.078 364.535 260.387 372.225L154.542 478.07C148.763 483.85 141.555 487.983 133.654 490.051L58.4226 509.666C24.3927 518.553 -6.61616 487.591 2.18227 453.572L21.6732 378.156C23.7284 370.255 27.8476 363.001 33.6603 357.189L139.479 251.37C147.17 243.679 159.639 243.679 167.33 251.37Z" fill="currentColor"/>
<path fill-rule="evenodd" clip-rule="evenodd" d="M324.019 66.9355C331.709 59.2448 344.178 59.2448 351.869 66.9355L444.822 159.888C452.512 167.579 452.512 180.048 444.822 187.738C437.131 195.429 424.662 195.429 416.971 187.738L324.019 94.786C316.328 87.0953 316.328 74.6262 324.019 66.9355Z" fill="currentColor"/>
<path fill-rule="evenodd" clip-rule="evenodd" d="M125.39 41.3107C122.8 38.7335 118.639 38.761 116.101 41.299L41.3187 116.081C38.7763 118.617 38.7328 122.773 41.3187 125.359L386.643 470.683C389.234 473.256 393.402 473.238 395.939 470.701L470.703 395.937C473.276 393.346 473.257 389.178 470.721 386.641L125.39 41.3107ZM88.2502 13.4484C106.191 -4.49264 135.268 -4.46704 153.211 13.4306L498.571 358.79C516.512 376.732 516.487 405.808 498.589 423.752L423.789 498.552C405.848 516.493 376.771 516.467 358.828 498.569L13.4681 153.21C-4.47576 135.266 -4.50517 106.17 13.4747 88.224L88.2502 13.4484Z" fill="currentColor"/>
<path fill-rule="evenodd" clip-rule="evenodd" d="M325.874 186.146C333.565 193.836 333.565 206.306 325.874 213.996L286.487 253.383C278.797 261.074 266.327 261.074 258.637 253.383C250.946 245.692 250.946 233.223 258.637 225.532L298.023 186.146C305.714 178.455 318.183 178.455 325.874 186.146Z" fill="currentColor"/>
<path fill-rule="evenodd" clip-rule="evenodd" d="M393.894 254.141C401.591 261.839 401.591 274.318 393.894 282.016L367.636 308.274C359.938 315.971 347.459 315.971 339.761 308.274C332.064 300.576 332.064 288.096 339.761 280.399L366.019 254.141C373.716 246.444 386.196 246.444 393.894 254.141Z" fill="currentColor"/>
<path fill-rule="evenodd" clip-rule="evenodd" d="M456.387 316.635C464.084 324.332 464.084 336.812 456.387 344.509L417 383.896C409.303 391.593 396.823 391.593 389.126 383.896C381.428 376.199 381.428 363.719 389.126 356.021L428.512 316.635C436.21 308.937 448.69 308.937 456.387 316.635Z" fill="currentColor"/>
<path fill-rule="evenodd" clip-rule="evenodd" d="M263.462 123.71C271.121 131.446 271.058 143.926 263.322 151.585L237.065 177.58C229.329 185.238 216.849 185.176 209.19 177.44C201.532 169.704 201.594 157.224 209.33 149.565L235.588 123.57C243.324 115.912 255.804 115.974 263.462 123.71Z" fill="currentColor"/>
<path fill-rule="evenodd" clip-rule="evenodd" d="M195.373 55.6447C203.064 63.3354 203.064 75.8045 195.373 83.4952L155.986 122.882C148.296 130.573 135.826 130.573 128.136 122.882C120.445 115.191 120.445 102.722 128.136 95.0313L167.522 55.6447C175.213 47.9539 187.682 47.9539 195.373 55.6447Z" fill="currentColor"/>
<path fill-rule="evenodd" clip-rule="evenodd" d="M442.572 50.3842C429.672 37.4838 409.004 37.5461 396.402 50.1479L279.24 167.31C271.549 175.001 259.08 175.001 251.39 167.31C243.699 159.619 243.699 147.15 251.39 139.459L368.552 22.2973C396.702 -5.85295 442.309 -5.58063 470.423 22.5336L489.223 41.3342C517.338 69.4484 517.61 115.055 489.46 143.205L372.298 260.367C364.607 268.058 352.138 268.058 344.447 260.367C336.756 252.677 336.756 240.208 344.447 232.517L461.609 115.355C474.211 102.753 474.273 82.0851 461.373 69.1847L442.572 50.3842Z" fill="currentColor"/>
<path fill-rule="evenodd" clip-rule="evenodd" d="M167.33 251.37C175.02 259.061 175.02 271.53 167.33 279.22L61.5109 385.039C60.7091 385.841 60.1032 386.881 59.7942 388.061L40.3159 463.428C39.0373 468.369 43.5299 472.849 48.4596 471.56L123.685 451.946C124.814 451.65 125.855 451.056 126.692 450.22L232.537 344.375C240.227 336.684 252.696 336.684 260.387 344.375C268.078 352.066 268.078 364.535 260.387 372.225L154.542 478.07C148.763 483.85 141.555 487.983 133.654 490.051L58.4226 509.666C24.3927 518.553 -6.61616 487.591 2.18227 453.572L21.6732 378.156C23.7284 370.255 27.8476 363.001 33.6603 357.189L139.479 251.37C147.17 243.679 159.639 243.679 167.33 251.37Z" fill="currentColor"/>
<path fill-rule="evenodd" clip-rule="evenodd" d="M324.019 66.9355C331.709 59.2448 344.178 59.2448 351.869 66.9355L444.822 159.888C452.512 167.579 452.512 180.048 444.822 187.738C437.131 195.429 424.662 195.429 416.971 187.738L324.019 94.786C316.328 87.0953 316.328 74.6262 324.019 66.9355Z" fill="currentColor"/>
</svg>
