<svg width="24" height="24" viewBox="0 0 24 24" fill="none" xmlns="http://www.w3.org/2000/svg">
<path fill-rule="evenodd" clip-rule="evenodd" d="M3 16.75C2.86221 16.75 2.75 16.8622 2.75 17V19C2.75 19.6908 3.30921 20.25 4 20.25H20C20.6908 20.25 21.25 19.6908 21.25 19V17C21.25 16.8622 21.1378 16.75 21 16.75H16.618C16.5236 16.75 16.4367 16.8031 16.3935 16.889C16.3935 16.889 16.3936 16.8889 16.3935 16.889L15.9472 17.7816C15.9472 17.7817 15.9473 17.7815 15.9472 17.7816C15.6512 18.3752 15.045 18.75 14.382 18.75H9.618C8.95453 18.75 8.34946 18.3752 8.05258 17.7832L7.60518 16.8884C7.56318 16.8042 7.47686 16.75 7.382 16.75H3ZM1.25 17C1.25 16.0338 2.03379 15.25 3 15.25H7.382C8.04505 15.25 8.65105 15.6245 8.94709 16.2181C8.94705 16.2181 8.94714 16.2182 8.94709 16.2181L9.39342 17.1108C9.39339 17.1107 9.39346 17.1109 9.39342 17.1108C9.43657 17.1967 9.52353 17.25 9.618 17.25H14.382C14.4769 17.25 14.5628 17.1966 14.6048 17.1124L15.0522 16.2176C15.3491 15.6256 15.9545 15.25 16.618 15.25H21C21.9662 15.25 22.75 16.0338 22.75 17V19C22.75 20.5192 21.5192 21.75 20 21.75H4C2.48079 21.75 1.25 20.5192 1.25 19V17Z" fill="currentColor"/>
<path fill-rule="evenodd" clip-rule="evenodd" d="M2.25 5C2.25 3.48079 3.48079 2.25 5 2.25H19C20.5192 2.25 21.75 3.48079 21.75 5V16C21.75 16.4142 21.4142 16.75 21 16.75C20.5858 16.75 20.25 16.4142 20.25 16V5C20.25 4.30921 19.6908 3.75 19 3.75H5C4.30921 3.75 3.75 4.30921 3.75 5V16C3.75 16.4142 3.41421 16.75 3 16.75C2.58579 16.75 2.25 16.4142 2.25 16V5Z" fill="currentColor"/>
</svg>
