<svg width="20" height="20" viewBox="0 0 20 20" fill="none" xmlns="http://www.w3.org/2000/svg">
<g id="Interface/Menu">
<g id="Union">
<path fill-rule="evenodd" clip-rule="evenodd" d="M10.2085 9.99998C10.2085 9.88492 10.1152 9.79165 10.0002 9.79165C9.8851 9.79165 9.79183 9.88492 9.79183 9.99998C9.79183 10.115 9.8851 10.2083 10.0002 10.2083C10.1152 10.2083 10.2085 10.115 10.2085 9.99998ZM10.0002 8.54165C10.8056 8.54165 11.4585 9.19456 11.4585 9.99998C11.4585 10.8054 10.8056 11.4583 10.0002 11.4583C9.19475 11.4583 8.54183 10.8054 8.54183 9.99998C8.54183 9.19456 9.19475 8.54165 10.0002 8.54165Z" fill="#1E312F"/>
<path fill-rule="evenodd" clip-rule="evenodd" d="M10.2085 15.8333C10.2085 15.7183 10.1152 15.625 10.0002 15.625C9.8851 15.625 9.79183 15.7183 9.79183 15.8333C9.79183 15.9484 9.8851 16.0416 10.0002 16.0416C10.1152 16.0416 10.2085 15.9484 10.2085 15.8333ZM10.0002 14.375C10.8056 14.375 11.4585 15.0279 11.4585 15.8333C11.4585 16.6387 10.8056 17.2916 10.0002 17.2916C9.19475 17.2916 8.54183 16.6387 8.54183 15.8333C8.54183 15.0279 9.19475 14.375 10.0002 14.375Z" fill="#1E312F"/>
<path fill-rule="evenodd" clip-rule="evenodd" d="M10.2085 4.16665C10.2085 4.05159 10.1152 3.95831 10.0002 3.95831C9.8851 3.95831 9.79183 4.05159 9.79183 4.16665C9.79183 4.28171 9.8851 4.37498 10.0002 4.37498C10.1152 4.37498 10.2085 4.28171 10.2085 4.16665ZM10.0002 2.70831C10.8056 2.70831 11.4585 3.36123 11.4585 4.16665C11.4585 4.97206 10.8056 5.62498 10.0002 5.62498C9.19475 5.62498 8.54183 4.97206 8.54183 4.16665C8.54183 3.36123 9.19475 2.70831 10.0002 2.70831Z" fill="#1E312F"/>
</g>
</g>
</svg>
