<svg width="24" height="24" viewBox="0 0 24 24" fill="none" xmlns="http://www.w3.org/2000/svg">
<path fill-rule="evenodd" clip-rule="evenodd" d="M8.98983 13.0841C9.23495 13.0811 9.47104 13.1765 9.6454 13.3488C9.81977 13.5211 9.9179 13.756 9.91788 14.0012C9.91784 14.5062 9.50947 14.9162 9.00443 14.9181C8.49939 14.9201 8.08779 14.5134 8.08377 14.0084C8.07975 13.5034 8.48482 13.0901 8.98983 13.0841Z" fill="currentColor"/>
<path fill-rule="evenodd" clip-rule="evenodd" d="M15.7513 16.9961C15.7547 17.4103 15.4217 17.7489 15.0075 17.7523L9.00503 17.8023C8.59083 17.8058 8.25226 17.4728 8.24881 17.0586C8.24535 16.6444 8.57833 16.3058 8.99253 16.3024L14.995 16.2524C15.4092 16.2489 15.7478 16.5819 15.7513 16.9961Z" fill="currentColor"/>
<path fill-rule="evenodd" clip-rule="evenodd" d="M3.74634 12.3307V18.6721C3.74634 19.5458 4.45461 20.254 5.32831 20.254H18.6729C19.546 20.254 20.2538 19.5462 20.2538 18.6731V12.3314C20.254 11.912 20.0875 11.5094 19.791 11.2127C19.4945 10.9161 19.0923 10.7495 18.6729 10.7495H5.32831C4.45498 10.7495 3.74689 11.4575 3.74634 12.3307ZM18.6729 21.754H5.32831C3.62618 21.754 2.24634 20.3742 2.24634 18.6721V12.3304C2.24707 10.6288 3.6267 9.24945 5.32831 9.24945H18.6729C19.4902 9.24945 20.2741 9.57423 20.8519 10.1523C21.4297 10.7303 21.7541 11.5142 21.7538 12.3314C21.7538 12.3313 21.7538 12.3315 21.7538 12.3314V18.6731C21.7538 20.3746 20.3744 21.754 18.6729 21.754Z" fill="currentColor"/>
<path fill-rule="evenodd" clip-rule="evenodd" d="M6.01288 16.0853C6.25775 16.0838 6.49302 16.1805 6.66617 16.3536C6.83879 16.5262 6.93535 16.7606 6.93448 17.0046C6.93326 17.5101 6.52315 17.9194 6.01741 17.9194C5.51093 17.9194 5.10034 17.5089 5.10034 17.0024C5.10034 16.4959 5.51094 16.0853 6.01741 16.0853C6.26715 16.0853 6.48838 16.2074 6.62469 16.3951C6.71447 16.5187 6.76741 16.6708 6.76741 16.8353C6.76741 16.8927 6.76096 16.9486 6.74874 17.0024H6.93448C6.93448 17.0031 6.93448 17.0039 6.93448 17.0046C6.93447 17.0054 6.93447 17.0061 6.93447 17.0069L6.74795 17.0058C6.67093 17.3372 6.37425 17.5842 6.01968 17.5853M6.01968 17.5853C6.02043 17.5853 6.02119 17.5853 6.02194 17.5853L6.01968 17.5853ZM6.60034 17.0024C6.60034 17.0032 6.60034 17.004 6.60034 17.0049L6.60034 17.0024Z" fill="currentColor"/>
<path fill-rule="evenodd" clip-rule="evenodd" d="M14.9876 13.2063C14.9815 13.2062 14.9754 13.2061 14.9693 13.2061C14.9692 13.2061 14.9694 13.2061 14.9693 13.2061M14.9577 13.2062C14.4566 13.2124 14.0522 13.6205 14.0522 14.1232C14.0522 14.6296 14.4628 15.0402 14.9693 15.0402C15.4758 15.0402 15.8864 14.6296 15.8864 14.1232L15.8863 14.1143C15.8805 13.618 15.482 13.2171 14.9876 13.2063" fill="currentColor"/>
<path fill-rule="evenodd" clip-rule="evenodd" d="M17.9856 16.1783C18.4913 16.1773 18.9024 16.586 18.9044 17.0917C18.9065 17.5966 18.5001 18.0079 17.9957 18.0124C17.9947 18.0124 17.9938 18.0124 17.9929 18.0124C17.9921 18.0124 17.9914 18.0124 17.9906 18.0124C17.9899 18.0124 17.9891 18.0125 17.9884 18.0125C17.9875 18.0125 17.9865 18.0124 17.9856 18.0124C17.482 18.011 17.0733 17.6038 17.0703 17.0998L17.0703 17.0954C17.0703 16.5896 17.4798 16.1793 17.9856 16.1783Z" fill="currentColor"/>
<path fill-rule="evenodd" clip-rule="evenodd" d="M17.0354 14.1842C17.0354 13.6777 17.446 13.2671 17.9525 13.2671C18.459 13.2671 18.8695 13.6777 18.8695 14.1842C18.8695 14.6907 18.459 15.1013 17.9525 15.1013C17.446 15.1013 17.0354 14.6907 17.0354 14.1842Z" fill="currentColor"/>
<path fill-rule="evenodd" clip-rule="evenodd" d="M17.002 1.24609C17.4162 1.24609 17.752 1.58188 17.752 1.99609V3.99693C17.752 5.51617 16.5204 6.74776 15.0011 6.74776H8.99864C8.30782 6.74776 7.7478 7.30778 7.7478 7.99859V9.99943C7.7478 10.4136 7.41202 10.7494 6.9978 10.7494C6.58359 10.7494 6.2478 10.4136 6.2478 9.99943V7.99859C6.2478 6.47935 7.47939 5.24776 8.99864 5.24776H15.0011C15.692 5.24776 16.252 4.68774 16.252 3.99693V1.99609C16.252 1.58188 16.5878 1.24609 17.002 1.24609Z" fill="currentColor"/>
</svg>
