<svg width="555" height="512" viewBox="0 0 555 512" xmlns="http://www.w3.org/2000/svg">
<path d="M179.711 2.38366C159.991 8.45117 141.572 25.5702 135.505 43.1226C133.121 49.8402 132.037 60.8918 132.037 75.6271V97.9469H186.212C216.116 97.9469 240.386 98.3803 240.386 99.0304C240.386 101.847 200.514 147.787 198.13 147.787C196.18 147.787 21.5221 97.9469 3.5363 92.3128C-0.147543 91.2293 -0.364239 93.6129 0.285851 142.803C0.935941 193.943 0.935941 194.594 6.78675 205.212C13.9377 218.864 28.2397 232.299 41.4582 237.716C50.1261 241.4 52.0764 243.35 56.1936 253.318C61.8277 266.97 80.6803 285.173 92.8153 288.857C99.9663 291.024 101.7 292.974 105.817 302.725C111.235 315.727 127.487 332.413 140.272 337.83C144.606 339.78 156.524 341.947 166.709 342.597L185.128 343.898L176.46 348.231C163.892 354.299 148.506 370.551 143.956 382.47L140.055 392.654H108.201V425.159H171.043V413.674C171.26 398.505 177.11 385.937 187.512 379.436C194.446 375.319 199.43 374.235 216.549 373.585L237.135 372.718L245.803 381.603L254.254 390.487L216.766 428.193L179.277 465.681L193.579 478.683C242.119 523.106 312.329 523.106 360.869 478.683L375.171 465.681L337.683 428.193L300.194 390.487L308.645 381.603L317.313 372.718L337.899 373.585C355.018 374.235 360.002 375.319 366.937 379.436C377.338 385.937 383.189 398.505 383.406 413.674V425.159H446.248V392.654H414.393L410.493 382.47C405.942 370.551 390.557 354.299 377.988 348.231L369.32 343.898L387.739 342.597C397.924 341.947 409.843 339.78 414.177 337.83C426.962 332.413 443.214 315.727 448.631 302.725C452.749 292.974 454.482 291.024 461.633 288.857C473.768 285.173 492.621 266.97 498.255 253.318C502.372 243.35 504.322 241.4 512.99 237.716C526.209 232.299 540.511 218.864 547.662 205.212C553.512 194.594 553.512 193.727 554.163 143.02L554.813 91.6627L547.445 93.8296C543.328 94.9131 499.338 107.482 449.281 121.784C399.441 136.085 357.619 147.787 356.319 147.787C353.935 147.787 314.063 101.631 314.063 99.0304C314.063 98.3803 338.549 97.9469 368.237 97.9469H422.411V75.6271C422.411 60.8918 421.327 49.8402 418.944 43.1226C414.61 30.1208 400.741 14.7354 386.873 7.36768C376.255 1.73357 374.304 1.51688 337.466 0.866787L299.111 0L288.709 20.8029C283.075 32.2878 277.874 41.6058 277.224 41.6058C276.574 41.6058 271.373 32.2878 265.739 21.0196L255.555 0.433393L220.45 0.65009C200.947 0.65009 182.744 1.51688 179.711 2.38366ZM251.221 65.4424H164.542V60.2417C164.542 52.874 173.21 41.1724 181.878 36.8384C187.728 33.8047 194.879 32.9379 212.215 32.9379H235.185L251.221 65.4424ZM372.571 36.8384C381.239 41.1724 389.906 52.874 389.906 60.2417V65.4424H303.228L319.263 32.9379H342.233C359.569 32.9379 366.72 33.8047 372.571 36.8384ZM306.262 141.503L333.565 174.224V208.462H220.883V174.224L248.187 141.503C263.139 123.517 276.141 108.782 277.224 108.782C278.308 108.782 291.309 123.517 306.262 141.503ZM112.968 157.755L188.379 179.208V310.31H172.343C159.558 310.31 155.224 309.443 149.373 305.326C139.188 298.608 134.421 289.507 132.904 273.905L131.387 260.469H119.036C97.366 260.469 84.5809 248.118 82.8473 225.148L81.5471 211.063L67.8952 210.196C53.1598 209.329 46.2255 205.645 37.9911 194.594C34.0905 189.393 33.4404 184.842 32.7904 161.439C32.1403 139.336 32.5737 134.352 34.9573 135.219C36.4742 135.869 71.5791 146.054 112.968 157.755ZM521.658 161.656C521.008 184.842 520.358 189.393 516.457 194.594C508.223 205.645 501.289 209.329 486.553 210.196L472.901 211.063L471.601 225.148C469.868 248.118 457.082 260.469 435.413 260.469H423.061L421.544 273.905C420.027 289.507 415.26 298.608 405.075 305.326C399.224 309.443 394.89 310.31 382.105 310.31H366.07V179.208L442.564 157.322C484.386 145.187 519.708 135.219 520.575 135.002C521.658 134.785 522.091 146.92 521.658 161.656ZM333.132 291.24L333.565 340.647H304.528L277.224 367.518L249.92 340.647H220.883V292.324C220.883 265.67 221.533 243.134 222.4 242.267C223.267 241.617 248.187 241.183 278.091 241.4L332.482 242.05L333.132 291.24ZM303.011 439.027L327.715 463.731L322.514 466.981C308.862 476.082 300.194 478.033 277.224 478.033C254.254 478.033 245.586 476.082 231.935 466.981L226.734 463.731L251.437 439.027C265.089 425.375 276.574 414.324 277.224 414.324C277.874 414.324 289.359 425.375 303.011 439.027Z" fill="currentColor"/>
<path d="M260.755 278.455C260.105 280.189 259.888 287.773 260.322 295.357L260.972 309.226H293.476V276.722L277.658 276.071C265.739 275.638 261.622 276.288 260.755 278.455Z" fill="currentColor"/>
<path d="M179.711 2.38366C159.991 8.45117 141.572 25.5702 135.505 43.1226C133.121 49.8402 132.037 60.8918 132.037 75.6271V97.9469H186.212C216.116 97.9469 240.386 98.3803 240.386 99.0304C240.386 101.847 200.514 147.787 198.13 147.787C196.18 147.787 21.5221 97.9469 3.5363 92.3128C-0.147543 91.2293 -0.364239 93.6129 0.285851 142.803C0.935941 193.943 0.935941 194.594 6.78675 205.212C13.9377 218.864 28.2397 232.299 41.4582 237.716C50.1261 241.4 52.0764 243.35 56.1936 253.318C61.8277 266.97 80.6803 285.173 92.8153 288.857C99.9663 291.024 101.7 292.974 105.817 302.725C111.235 315.727 127.487 332.413 140.272 337.83C144.606 339.78 156.524 341.947 166.709 342.597L185.128 343.898L176.46 348.231C163.892 354.299 148.506 370.551 143.956 382.47L140.055 392.654H108.201V425.159H171.043V413.674C171.26 398.505 177.11 385.937 187.512 379.436C194.446 375.319 199.43 374.235 216.549 373.585L237.135 372.718L245.803 381.603L254.254 390.487L216.766 428.193L179.277 465.681L193.579 478.683C242.119 523.106 312.329 523.106 360.869 478.683L375.171 465.681L337.683 428.193L300.194 390.487L308.645 381.603L317.313 372.718L337.899 373.585C355.018 374.235 360.002 375.319 366.937 379.436C377.338 385.937 383.189 398.505 383.406 413.674V425.159H446.248V392.654H414.393L410.493 382.47C405.942 370.551 390.557 354.299 377.988 348.231L369.32 343.898L387.739 342.597C397.924 341.947 409.843 339.78 414.177 337.83C426.962 332.413 443.214 315.727 448.631 302.725C452.749 292.974 454.482 291.024 461.633 288.857C473.768 285.173 492.621 266.97 498.255 253.318C502.372 243.35 504.322 241.4 512.99 237.716C526.209 232.299 540.511 218.864 547.662 205.212C553.512 194.594 553.512 193.727 554.163 143.02L554.813 91.6627L547.445 93.8296C543.328 94.9131 499.338 107.482 449.281 121.784C399.441 136.085 357.619 147.787 356.319 147.787C353.935 147.787 314.063 101.631 314.063 99.0304C314.063 98.3803 338.549 97.9469 368.237 97.9469H422.411V75.6271C422.411 60.8918 421.327 49.8402 418.944 43.1226C414.61 30.1208 400.741 14.7354 386.873 7.36768C376.255 1.73357 374.304 1.51688 337.466 0.866787L299.111 0L288.709 20.8029C283.075 32.2878 277.874 41.6058 277.224 41.6058C276.574 41.6058 271.373 32.2878 265.739 21.0196L255.555 0.433393L220.45 0.65009C200.947 0.65009 182.744 1.51688 179.711 2.38366ZM251.221 65.4424H164.542V60.2417C164.542 52.874 173.21 41.1724 181.878 36.8384C187.728 33.8047 194.879 32.9379 212.215 32.9379H235.185L251.221 65.4424ZM372.571 36.8384C381.239 41.1724 389.906 52.874 389.906 60.2417V65.4424H303.228L319.263 32.9379H342.233C359.569 32.9379 366.72 33.8047 372.571 36.8384ZM306.262 141.503L333.565 174.224V208.462H220.883V174.224L248.187 141.503C263.139 123.517 276.141 108.782 277.224 108.782C278.308 108.782 291.309 123.517 306.262 141.503ZM112.968 157.755L188.379 179.208V310.31H172.343C159.558 310.31 155.224 309.443 149.373 305.326C139.188 298.608 134.421 289.507 132.904 273.905L131.387 260.469H119.036C97.366 260.469 84.5809 248.118 82.8473 225.148L81.5471 211.063L67.8952 210.196C53.1598 209.329 46.2255 205.645 37.9911 194.594C34.0905 189.393 33.4404 184.842 32.7904 161.439C32.1403 139.336 32.5737 134.352 34.9573 135.219C36.4742 135.869 71.5791 146.054 112.968 157.755ZM521.658 161.656C521.008 184.842 520.358 189.393 516.457 194.594C508.223 205.645 501.289 209.329 486.553 210.196L472.901 211.063L471.601 225.148C469.868 248.118 457.082 260.469 435.413 260.469H423.061L421.544 273.905C420.027 289.507 415.26 298.608 405.075 305.326C399.224 309.443 394.89 310.31 382.105 310.31H366.07V179.208L442.564 157.322C484.386 145.187 519.708 135.219 520.575 135.002C521.658 134.785 522.091 146.92 521.658 161.656ZM333.132 291.24L333.565 340.647H304.528L277.224 367.518L249.92 340.647H220.883V292.324C220.883 265.67 221.533 243.134 222.4 242.267C223.267 241.617 248.187 241.183 278.091 241.4L332.482 242.05L333.132 291.24ZM303.011 439.027L327.715 463.731L322.514 466.981C308.862 476.082 300.194 478.033 277.224 478.033C254.254 478.033 245.586 476.082 231.935 466.981L226.734 463.731L251.437 439.027C265.089 425.375 276.574 414.324 277.224 414.324C277.874 414.324 289.359 425.375 303.011 439.027Z" fill="currentColor"/>
<path d="M260.755 278.455C260.105 280.189 259.888 287.773 260.322 295.357L260.972 309.226H293.476V276.722L277.658 276.071C265.739 275.638 261.622 276.288 260.755 278.455Z" fill="currentColor"/>
</svg>
