<svg width="24" height="24" viewBox="0 0 24 24" fill="none" xmlns="http://www.w3.org/2000/svg">
<path fill-rule="evenodd" clip-rule="evenodd" d="M2.56791 11.9195C2.56922 6.70028 6.81614 2.45605 12.0369 2.45605C14.5677 2.45714 16.9478 3.44415 18.7344 5.23189C20.5208 7.02046 21.506 9.40032 21.5049 11.9274C21.5027 17.1464 17.2561 21.3921 12.0369 21.3921H12.0329C10.5524 21.3921 9.09489 21.0446 7.77537 20.3802L3.43415 21.5185C3.17494 21.5865 2.89915 21.511 2.7107 21.3205C2.52225 21.13 2.44976 20.8534 2.52056 20.5949L3.6769 16.3734C2.94747 15.0037 2.56595 13.474 2.56791 11.9195ZM12.0366 3.95605C7.64365 3.95623 4.06883 7.52972 4.06791 11.9202C4.06609 13.3174 4.43253 14.6917 5.13064 15.9024C5.23065 16.0759 5.25716 16.2821 5.20427 16.4752L4.31053 19.738L7.67568 18.8556C7.86041 18.8071 8.05666 18.831 8.2244 18.9223C9.39358 19.5585 10.7024 19.8921 12.0329 19.8921H12.0369C16.4278 19.8921 20.0031 16.3177 20.0049 11.9267C20.0058 9.79779 19.1789 7.79949 17.6733 6.29206C16.168 4.78597 14.1696 3.95705 12.0366 3.95605Z" fill="#1E312F"/>
<path d="M9.03432 8.35038C9.18492 8.19978 9.42714 8.22452 9.54392 8.39178C9.78736 8.74242 10.0503 9.11976 10.3445 9.53745C10.4404 9.67435 10.4213 9.85946 10.3107 9.97069L9.9077 10.3767C9.61589 10.6707 9.61765 11.1455 9.91163 11.4373C10.2056 11.7292 10.6805 11.7274 10.9723 11.4334L11.3753 11.0274C12.0061 10.3927 12.0794 9.39785 11.5717 8.675L11.5712 8.67418C11.2795 8.26005 11.0182 7.88505 10.7757 7.53582C10.1204 6.59354 8.7789 6.48448 7.97366 7.28972L7.62042 7.64296C7.61804 7.64529 7.61568 7.64763 7.61333 7.65C6.59877 8.66937 6.58984 10.0058 7.02013 11.216C7.44555 12.4124 8.31566 13.5954 9.34154 14.6218C9.63436 14.9148 10.1251 14.9374 10.4181 14.6445C10.7111 14.3517 10.7012 13.8604 10.4084 13.5674C9.46928 12.6278 8.75678 11.6228 8.43345 10.7134C8.11608 9.82088 8.21636 9.17421 8.67178 8.7129L8.67532 8.70938L9.03432 8.35038Z" fill="#1E312F"/>
<path d="M15.6153 14.9965C15.7676 14.8477 15.7457 14.6052 15.5799 14.4865C15.2321 14.2389 14.8579 13.9716 14.4437 13.6725C14.3079 13.575 14.1226 13.5919 14.0101 13.7012L13.5994 14.0994C13.302 14.3877 12.8272 14.3804 12.5388 14.083C12.2505 13.7856 12.2579 13.3108 12.5553 13.0224L12.966 12.6242C13.608 12.001 14.6037 11.9393 15.3205 12.4555L15.3213 12.4561C15.732 12.7526 16.1039 13.0183 16.4503 13.2649C17.3848 13.9313 17.478 15.2739 16.6634 16.0696L16.306 16.4187C16.3037 16.421 16.3013 16.4234 16.2989 16.4257C15.2676 17.4282 13.9312 17.4214 12.7262 16.9769C11.5349 16.5374 10.3558 15.6597 9.34154 14.6218C9.05204 14.3256 9.04159 13.8283 9.33784 13.5388C9.63408 13.2493 10.1189 13.2712 10.4084 13.5674C11.3369 14.5176 12.3399 15.2356 13.2453 15.5696C14.1341 15.8974 14.7819 15.8048 15.2485 15.3548L15.2521 15.3513L15.6153 14.9965Z" fill="#1E312F"/>
<path fill-rule="evenodd" clip-rule="evenodd" d="M10.0382 10.2717C10.388 10.0498 10.8514 10.1536 11.0733 10.5034C11.3582 10.9527 11.7307 11.4082 12.1602 11.8377L12.1622 11.8397C12.5918 12.2692 13.0473 12.6417 13.4966 12.9267C13.8464 13.1485 13.9501 13.6119 13.7283 13.9617C13.5064 14.3115 13.043 14.4153 12.6932 14.1934C12.1365 13.8404 11.5961 13.3949 11.1016 12.9004L11.0996 12.8984C10.6051 12.4039 10.1596 11.8634 9.80654 11.3067C9.5847 10.9569 9.68843 10.4935 10.0382 10.2717Z" fill="#1E312F"/>
</svg>
