<svg width="513" height="513" viewBox="0 0 513 513" fill="none" xmlns="http://www.w3.org/2000/svg">
<path fill-rule="evenodd" clip-rule="evenodd" d="M7.50619 7.50619C17.1811 -2.16873 32.8673 -2.16873 42.5422 7.50619L504.994 469.958C514.669 479.633 514.669 495.319 504.994 504.994C495.319 514.669 479.633 514.669 469.958 504.994L7.50619 42.5422C-2.16873 32.8673 -2.16873 17.1811 7.50619 7.50619Z" fill="white"/>
<path fill-rule="evenodd" clip-rule="evenodd" d="M504.994 7.50619C514.669 17.1811 514.669 32.8673 504.994 42.5422L42.5422 504.994C32.8673 514.669 17.1811 514.669 7.50619 504.994C-2.16873 495.319 -2.16873 479.633 7.50619 469.958L469.958 7.50619C479.633 -2.16873 495.319 -2.16873 504.994 7.50619Z" fill="white"/>
</svg>
