<svg width="512" height="512" viewBox="0 0 512 512" fill="none" xmlns="http://www.w3.org/2000/svg">
<path fill-rule="evenodd" clip-rule="evenodd" d="M256.334 37C262.424 37 267.986 40.4572 270.681 45.918L332.882 171.93L471.981 192.262C478.006 193.142 483.009 197.366 484.887 203.158C486.765 208.951 485.193 215.307 480.831 219.555L380.193 317.577L403.944 456.055C404.973 462.058 402.505 468.125 397.578 471.705C392.65 475.285 386.117 475.756 380.727 472.921L256.334 407.504L131.941 472.921C126.55 475.756 120.018 475.285 115.09 471.705C110.162 468.125 107.694 462.058 108.724 456.055L132.475 317.577L31.8367 219.555C27.4749 215.307 25.9025 208.951 27.7805 203.158C29.6586 197.366 34.6615 193.142 40.6864 192.262L179.786 171.93L241.986 45.918C244.682 40.4572 250.244 37 256.334 37ZM256.334 89.1481L204.761 193.629C202.432 198.346 197.934 201.618 192.728 202.378L77.3751 219.239L160.831 300.525C164.605 304.201 166.327 309.499 165.437 314.691L145.745 429.507L248.887 375.266C253.549 372.814 259.119 372.814 263.781 375.266L366.923 429.507L347.231 314.691C346.34 309.499 348.063 304.201 351.837 300.525L435.293 219.239L319.94 202.378C314.734 201.618 310.235 198.346 307.906 193.629L256.334 89.1481Z" fill="#DDDDDD"/>
</svg>
