<svg width="512" height="512" viewBox="0 0 512 512" fill="none" xmlns="http://www.w3.org/2000/svg">
<path fill-rule="evenodd" clip-rule="evenodd" d="M256.5 37C262.594 37 268.16 40.4591 270.858 45.9229L333.104 172.004L472.304 192.347C478.333 193.228 483.339 197.454 485.219 203.249C487.098 209.045 485.525 215.404 481.16 219.655L380.449 317.73L404.217 456.285C405.247 462.291 402.777 468.362 397.846 471.943C392.915 475.525 386.377 475.997 380.983 473.16L256.5 407.707L132.017 473.16C126.623 475.997 120.085 475.525 115.154 471.943C110.223 468.362 107.753 462.291 108.783 456.285L127.658 317.654L31.8402 219.655C27.4752 215.404 25.9017 209.045 27.7811 203.249C29.6605 197.454 34.667 193.228 40.6963 192.347L179.896 172.004L242.142 45.9229C244.84 40.4591 250.406 37 256.5 37Z" fill="#EEB83B"/>
</svg>
